<svg id="Layer_1" data-name="Layer 1" xmlns="http://www.w3.org/2000/svg" viewBox="0 0 570.21 378.13"><path d="M802.22,329.57H673.55c-5,0-10.06,0-15.08-.21-5.56-.19-10.22-2.2-10.38-8.48-.16-6.08,4.26-8.61,9.63-9.71a9.43,9.43,0,0,1,1.66-.21q88.86,0,177.71.05c5.3,0,10.13,2.09,11.5,7.89,1.58,6.64-2.87,10.1-7.8,13.31Q760,384.75,679.26,437.41c-35.1,22.85-70,46.06-105.53,68.21-10.82,6.75-11.13,12.31-5.09,22.66,23.62,40.54,46.39,81.58,69.47,122.44A116.68,116.68,0,0,1,643.67,661c2.46,5.63,2.68,11.24-3.63,14.45-5.72,2.92-9.82-.69-12.51-5.19-8.6-14.38-16.9-28.94-25.23-43.47-16.67-29.09-33.67-58-49.7-87.43-6-11.09-11.24-12.29-21.9-5.27C458.35,581.73,385.61,628.74,313,675.9c-5.62,3.65-11.31,7.22-17.15,10.49s-12.19,4.67-16-2.44c-3.33-6.26,1.22-10.58,6.08-13.8q34.9-23.14,70-46.06c55.74-36.25,111.4-72.63,167.45-108.38,11-7,8.22-13.47,3.3-22.08q-42-73.47-83.61-147.2A90.63,90.63,0,0,1,437.68,336c-1.89-4.64-1-9,3.49-11.66S450,323,453.22,326.7a60.12,60.12,0,0,1,6.47,9.74c27.69,48.53,55.6,96.93,82.74,145.76,5.87,10.56,10.65,13.7,21.7,6.42q118.95-78.33,238.38-155.91Z" transform="translate(-278.71 -310.93)"/></svg>