<svg id="Layer_1" data-name="Layer 1" xmlns="http://www.w3.org/2000/svg" viewBox="0 0 641 521.64"><path d="M692.29,532.57c-19.55-32.7-14.31-73.33,10.44-95.31,29.39-26.11,67.83-28.38,98.06-8.48,28.53,18.78,32,45.68,26.6,74.79-5.06,27.35-23.24,44.45-50.45,51.63-40.4,10.67-80.78,3.52-121-.56-56.26-5.71-109.61-22.88-161.3-45.19-12.45-5.37-17.66-3.63-19.38,10.57-5.52,45.74-7.13,90.75,12.78,134.18a157,157,0,0,0,23,36.42c2.87,3.39,6.2,6.5,8.5,10.24,4.13,6.67,8.33,13.43.18,20.72s-15.17,2.34-20.53-2.71c-17.63-16.59-29.2-37-38.69-59.45C439,608.77,444.83,557,451.93,505.16c1.52-11.06-.86-15.89-10.08-20.79-87.12-46.31-162.27-107.84-228.27-180.84-7-7.76-12.61-16.65-20-24.26-5.64-5.79-7.91-14.86.34-20.42,7.12-4.8,14.25-2.54,20.25,4.85A781.89,781.89,0,0,0,388,421.67c19.38,12.94,39.25,24.9,59.19,36.86,11,6.59,16.74,5.63,21.85-7.87,21.18-56,16.8-110.27-8.79-163.24-9.9-20.5-24.26-38.35-40.18-54.71-7.26-7.47-15.89-15.91-5.78-25.28s19.62.44,25.69,7.26c25.17,28.3,46.67,59.09,57.51,96.12,5.93,20.25,11,40.36,11.66,61.89,1,30.9-8.2,59.24-18.06,87.4-5.18,14.77-1,19.71,12.57,25.42C554.73,507,607.11,522.85,662,530,671.34,531.16,680.75,531.6,692.29,532.57ZM757,440.09c-27-2.68-53.5,25.63-52.72,48.29.85,24.72,22.61,45.44,49.77,45.64,28.63.2,50.15-19.46,50.32-46C804.56,458.76,786.1,440.07,757,440.09Z" transform="translate(-188.52 -203.64)"/></svg>