<svg id="Layer_1" data-name="Layer 1" xmlns="http://www.w3.org/2000/svg" viewBox="0 0 117.93 876.31"><path d="M543.34,923.24c-.33-.63-.76-1.21-1.13-1.82-9.75-16.15-18.91-32.68-29.41-48.31A60.82,60.82,0,0,1,502,834.25c.14-2.8.25-5.16.4-7.18a6.39,6.39,0,0,1-.93-5.43c.24-.75.42-1.51.62-2.27a2.18,2.18,0,0,1,.06-.22V819c.08-1.28.1-2.55.1-3.83a6.4,6.4,0,0,1,.65-2.79,3.71,3.71,0,0,1-.37-1.64c-.07-3,2.2-3.36,4.42-3.39,6.45-.08,12.89-.06,19.34-.07,2.83,0,5.59-.53,5.74-3.92s-2.61-4.31-5.41-4.37c-5.25-.13-10.52-.35-15.75,0-6.32.47-9.14-1.49-8.78-8.37.51-9.52.16-19.09.06-28.64,0-3.29.26-7.54-4.56-7.33-4.26.19-3.81,4.21-3.84,7.25-.07,9.55-.45,19.12.09,28.64.39,6.86-2.37,8.87-8.68,8.42a145.09,145.09,0,0,0-15,0c-3.2.1-7.6-.59-7.46,4.32.12,4.24,4.14,3.87,7.2,3.92,6.2.09,12.41,0,18.62.09,2.46,0,5,.17,4.88,3.67a2.69,2.69,0,0,1-1.59,2.69,7.43,7.43,0,0,1,.41,6.2c1.47,2.42,1.49,6.75,1.57,14.45.1,11.71-.19,22.71-7.43,33.34-12.2,17.93-22.74,37-33.89,55.64-1.63,2.73-4.44,6.14,0,8.57,3.81,2.08,5.41-1.49,7-4.11,2.64-4.27,5.46-8.44,7.76-12.88,2.79-5.38,4.24-5.42,7.54.05,10.83,18,36,17.4,46.77-.73.82-1.39,1.1-3.22,2.94-4,2.45.92,3.11,3.38,4.32,5.32,2.52,4.06,4.89,8.2,7.36,12.28,1.63,2.7,3.45,6,7.14,4C547.61,929.44,544.87,926.14,543.34,923.24ZM493.63,872c.34-2.1,1.69-5.1,4.1-5.22,2.6-.13,3.8,2.8,4,5,.31,3.13-2.5,1.83-4.13,2.22C496.29,873.22,493.09,875.27,493.63,872Zm4.55,47.73c-10.1.29-18.8-8.18-18.93-18.44a19,19,0,0,1,18.36-19.1c9.95-.24,18.91,8.49,19,18.52A19,19,0,0,1,498.18,919.69Z" transform="translate(-442.5 -56.22)"/><path d="M545.58,529.32c-3.2-2.07-6.63-3.78-9.93-5.71q-23.17-13.56-46.32-27.17c-2.3-1.34-4.6-2.75-7.34-1.23a3.67,3.67,0,0,0-1.8,4.31c1.87,7.65,3.79,15.28,5.89,22.87a3.58,3.58,0,0,0,4.47,2.66c2.54-.57,3.48-2.45,3.1-4.86-.41-2.58-1.15-5.12-1.65-7.69-.45-2.3,0-4.33,2.83-2.75,10.47,5.87,20.8,12,31.7,18.29-3.45,2.68-6.17,1.85-8.67,1.86-20.77.09-41.54.05-62.31.09a50.82,50.82,0,0,0-6.41.38,3.65,3.65,0,0,0,.05,7.26c2.59.33,5.23.27,7.85.44a4.24,4.24,0,0,1,2.77,1c1.54.13,3.07.32,4.61.57a1.25,1.25,0,0,1,0-.76h62.49c.13.53.27,1.06.4,1.59L491.9,563.34a14.31,14.31,0,0,1,1.19-7.68c1-2.73,1.16-5.46-2-6.66s-4.85,1-6,3.61c-3,7-6,14-9,21.07-.92,2.15-1.11,4.25.88,5.86s4,1,6-.24c21-13.63,42.09-27.21,63.05-41C550.54,535.41,549.71,532,545.58,529.32Z" transform="translate(-442.5 -56.22)"/><path d="M492,443.34c16.71,0,32.65,0,48.58,0a55.57,55.57,0,0,1,7.85.39c2.33.33,4,1.8,3.77,4.38-.2,2.28-1.94,3.15-4,3.37-1.42.15-2.85.17-4.29.19-25.75.45-51.52-.66-77.28.66-9.24.48-13.58-4.45-13.22-13.7.26-6.44,2.87-12.08,6.15-17.36C469,406,481.3,393.44,497.44,385.23c7.47-3.8,16.22-7.65,23.42-.94,7.71,7.18,3.44,16.11-.26,23.87-5.62,11.83-14.5,21.2-24.29,29.72C494.92,439.09,493,439.85,492,443.34Zm-24.15,0a24.4,24.4,0,0,0,2.84-.3,15.89,15.89,0,0,0,3.39-1.06c18.22-8.85,31.63-22.55,40.43-40.71,1.5-3.11,3.4-7.06.57-10.1-3.11-3.36-7.19-1.35-10.62.13-12.08,5.21-21.71,13.64-30,23.62-5.35,6.43-10.12,13.26-12.28,21.53C460.87,441.29,462.51,443.83,467.85,443.29Z" transform="translate(-442.5 -56.22)"/><path d="M560.43,220.53a31.81,31.81,0,0,1-2,4.21c-4.61,7.24-9.18,14.53-14,21.61-3.74,5.48-6.14,5.47-10.43.14-10.63-13.2-21.06-26.56-31.76-39.69-3.29-4-3.65-8.75-4.08-13.44-.54-6.05-2.79-6.18-7.1-2.85-10.4,8-20.94,15.82-31.43,23.72-2.7,2-5.72,4.74-8.51.71-2.49-3.59.91-5.63,3.32-7.46q32-24.18,64-48.24c2.59-1.94,5.69-5.06,8.62-1.28s-.77,5.93-3.41,7.95c-4.73,3.63-9.36,7.42-14.3,10.75-3.74,2.52-4.43,5.59-3.93,9.82,1,8.75,3.74,16.45,9.83,23.2,7,7.79,13.3,16.25,19.71,24.56,2.79,3.6,4.79,4,7.36-.21,3.22-5.29,6.81-10.37,10.33-15.47,1.13-1.64,2.69-2.72,4.89-2.13C559.49,217,560.16,218.36,560.43,220.53Z" transform="translate(-442.5 -56.22)"/><path d="M449.63,268c3,.19,4.51,2.48,6.3,4.35,9.89,10.37,19.9,20.62,29.52,31.23,3.57,3.94,6.09,4,9.95.5,9-8.19,18.37-16,27.6-23.94,1.45-1.24,2.87-2.53,4.41-3.64,2.35-1.68,5-2.44,6.94.29,1.8,2.48.15,4.51-1.75,6.16q-13.79,12-27.61,23.92c-10.84,9.36-9.31,7.37-.86,16.41,8.8,9.42,17.73,18.73,26.56,28.12,2.31,2.46,5.27,5.34,1.62,8.46-3.35,2.86-5.63-.62-7.67-2.77q-38-40-75.84-80.1c-1.79-1.9-3.9-3.78-2.6-6.84A3.53,3.53,0,0,1,449.63,268Z" transform="translate(-442.5 -56.22)"/><path d="M519.66,81.77c-9.54-5.21-18.08-9.85-26.6-14.53a59.22,59.22,0,0,1-6.16-3.63c-1.92-1.38-2.81-3.37-1.36-5.59,1.19-1.83,3.08-2.18,5.07-1.42a39.7,39.7,0,0,1,4.53,2.12q23.63,12.77,47.2,25.61c2.59,1.41,6.43,2.46,5.23,6.54-1.37,4.64-5.21,2.92-8.43,2.44-4.24-.64-8.48-1.61-12.74-1.75-5.49-.17-11.47-.26-13.51,6.58-1.66,5.58,3.06,15.13,8.35,17.67a18.09,18.09,0,0,0,2.72.91c2.47.73,4.5,1.91,4.12,4.93s-2.77,3.75-5.27,3.74q-25.39-.11-50.8-.37c-2.47,0-5.08-.36-5.23-3.56-.16-3.5,2.4-4.38,5.26-4.41q15.75-.18,31.5-.17c3.87,0,4.93-1,3.45-5.1C501.15,95.6,503.33,90.3,519.66,81.77Z" transform="translate(-442.5 -56.22)"/><path d="M504,701.49c1-18.3,2.53-37.84,10.22-56.18,6-14.24,15.6-24.54,31.85-26.58,3.16-.39,7.5-1.57,8.3,3,.85,4.9-3.53,4.65-6.8,5.08-11.52,1.48-18.89,8.43-23.91,18.35-6,11.91-8.5,24.78-9.59,37.92-.78,9.27-1.07,18.57-1.57,27.86-.17,3.07.25,7-4.08,7.06-4.95.1-4.28-4.13-4.4-7.39C503.94,708,504,705.4,504,701.49Z" transform="translate(-442.5 -56.22)"/><path d="M492.63,701.11c0,3.84.05,7.18,0,10.52-.06,2.87.09,6.33-3.88,6.44-4.46.13-4.31-3.59-4.4-6.7-.3-10.24-.13-20.5-1.62-30.68-1.83-12.52-3.78-25-9.85-36.37-5.27-9.9-12.91-16.37-24.39-17.58-2.92-.31-6.34-.54-5.94-4.5.44-4.28,4.17-3.93,7.26-3.66,14.77,1.31,24.45,9.85,30.86,22.5C490.29,660.1,491.61,680.84,492.63,701.11Z" transform="translate(-442.5 -56.22)"/><path d="M542.06,546.94a4.29,4.29,0,0,0-3.13,2.52C540,548.6,541,547.76,542.06,546.94Z" transform="translate(-442.5 -56.22)"/><path d="M439.43,543.14" transform="translate(-442.5 -56.22)"/><path d="M441.36,561" transform="translate(-442.5 -56.22)"/></svg>