<svg id="Layer_1" data-name="Layer 1" xmlns="http://www.w3.org/2000/svg" viewBox="0 0 349.78 519.15"><path d="M492.12,218.7c94.65-2,178.77,70.77,181.53,166.67,2.57,89.52-70.86,169.26-170.28,171C409.9,558,325,480.38,323.94,386.6,323,298.34,393.86,223.23,492.12,218.7ZM340.83,380.94c-3.52,84.3,69,154.67,149.76,160.11C578.45,547,656.31,481,658.28,392.6c1.87-84.18-66.19-154-153.32-158.5C416,229.52,340.34,299.94,340.83,380.94Z" transform="translate(-323.93 -218.66)"/><path d="M508.16,737.8c-6-3.93-11.67-6.84-16.37-10.91C475,712.35,458.58,697.42,442,682.65c-28.89-25.75-57.56-51.76-86.9-77-5.93-5.09-10.87-11-16.61-16.14-3.48-3.14-5.51-7.14-1.7-11.46,4.36-4.94,7.54-1.28,10.94,1.68,20.4,17.77,41,35.33,61.26,53.21,27.6,24.3,54.84,49,82.55,73.19,14.63,12.76,20.35,11.68,33.46-2.33,24.78-26.47,50.63-51.87,77-76.77,16.86-15.93,32.85-32.79,48.9-49.55,4.68-4.89,9.33-10.53,15.39-4,5.25,5.66-.17,10.28-4.48,14.6-32.09,32.18-63.84,64.69-96.09,96.7-14.74,14.64-30.28,28.45-44.15,44C518.2,732.56,512.94,734.67,508.16,737.8Z" transform="translate(-323.93 -218.66)"/><path d="M575.13,598.14a40.29,40.29,0,0,1-3.73,6.11q-25.95,31.37-52.11,62.56c-8.15,9.68-16.21,10.37-25.44.51-20.46-21.85-41.47-43.17-62.27-64.7-3.54-3.66-4.49-8-1-11.66,4.17-4.37,9.11-3,12.85.92,14.72,15.3,29.23,30.79,43.8,46.24,1,1.06,1.68,2.38,2.62,3.49,13,15.36,18.75,15.12,32-1,12.94-15.72,25.91-31.42,39.11-46.91,2.36-2.77,5.41-6.17,10-4.07C573.81,590.92,575.35,593.39,575.13,598.14Z" transform="translate(-323.93 -218.66)"/><path d="M550.08,418.42c12.67,18.45,20.93,37.41,19.16,59.3-.83,10.28-1.62,21.2-13.25,25.42-12.21,4.42-22-.34-31.7-8.65a78.66,78.66,0,0,1-22.68-31.36c-3.3-8.34-6.77-8.32-11.27-.79-7.93,13.28-18.58,23.41-33.53,28.64-24.09,8.43-39.85-4-36.59-29.7,2.09-16.49,7.33-32,20.72-45.3-12.28-2.9-22.81-5.27-33.28-7.9-5.65-1.41-11.55-2.54-16.72-5.06-11.91-5.78-24.72-11.94-23.45-28.12,1.25-15.86,14.81-18.81,27-22.31,15-4.3,30.39-3.81,47.35-.95-3.91-12.36-14.22-18.73-15.5-29.81-.61-5.26-3.34-10.34-3.57-15.57-.5-11.05-2.51-24.22,8.91-30.33,12.86-6.89,26.22-1.64,36.37,7.46,9.23,8.28,19,16.62,23.69,29.05,1.23,3.26,2.57,8.4,7.05,8.29,4.32-.11,5.41-5.18,7.21-8.4,8.88-15.91,21.26-27.8,39.16-32.2,16-3.95,23.73,1.14,28.27,17,4.76,16.67-.78,31.82-8.37,46.14-4.28,8.06-2.83,9.81,5.92,10.06,15.49.45,31.11.74,45,9.67,16.58,10.65,17.17,27.52,1.11,38.54-15.39,10.56-32.34,15.17-50.9,14.82C561.46,416.29,556.5,414.46,550.08,418.42Zm-60.38-3.49c.35-12.07-3.26-15-13.31-8.41-20.32,13.29-36.35,30.19-39.56,56-.7,5.63-.42,11.33,3.93,14.55,4.9,3.64,10.84.32,14.81-2.65C475.39,459.58,488.47,440.58,489.7,414.93Zm-53-17.93c11.49-1.38,23.47-.59,34.07-6.15,6.48-3.4,10.83-7.92.27-12.32-8.93-3.73-17.47-8.75-26.71-11.25-16.09-4.36-32.59-4.94-48.76.36-4.72,1.54-9.42,4.56-10,9.54-.55,4.83,4.88,6.43,8.27,9.08C406.62,396.24,421.74,396.11,436.71,397Zm71.09,20.12c-1.87,25.22,8.84,44,22.57,61.46,4.34,5.52,11.16,10.38,17.58,7.08s5.65-11.42,4.47-18.37c-3.51-20.71-12.31-38.55-27.19-53.6-4.45-4.5-8.21-11.54-14.83-9.25C504.68,406.41,509,414.09,507.8,417.12ZM563,399.77c12.73.66,25.09-1.77,37.16-5.47,5.8-1.78,10.81-6.19,10.7-12.37-.09-5.34-6.26-6.56-10.59-8.62-25.45-12.15-49.18-3.45-72.79,6-3.08,1.24-6.84,3.15-6.64,6.93.23,4.27,4.07,6.57,7.81,7.78C539.78,397.67,551.31,399.17,563,399.77ZM507.85,353c0,8.26-1.61,16.23,10.25,12.1,17.78-6.2,41.15-37.05,41.71-55.64.39-13.25-5.07-17.59-16.81-11.29C520.9,310.07,510.5,330,507.85,353Zm-18.17,3.22c-3.55-26.34-13.57-49.18-37.38-63.46-9.8-5.88-15.19-2.41-13.65,8.68,3.74,26.91,17.85,47.3,41.12,61.35C487.53,367.5,490.35,364.7,489.68,356.24Z" transform="translate(-323.93 -218.66)"/></svg>