<svg id="Layer_1" data-name="Layer 1" xmlns="http://www.w3.org/2000/svg" viewBox="0 0 419.48 479.13"><path d="M733.8,464.23c0,36.4-.19,72.8.15,109.19.07,8.11-2.56,13-9.74,17.09Q630,644.6,536.22,699.43c-8.11,4.74-14.84,4.79-22.85.14Q419,644.76,324.23,590.51c-7.14-4.09-9.79-8.84-9.76-17q.4-109.73,0-219.46c0-8.55,2.76-13.8,10.2-18.06Q419,282,512.9,227.46c8.05-4.68,14.38-4.82,22.58,0q94.31,55,189.1,109.12c6.64,3.81,9.43,8.56,9.36,16.34C733.63,390,733.8,427.11,733.8,464.23Zm-14.37-16.78c0-25.69-.14-51.39.08-77.08.07-7.66-1.48-9.73-8.92-5.36q-67.33,39.62-135,78.63c-6.25,3.6-9.08,7.77-9,15.25q.45,73.86.06,147.73c0,8.12,1.39,10.25,9.35,5.76q67.59-38.11,135.61-75.46c6.33-3.47,8.11-7.76,8-14.54C719.26,497.41,719.44,472.43,719.43,447.45ZM338.68,346.24c1.59,1.68,2.16,2.63,3,3.11q71.88,41.37,143.76,82.75c5.92,3.42,10.44,2,15.74-1.26,40.58-25.26,81.31-50.29,122-75.44,10-6.2,10-6.53-.28-12.85-42-25.72-84.07-51.23-125.86-77.23-6.74-4.19-11.69-4.13-18.4-.15-27.6,16.39-55.55,32.2-83.34,48.26C376.53,324.24,357.84,335.12,338.68,346.24ZM516.35,596h1.75c0-25-.18-49.93.12-74.89.09-6.77-1.8-11.2-7.93-14.76Q445,468.52,380.16,430c-6.78-4-9.24-3.43-9.21,5q.26,78.13,0,156.28c0,6.58,2.86,10.36,8.4,13.51q64.19,36.48,128.12,73.44c7,4.08,9,3,9-5.12C516.18,647.41,516.35,621.72,516.35,596Z" transform="translate(-314.47 -223.89)"/></svg>