<svg id="Layer_1" data-name="Layer 1" xmlns="http://www.w3.org/2000/svg" viewBox="0 0 582.89 502.08"><path d="M275.18,518.4c5.23,0,10.46-.13,15.69,0,36.09,1,45.7-5.89,59.15-39.32,3.14-7.8-.88-11.2-4.28-15.59-10.07-13-20.46-25.72-30.78-38.51-5.39-6.67-11-13.55-1.94-21.13,9.63-8,14.93,1.06,20.25,6.54,7.79,8,15.45,16.37,21.88,25.49,8.72,12.38,14.28,11.82,22.08-1.3,27.42-46.21,55.69-91.91,83.7-137.77C471,280.33,481.4,264,491.41,247.45c11.73-19.4,19.55-19.92,31.59.08,37.34,62,74.73,124,110.55,186.9,9.5,16.67,15.38,14,25.51,2.45A304.08,304.08,0,0,1,683,413.31c5.83-5.3,12.58-14.28,20.72-6.1,9.21,9.27,2.08,17.24-5.69,24.38-9.34,8.58-17.45,18.55-27.11,26.71-12.27,10.37-10.43,19.76-3.88,33.19,11.12,22.8,27.23,30.61,51.77,27.76,17-2,34.36-.64,51.56-.4,10.15.14,24.4-2.32,25.15,11.7.83,15.55-14.2,11.92-23.79,12.26-17.92.62-35.92.76-53.82-.2-17.09-.92-17.42,5.43-9.66,17.61C713.82,569,719,578,723.8,587.29c3.67,7.12,4.8,14.88-3.58,19.63-9.24,5.24-13.77-2.35-17.68-8.5-6.8-10.7-13.75-21.46-19-32.95-8.11-17.8-20.38-23.23-40.25-24.29-27.14-1.44-43.76,5.73-57.27,30.61-25.36,46.69-49.55,93.69-67.14,143.88-3,8.65-4.94,19-15.74,19.12-11.76.14-11.92-11.6-14.67-19.74a705.84,705.84,0,0,0-76.73-158.88c-15.88-24.44-67.28-22.65-81.69,2.46-7.42,12.94-15,25.81-23,38.41-4.54,7.18-11.6,10.13-19.3,5.57-8.26-4.91-3.56-11.77-.83-17.71,2.18-4.74,5.21-9.07,7.59-13.71,4.57-9,16.8-18,11.23-27-5.36-8.7-19.41-3.33-29.62-3.76-17.16-.73-34.37-.65-51.56-.76-7.07,0-11.51-2.88-11.93-10.3-.45-7.64,4.45-11.23,11-11.4,17.17-.48,34.35-.16,51.53-.16Zm226.9,1.14v-.15q17.91,0,35.82,0c12.69,0,25.39.39,38.05-.19,29.56-1.37,53-44.66,38.06-69.85-32-53.83-64.39-107.39-95.64-161.64-9.36-16.24-15.19-14.31-23.69-.15-31.75,52.89-64,105.51-95.7,158.41-6.14,10.23-20.22,20.36-9.31,33.45,14.1,16.92,19.29,45.27,52.05,40.65C461.47,517.27,481.94,519.54,502.08,519.54Zm3.17,21.21v-.13c-18.68,0-37.37-.21-56.05.08-9.76.15-16.16,1.53-8.82,14.34,20,35,39.88,70.05,55,107.55,1.77,4.35,2.63,11.78,9.31,10.5,3.32-.64,6.93-5.8,8.3-9.66,13.77-39,35.57-74,55.61-109.77,6-10.75,3.13-13-7.33-12.94C542.63,540.83,523.94,540.75,505.25,540.75Zm122-24.06c8.17-.05,18.61,8.31,22.37-5,1.16-4.1-1.16-9.91-5.53-11.12C631.71,497.16,631.61,509.09,627.3,516.69Zm-245.6-4c-3.79-4.56-5-13.22-13-12.41-5.17.53-8.17,6.85-8.57,11.76-.78,9.54,7.29,7,12.44,7C376.33,519.12,382.22,520.42,381.7,512.73Z" transform="translate(-212.64 -232.72)"/></svg>