<svg id="Layer_1" data-name="Layer 1" xmlns="http://www.w3.org/2000/svg" viewBox="0 0 422.13 510.47"><path d="M584.8,465.56c7.09-2.42,10.15-3.11,12.89-4.46,47.31-23.31,87.24-17.05,125,19.83,44.46,43.4,56.76,99.51,61.57,158.25,2.42,29.58.09,59.17-3.41,88.63-1,8.63-2.27,18.23-13.48,17.53-13.1-.82-11.61-11.7-10.64-20.62,4.37-39.81,6.17-79.58-.64-119.3-6.87-40.06-20-77.4-49.55-106.82-32.2-32.05-67.11-36.15-103.1-13.77-12.12,7.54-17.78,16.6-17.31,31.44,1.32,41.82,1.31,83.68,1.76,125.53.07,6.43,0,12.88-.41,19.3-.43,6.58-4.17,10.95-10.74,11.7-7.44.85-12.89-2.95-14-10.23a201.38,201.38,0,0,1-2.27-28.82c-.53-52.15-1.13-104.3-.88-156.45.06-14.16-3.89-19-18.92-18C496.36,462.23,452,464,407.56,465c-14.23.33-18.84,5-18.83,19.17,0,55.36-1,110.73-1.65,166.09-.07,5.78-.05,11.63-1,17.3s-5.06,8.8-11,8.81-9.78-3.23-11.06-8.84a49,49,0,0,1-.91-11.49q2.5-196,5.14-392.05a91.36,91.36,0,0,1,.73-9.63c.91-7.39,4.68-12.17,12.6-11.45,7.34.66,9.15,6.28,9.14,12.55q0,34.77-.26,69.53c-.27,34.12-.31,68.25-1.18,102.36-.31,11.91,4,15.95,15.72,15.3,46.9-2.61,93.82-5,140.76-6.71,13.87-.49,13.19-8.92,13.11-18.24q-.66-76.28-1.25-152.54c0-4.51-.08-9-.18-13.52-.21-9.77,3.65-16.83,14.13-16.77s11.75,8.27,11.83,16.48q.72,83,1.33,166.09C584.89,432.75,584.8,448,584.8,465.56Z" transform="translate(-363.15 -234.91)"/></svg>