<svg id="Layer_1" data-name="Layer 1" xmlns="http://www.w3.org/2000/svg" viewBox="0 0 434.23 553.86"><path d="M475.23,572.75c-12.12,7.84-22.5,14-33.48,18.83-35.32,15.65-71.42,20.84-108.9,7.8-44-15.3-65.79-52.18-55.34-97.74,16.73-73,58.87-125.69,128.13-155.93a208.94,208.94,0,0,1,62.68-16.16c6-.63,7.77-2.84,7.71-8.72-.25-26.65-.33-53.31.1-80,.12-7.32-2.16-9.32-9.31-9.31-51.94,0-103.88-.29-155.81-.52-1.92,0-3.85,0-5.77-.09-6.08-.36-10-3.44-10.1-9.66-.09-6.48,4.15-9.27,10.2-9.28q33-.09,66,.05,54.4.24,108.81.63c12.14.07,15.44,3,15.21,15.06-.61,31-.65,62-.31,93.06.06,5.14,1,7.3,6.59,7.61,48.76,2.74,92.12,19.78,129.42,51.15,37.56,31.59,62.08,71.57,72.43,119.71,13.56,63.14,3.37,122.4-34.53,174.82-43.44,60.08-103,91.56-178,91.74-13.82,0-16.18-2.73-16.15-16.51l.45-161.57C475.24,583.41,475.23,579.05,475.23,572.75Zm19.34-133.32h-.18q0,21.44,0,42.87c0,14.29-.05,28.58,0,42.87,0,2.11-1.05,4.91,1,6.14,2.7,1.6,4.37-1.44,6.28-2.73,10.91-7.39,21.71-14.94,33.46-21,21.34-11.05,43.44-18.44,68-15.47,38.61,4.66,64.82,47.2,49.65,81.1-10.16,22.71-28.64,33.25-52.91,34.14-36,1.31-67.83-11.13-97.71-29.94-2-1.27-4-4.26-6.27-3.21-2.85,1.33-1.47,4.88-1.48,7.44Q494,655.81,493.71,730c-.09,17.71-.17,17.9,17.46,16.1,55.62-5.67,101.45-30.58,135.67-74.18,43.59-55.55,54.07-118.33,33.42-185.88-23.83-78-96.72-134.27-177.88-138.31-6.31-.32-8,1.41-7.94,7.63C494.74,383.38,494.57,411.4,494.57,439.43ZM313.2,566c1.82-3,.62-5.05.38-7.13-3.43-29.67,15.69-58.24,44.35-66,19.65-5.32,38.83-2.33,57.15,5.21,19.34,8,37.08,19.1,53.85,31.6,4.83,3.61,6,2.25,6.09-2.85.13-7.41.3-14.81.33-22.22.19-49.44.25-98.88.6-148.31.05-6.74-2.21-8.56-8.74-7.58-76.86,11.57-131.27,52.25-161.28,124.39-8,19.14-13.74,38.93-11,60.08A49.3,49.3,0,0,0,313.2,566Zm279.86,21.68c3.85,0,7.72.3,11.53,0,20.15-1.89,33.46-16.86,33.07-37-.43-22.87-21.73-41.12-46.59-40-34.05,1.55-60,20.82-86.33,39.35-3.36,2.37-2,4.4.71,6.34C531.71,575,560.16,587.6,593.06,587.64Zm-215.89-.2c32.19-.28,60.76-12.62,87.25-31,5.07-3.52,2.36-5.37-.83-7.7a383.32,383.32,0,0,0-48.33-29.86,78.87,78.87,0,0,0-43.07-9c-31.64,2.47-49.61,34-34.26,60.11C346.62,584.81,361.24,587,377.17,587.44Z" transform="translate(-274.93 -211.98)"/></svg>