<svg id="Layer_1" data-name="Layer 1" xmlns="http://www.w3.org/2000/svg" viewBox="0 0 428.09 513.15"><path d="M421.61,249.47c-30.35-2.84-58.91,8.07-88.48,11.2-3,.32-5.94,1.1-8.87.94-5.59-.31-11.49-1.14-14.32-6.73-3.09-6.11-.42-11.82,3.65-16.46a52.59,52.59,0,0,1,28.1-16.64c27.5-6.55,55.07-3.8,82.59-.78,22.84,2.51,45.58,6,68.41,8.56,8.8,1,17.94,2,25.92-3.89,2.69-2,5.7-4.7,9.22-2.45,4,2.55,2.84,6.81,2,10.49-4.26,18.67-9.86,37.13-12.74,56-4.07,26.59-2.59,53.56-2,80.41.18,8.5,5.93,9.92,12.59,11.53,39.5,9.54,78,21.85,112.33,44.43,47.81,31.42,82,72.67,93.87,130.05,13.9,67-24.76,135.39-88.83,158.77-41,15-82.61,19.88-125.59,12.9a80.82,80.82,0,0,1-19.37-6.18c-11.8-5.24-17.13-13.6-14.77-27.53,4.29-25.39,3.52-24.94-21.25-31.22C398.68,646.3,350.7,609.49,332.8,542.15c-19.27-72.5,16.54-131.94,89.76-153.51,18.51-5.45,37.61-7.26,56.59-9.66,7.13-.9,9.21-4,9.41-10.68,1-33-4.1-65.37-10.33-97.6-2.1-10.93-8.94-16.6-19.75-18.95C446.23,249.09,433.91,249.53,421.61,249.47ZM696.07,583.84c.21-23.38-2.89-46.42-15.82-66.17-36.09-55.11-87-88.66-151.83-100.92-3.35-.63-8.11-1.7-9,2.16a70.53,70.53,0,0,0,.06,31.6c1.57,7.07,9.6,5.83,15.14,7.05,29,6.36,56.45,16.1,79.66,35.52,42.18,35.29,48.21,99.41,11.76,139.11-23.45,25.54-54.84,34.6-88.52,37-6.68.48-15.46-.08-13,10.52,2,8.91-4.66,23.06,13.3,23.84a236.93,236.93,0,0,0,60.83-5.36C661.69,684.54,696.45,644,696.07,583.84Zm-221.58-166c-25.47,1.08-47.93,5.24-69.21,14.75-32.22,14.38-49,39.24-51.21,74.44-3.63,57.52,50.18,128.8,127.58,141.89,3.89.66,8,1.23,9-4.13.77-4,.3-7.8-4.06-9.67s-8.7-3.43-13-5.2c-38-15.48-62-49.75-62-88.53,0-40.53,23.69-70.5,66.72-82.28,10.71-2.93,14.14-7.73,12.1-17.87a27,27,0,0,1-.88-7.59C490.72,420.54,486.44,413.79,474.49,417.81ZM613.87,573.32c.06-41.18-30.2-76-74.25-85.35-18.43-3.92-21.38-.78-18.9,17.95,1.32,9.94,9.44,8.57,15.29,10.46,27.34,8.8,46.7,35.53,45.84,64s-18.58,49.51-47.91,57.09c-1.64.43-3.34.67-5,1-5,.89-5.84,4.4-5.23,8.6.66,4.52,4,5,7.68,4.55,4.64-.63,9.26-1.42,13.86-2.3C585.43,641.61,613.81,610.16,613.87,573.32Zm-183-35.05c-.75,38.92,20.58,58.52,49.56,72.52,3.51,1.7,8.26,5.31,10.48-1.22,1.66-4.85,2-10.44-3.47-13.66-3.25-1.93-7.11-2.8-10.59-4.38-18.68-8.51-30.32-24-28.88-39.89,1.78-19.68,15.2-29.38,32.26-35.47,9.67-3.44,15.45-19.42,10.12-27.89-1.65-2.61-3.92-2.46-6.65-2.29C452.16,488,430.72,510.59,430.87,538.27Zm115,44.42c-4.33,7.08-10.66,9-16.16,11.83-8.69,4.47-8.44,12.62-5,18.5,3.23,5.61,9.15,0,13.11-2.37,23.79-14.28,26.8-45.17,6.1-62.55-5.46-4.58-12.12-11.25-18.86-8.3-6.36,2.78-2.17,11.54-2.17,17.53C522.79,580.16,523,580.16,545.83,582.69ZM491.76,560a69.18,69.18,0,0,0-.07-8.88c-.57-4.33,2.43-10.62-3.08-12.43s-10.42,2.41-14.19,6.58a17.72,17.72,0,0,0-3.74,6.55c-2.64,9,2,15.6,7.9,21.36,3.26,3.18,8.68,7.94,11.84,5,4.28-3.91.69-11.17,1.37-17A7.7,7.7,0,0,0,491.76,560Z" transform="translate(-308.6 -217.77)"/></svg>