<svg id="Layer_1" data-name="Layer 1" xmlns="http://www.w3.org/2000/svg" viewBox="0 0 353.22 398.65"><path d="M530.41,414.77c-6.26-7-10.14-12.69-1.53-20.7a12.79,12.79,0,0,1,5.44-3.36,80.38,80.38,0,0,1,7.29-8,8.81,8.81,0,0,1,3.14-6.28c.63-.83,1.34-1.68,2.15-2.56,22-24.09,43.26-48.88,64.83-73.37,3.81-4.33,8.16-8.64,5.61-15-2.7-6.78-9-5.86-14.69-5.84q-94.08.45-188.16,1c-6.71,0-14.19-.7-17.26,7.25-2.84,7.35,3.44,11.39,7.39,15.84,26.81,30.24,53.49,60.61,80.92,90.29,7,7.63,6.46,12.39-.17,19.32-12.9,13.47-25.23,27.49-37.61,41.44-15.12,17-30,34.26-45.09,51.37-3.78,4.3-5.81,8.86-1.66,13.85,2.89,3.48,7.26,5,11.2,2.75a42.22,42.22,0,0,0,10.59-8.88q35.64-40,71-80.29c13.25-15.08,13.35-15.32,26.13-.82,25,28.37,49.77,56.95,74.68,85.41,4.81,5.49,10.89,9.71,17.35,3.82s2.62-11.87-2.34-17.45C583.12,474.63,557,444.49,530.41,414.77Zm-8.69-44.87,0,0a8.15,8.15,0,0,1-3,1.61c1.1,4.21-3.52,7.34-6.21,10.64-4.06,5-7.71,3.52-11.45-.68-23.21-26.13-46.5-52.2-72.51-81.38h157c-20.64,23.21-39,43.86-57.38,64.48a5.4,5.4,0,0,1-4.12,2.19,8.51,8.51,0,0,1-1.93,2.75C522,369.67,521.85,369.79,521.72,369.9Z" transform="translate(-329.45 -279.55)"/><path d="M507.09,678.2c-3.93-1.29-7.45-2.18-10.77-3.56C417.41,641.78,364,584,331.72,505.73c-2.46-5.94-4.59-12.88,3.09-16.12,10.05-4.23,13.71,3.53,16.78,11.1,22.32,54.91,58.63,98.25,107.47,131.65,41.61,28.46,55.06,28.39,96.58-.58,46.68-32.56,81.71-74.37,103.76-126.93.4-1,.71-2,1.14-2.89,3.28-7.06,6.16-16.17,16.45-11.29,9,4.26,5.35,12.21,2.33,18.94-12.11,27-25.61,53.24-44.37,76.39-30.53,37.66-67.35,67.23-112,86.67C517.79,674.93,512.27,676.42,507.09,678.2Z" transform="translate(-329.45 -279.55)"/><path d="M567.74,554.64c.29,33.58-26.25,60-60.16,59.93-32.89-.09-61.11-27.5-61.59-59.83-.46-31.55,26.79-58,60.41-58.57C540.68,495.56,567.45,521.08,567.74,554.64Zm-19.89,1c.25-21.66-18.7-40.3-40.76-40.11-20.74.18-39.39,17.78-40,37.76-.66,21.52,17.73,40.24,40.17,40.91C528.4,594.79,547.61,576.54,547.85,555.6Z" transform="translate(-329.45 -279.55)"/></svg>