<svg id="Layer_1" data-name="Layer 1" xmlns="http://www.w3.org/2000/svg" viewBox="0 0 262.96 411.79"><path d="M426.58,525.62c-2.7,62.93,46.53,97.67,93.19,103.25,32.5,3.89,62.31-1.77,86.19-26,34.08-34.55,32.53-97.56-3.5-125.48-21.79-16.89-46.69-21-71.59-8.15-24.42,12.63-34.15,34.77-32.42,61.89,1.74,27.41,26.75,48.1,53.76,44.76,18.27-2.27,30.3-17.24,30.71-38.23.38-19.23-10-32.31-28-35.15-9.82-1.55-22.11,4.79-26.26,13.77-3.6,7.79-1.5,14.54,4.37,20.34,4.82,4.75,10.75,5.82,17,4,10.27-3,12.67-13.56,5-20.87-1.63-1.55-4.76-2.63-3.42-5.44,1.48-3.09,4.71-2.07,7.28-1.47,8.81,2,14.19,12,11.89,21.71-3.56,15.07-20.43,24.7-35.68,20.35-16.9-4.83-25.72-21.51-20.35-38.51a33.78,33.78,0,0,1,31.9-24,60.9,60.9,0,0,1,13.16.81c31.62,6.2,46,26.43,39.9,55.94-6.36,31-31.5,48.86-60.79,43.31-40.1-7.6-62.09-41.72-53-82.7,5-22.46,17-40.56,36.1-53.51,24.57-16.67,50.3-14.76,75.2-1.7,71.58,37.53,68.64,120.88,22.29,165.44-14.9,14.33-33.65,19.74-53.28,23-29.54,5-58.69,3.79-87.22-6.09-41.4-14.35-63.19-44.92-71.17-86.57-7-36.41,1.15-70.29,20.17-101.35,29.85-48.73,70.24-86,123.88-107.25a175.24,175.24,0,0,1,77.79-12c13.44,1,25.85,5.49,35.63,15.42,1.87,1.91,4,4.21,2.5,7.13-1.63,3.13-4.57,1.77-7.24,1.42-74.21-9.56-134.38,19.65-186.74,68.84a152,152,0,0,0-45.21,80.37C426.74,511.33,427,519.78,426.58,525.62Z" transform="translate(-405.29 -234.11)"/><path d="M424.25,412.65c2.33-36.82,16.73-68.85,39.51-97.28,30.65-38.27,67.77-67.22,116.68-78.34,10.2-2.32,20.6-4.68,31.06-1.06,3.49,1.21,7.15,2.4,10.16,4.44,5.09,3.42,8.51,8.25,6,14.7-2.48,6.26-7.88,6.45-13.69,5.49-42-7-78.09,6.78-108.34,34.67-36,33.2-59.34,74.48-70,122.6-1.12,5.06-.68,14-5.91,13.55-6.14-.48-4-9.41-5.33-14.72A17.1,17.1,0,0,1,424.25,412.65Z" transform="translate(-405.29 -234.11)"/><path d="M564.6,302.63c9.3-10.73,19.29-16.11,32.54-8.27,2.53,1.5,4.93.5,4.84-3.8-.29-13.9,0-13.93,14-8,2.36-3.73.45-7.8.85-11.6.17-1.68.4-3.59,2.35-4.09s3.29.74,4.17,2.23c7.34,12.38,11.24,26.08,14.95,39.81a5,5,0,0,1-3.89,6.25c-3.25.81-5-1.47-6.25-4-2.26-4.53-4-9.38-6.75-13.6-2.17-3.35-5-4.76-6.92.92-3.49,10.61-6.89,12.55-17.71,8-10.35-4.34-18.4-1.57-26.07,5.21-1,.89-2.79,1.93-2.76,2.84.56,14.68-10.53,9.09-17.48,9.81-5.68.59-11.54.07-17.25-.53-6-.64-9.26-3.48-4.06-9.1a104.41,104.41,0,0,1,27-21.37C565.45,288.38,561.28,298.62,564.6,302.63Z" transform="translate(-405.29 -234.11)"/></svg>