<svg id="Layer_1" data-name="Layer 1" xmlns="http://www.w3.org/2000/svg" viewBox="0 0 446.26 469.61"><path d="M642.39,481.79c-8.22-40.88-37.45-68.49-82.51-77.2a148.59,148.59,0,0,0-55.49-.54c-34.5,6.44-59.23,25.24-69.35,60-10.07,34.64-.66,64.1,26.07,87.66,26.17,23.06,56.18,24.55,87.6,12.65,27-10.24,39.64-36.88,33.48-69.57-5-26.56-24.77-43.31-51.59-43-6,.06-15.42-2-15.53,7.36-.1,8.76,8.93,5.74,14.27,6.22,23.8,2.15,36.1,12.38,39.85,33.79,4.36,24.95-5.18,44.15-26.42,53.19-33.81,14.37-69.74,2-88.14-30.26-17.44-30.62-9.19-70.74,18.88-91.78,37.34-28,115-15.69,141.64,22.43,33.26,47.54,13.68,123.59-38.67,148.25-23.64,11.13-48.72,16.47-75.12,14.6-62.49-4.42-111.61-51.51-113.4-109a4,4,0,0,1,1.64.14,80.41,80.41,0,0,1-.61-11.18c0-2.33.14-4.66.31-7-3.9-2.47-1.68-8.81-.95-13.11,2-11.81,4.4-23.51,9.4-34.6,21.76-48.26,60-73,111.61-79.17,5.32-.64,14.17.85,12.71-8.23-1.09-6.77-8.7-4.84-13.77-4.52-23.2,1.51-44.41,9.5-64.52,20.7-73.1,40.75-94.18,146.46-42,210.25,44.48,54.36,132.5,66.46,192.9,26.54C635.11,579.74,652.78,533.53,642.39,481.79Z" transform="translate(-281.81 -256.08)"/><path d="M532,725.69c-1.91-1.2-4.42-2-5.6-3.71a5.5,5.5,0,0,1,1.45-7.93A121.09,121.09,0,0,1,540.27,707c24.33-12.76,44.61-30.05,59.78-53.12,3.19-4.85,6.09-12.45,13.34-8.2,7.85,4.61,1.59,10.52-1.45,15.14A172.42,172.42,0,0,1,544.2,720.9C540.5,722.76,536.47,724,532,725.69Z" transform="translate(-281.81 -256.08)"/><path d="M394.42,667.39a183.75,183.75,0,0,1-63-12.4c-4.75-1.85-11.6-3.71-9-10.83,2.63-7.28,8.84-4,13.74-2.27,28.09,10,56.77,13.33,86.29,8.2,5.3-.93,11.95-2.31,13.11,4.93s-5.74,8-11,8.78C414.52,665.23,404.46,666.22,394.42,667.39Z" transform="translate(-281.81 -256.08)"/><path d="M728.07,563.86c-.39,4.32,1.56,11.35-6.39,11.61-6.32.21-6.87-6-7.07-10.64-1.25-29.7-12.3-55.94-27.87-80.65-2.51-4-6.72-8.62-1.19-12.48,6.21-4.32,10,1.29,12.87,5.71C715.5,503.45,726,531.82,728.07,563.86Z" transform="translate(-281.81 -256.08)"/><path d="M281.83,456.15c0-4.79-.53-10.34,5.92-11.06,5.29-.59,6.95,4,7.49,8.26,3.67,29.18,14.71,55,34.63,76.85,3,3.28,5.27,7.22.81,10.73-4.89,3.86-8.77.35-12.48-2.85C302.61,524.63,281.83,477.87,281.83,456.15Z" transform="translate(-281.81 -256.08)"/><path d="M617.54,360.09c28.85,2.66,55.11,8,78.51,22.62,5,3.13,14.89,5.56,9.79,13.79-4.09,6.6-10.92.39-15.68-2.49-22-13.35-46.42-18.48-71.56-21.41-6.55-.77-18.09,3.08-18-6C600.72,354.7,612.87,362.65,617.54,360.09Z" transform="translate(-281.81 -256.08)"/><path d="M355.56,366.37c4.3-31.14,18.38-57,38.93-79.54,2.86-3.13,6.87-5.6,11-2.05,4.78,4.09,1,7.51-1.73,10.53-18.65,21-31.19,44.95-35.42,73-.67,4.4-2.86,8.11-8.13,7.73C356.77,375.77,355.41,372.4,355.56,366.37Z" transform="translate(-281.81 -256.08)"/><path d="M604.14,262.06c-.67,4.39-3.93,5.93-7.65,6.21-30.26,2.31-58.85,9.84-84.78,26.23-3.63,2.29-8.28,3.43-10.74-1.66-1.91-3.92,1-7,4.08-8.88,27.49-16.93,57.15-27,89.63-27.87C598.84,256,603.24,256.52,604.14,262.06Z" transform="translate(-281.81 -256.08)"/></svg>