<svg id="Layer_1" data-name="Layer 1" xmlns="http://www.w3.org/2000/svg" viewBox="0 0 200.96 451.29"><path d="M559.73,302.56c8.93,0,17.87-.2,26.78.07,5.23.16,11,1.13,11.07,7.88s-5.65,7.94-10.89,8c-16.58.27-33.16,0-49.74.29-11.65.18-13.17,2.95-7,12.57,9.25,14.33,23.19,23.57,37,32.62a326.85,326.85,0,0,0,43.64,23.75c5.48,2.49,11.92,5.6,8.11,13.12-3.54,7-9.66,3.26-14.51,1-30.68-14-60.3-29.81-82.83-55.78-5.23-6-6.74-3.34-9.7,1.38-17.61,28.08-43.53,46-73.2,59.25-4.71,2.11-10.11,4.85-13.4-1.31s1.73-9.17,6.33-11.82c14.71-8.46,30.08-15.77,43-27.15,12-10.52,22.3-22.08,29-36.74,3.38-7.46,2.07-11.18-6.82-11q-18.5.3-37-.11c-6-.13-13.35-.29-13.07-8.47.25-7.09,7.13-7.47,12.72-7.57,11.9-.2,23.82-.47,35.71,0,8.94.32,12.16-3.49,11.84-12.12-.41-10.62-.23-21.26,0-31.89.13-6.28-.55-14.38,8.54-14.2,8.15.16,7.58,7.78,7.67,13.67.18,11.48.26,23,.05,34.44-.13,7,2.8,10.15,9.84,10,8.92-.2,17.86-.05,26.78-.05Z" transform="translate(-418.98 -244.32)"/><path d="M583.64,628.42c0,17.86.18,35.71-.08,53.56-.08,5.87-.19,13.4-8.12,13.62-8.56.24-7.71-7.47-7.77-13.28-.16-16.15-.36-32.31,0-48.45.2-8.35-3.17-11.79-11.31-11a22.21,22.21,0,0,1-5.09,0c-13.33-1.91-21.21,1.82-23.29,17-2.13,15.66-10.06,29.67-18.67,42.95-3,4.58-6,10.81-12.7,7-6.58-3.7-3.8-9.52-.72-14.38,18.72-29.47,23.77-62.22,23.8-96.34,0-19.09,2.15-20.85,21.47-20.9,8.93,0,17.86.24,26.78,0,10.83-.33,15.61,5.09,15.64,15.44C583.65,591.87,583.62,610.15,583.64,628.42Zm-32.47-31.69c-4.09,3.4-13.67-3.5-13.79,5.49-.08,6.84,8.74,4.39,13.63,4.24,5.31-.16,14.66,3.15,14.89-4.22C566.17,593.72,556.55,599.48,551.17,596.73Zm16.46-19.24c-9.53-5.29-18.26-2.46-26.62-2.76a2.86,2.86,0,0,0-3.14,3.06,3.48,3.48,0,0,0,2.25,2.51C548.87,580.83,557.88,583.38,567.63,577.49Z" transform="translate(-418.98 -244.32)"/><path d="M502.18,596.52c-.37,8.06-.56,16.14-1.2,24.18-.35,4.35-1.67,8.73-7.05,9.2s-7.58-3.13-8-7.87c-.47-5.36-3.57-7.49-8.49-7.32s-10.63-1.88-12.73,5.19c-1.27,4.29-4.26,6.42-8.69,5.44-5.3-1.17-5.88-5.54-5.89-10,0-14.46,0-28.92.07-43.37,0-2.08,0-5,1.18-6.1,12.1-10.74,26.66-4.37,40.12-5,8.33-.37,9.45,7.42,9.82,13.91.42,7.2.1,14.44.1,21.67Z" transform="translate(-418.98 -244.32)"/><path d="M519.87,452.69c23.34,0,46.67-.08,70,0,5.43,0,12.35-.61,12.49,7.22.15,8.09-6.91,7.23-12.26,7.24q-70,.13-140,0c-5.52,0-12.23.26-11.89-7.73.31-7,6.58-6.7,11.66-6.72C473.2,452.65,496.54,452.7,519.87,452.69Z" transform="translate(-418.98 -244.32)"/><path d="M570.88,519.71c7.21-.33,14.42-.78,21.63-1,4.62-.13,8.66,1.21,9.25,6.58.49,4.59-2.54,7.29-6.57,8.05-20.58,3.86-41.25,5-61.79-.06a15.82,15.82,0,0,1-11.59-11c-4.75-15.87-3.79-31.85.35-47.69,1.08-4.11,4.11-6.66,8.55-5.93,5.26.86,6.38,4.8,6.09,9.54-.54,8.9-.9,17.8-1.47,26.69-.63,9.94,3.3,15.28,13.9,14.83C556.43,519.45,563.66,519.7,570.88,519.71Z" transform="translate(-418.98 -244.32)"/><path d="M509.7,475.57c-.54,4.93-2.91,8-5.19,11-18.52,24.73-42.63,42.25-70.64,54.7-5.23,2.33-11,4.49-14.1-2.6-2.72-6.3,2.09-9.39,7-11.39,27.49-11.17,49.5-29.19,67-53,2.55-3.47,5.31-6.91,10.42-5.54C508.07,469.82,509.19,473,509.7,475.57Z" transform="translate(-418.98 -244.32)"/><path d="M501.91,430.37c0-10.55-.17-21.11.07-31.66.13-5.95.3-13.17,8.56-12.88,7.25.26,7.51,6.83,7.53,12.51,0,11.43.21,22.87-.05,34.3-.2,9.22-2,12.1-14.22,12.18-15,.09-19.75-7.51-25.71-16.9-2.83-4.46-5.09-9.79.28-13.56,5.58-3.92,9.33.44,12.45,4.77,2.91,4,5.76,8.13,8.63,12.19Z" transform="translate(-418.98 -244.32)"/><path d="M552.85,416.12c-.07,6.15-19.16,27.3-24.16,26.82-7.09-.68-10-5.6-6.51-11.54a62.34,62.34,0,0,1,18.89-20C546.69,407.56,551.44,409.7,552.85,416.12Z" transform="translate(-418.98 -244.32)"/></svg>