<svg id="Layer_1" data-name="Layer 1" xmlns="http://www.w3.org/2000/svg" viewBox="0 0 358.76 467.12"><path d="M473.67,513.07,348.15,604.24c-2.29,1.66-4.5,3.44-6.85,5C326,619.54,316,615.2,315.63,597c-.54-24.89.38-49.81.67-74.72.52-45.3.92-90.6,1.65-135.89.14-9.23-3-20.42,8.28-25.58,10.25-4.68,16.78,4,23.89,9.09Q408,411.6,465.68,453.52c2.6,1.87,5,4.83,10.57,2.9-3.21-31.05-13.89-59.69-30.14-86.37a224.4,224.4,0,0,0-92.42-85.21c-3-1.53-6.08-3-9.14-4.48-7.18-3.45-13.6-8.31-9.62-16.95,4.31-9.39,12.71-7.65,20.5-4.17a248.27,248.27,0,0,1,60.08,38c45.23,38.55,73.37,87.17,83.64,145.67,2.55,14.53,5.76,16.62,18,7.07,40.15-31.35,81.05-61.73,121.7-92.44,6.72-5.07,13.56-11.95,22.74-6.58,8,4.69,6.68,13.48,6.89,21.43,1.81,69,3.8,138,5.6,207a213.63,213.63,0,0,1-.6,27.14c-1.5,14.73-9.57,18.68-21.89,10.21-25.19-17.33-49.92-35.31-74.78-53.1-20.24-14.48-40.7-28.67-60.47-43.77-11.08-8.46-14.26-5.57-16.46,7.1-14.61,84.13-60.43,146.12-134.68,187.53-4.44,2.47-9,4.69-13.68,6.78-7.42,3.36-14.89,3.92-19.22-4.24-4.44-8.39.76-13.89,7.77-17.87,3.94-2.23,8.14-4,12.11-6.15Q453.1,638,475.44,525.23C476.08,522,477.3,518.61,473.67,513.07Zm170.34,68c0-62.33.34-124.15-.32-186-.11-11.06-7.09-4.76-11.22-1.65-37,27.86-73.86,56-111.08,83.59-9,6.66-9,10.51.32,17,29.69,20.63,58.81,42.07,88.21,63.11C621.67,565.56,633.58,573.76,644,581.07ZM342.74,487.13h-2.27c0,25.37.07,50.75,0,76.13,0,10.24,2.72,14,12.5,6.92q52-37.87,104.38-75.29c8.42-6,10.47-10.35.69-17.26-34.57-24.44-68.74-49.44-103.17-74.07-2.91-2.08-5.83-6.8-10.06-3.76-3.51,2.52-2,7.31-2,11.12C342.69,436.32,342.74,461.72,342.74,487.13Z" transform="translate(-315.46 -256.45)"/></svg>