<svg id="Layer_1" data-name="Layer 1" xmlns="http://www.w3.org/2000/svg" viewBox="0 0 437.49 359.95"><path d="M637.87,468a3.53,3.53,0,0,0,4.78-.49A14.89,14.89,0,0,1,637.87,468Z" transform="translate(-285.48 -294.3)"/><path d="M679,565.6c-3.21-5.11-5.29-10-2.44-16.36,19.93-44.3,20.37-89.53,6.2-135.49-1.14-3.68-6.9-9.54,1.53-11.75a8.08,8.08,0,0,1,5,.08,8.38,8.38,0,0,1,10.87,1.23l.37.37.6-.26c.93-1.13,2.64-1.74,5.4-1.62,9.11.39,17.69-.52,16.33-12.61-1.31-11.68-11.42-9.28-18.46-8.64s-12.22-1-16.5-4.42a11,11,0,0,1-2.36.07c-.85-.07-1.7-.17-2.55-.28a18.57,18.57,0,0,1-3.43-.11c.22,1.06-.11,2.14-1.52,3.2-2.21,1.66-6.53,1.08-9.77.61-4.31-.62-5.88-4.79-8.11-7.9-1.59-2.21-3.21-4.38-4.87-6.49a50.12,50.12,0,0,1-6.88-6.37,103.25,103.25,0,0,1-8.2-10.68A172.72,172.72,0,0,0,564,303.9c-67.88-19.08-131.31-11.46-185.09,38.78a22.24,22.24,0,0,1-6.17,4.15,16.35,16.35,0,0,1-8.8,7.94,13,13,0,0,1-4,8.15c-4.87,7.82-9.61,16.41-22.21,15.14-12.08-1.23-24.36-.49-36.55-.52-7.67,0-15.77.56-15.66,10.74.09,9.6,7.89,11.34,15.6,11.65s15.61.4,23.39,0c9.61-.52,11.89,2.54,8.49,11.93-11.92,33-12.71,66.89-5.82,100.89a32.9,32.9,0,0,1,.69,8.41,15,15,0,0,1,3,2.3,16.11,16.11,0,0,1,4.11,14.44,20.37,20.37,0,0,1,1.16,2c5.2,10,7.63,19,.72,29.81-9.95,15.54-18.36,32.09-27.44,48.19-4,7.16-5.28,14.43,3.08,18.88,7.36,3.91,12.69.13,16.62-6.9,5.92-10.6,12.48-20.84,18.77-31.24,10.93-18.09,10.65-17.81,24.84-3.31,43.23,44.2,96.09,62.9,157.43,58.31,50.52-3.78,90.63-27.73,123.34-65.11,6.5-7.43,9.94-7.22,14.67,1.13,6.72,11.87,14,23.47,21.37,34.92,4.38,6.76,10.22,13.81,18.93,7.75,7.78-5.4,3.85-13.22,0-19.59C698.75,596.87,688.82,581.26,679,565.6ZM636.7,378c-12.68,4.09-23.74,1.27-34.46,2.31a13.22,13.22,0,0,1-10.82-3.33,14.66,14.66,0,0,1-10,.74,8.47,8.47,0,0,1-2.06,1.22c-5.26,2.31-13.11,3-17.31-3.38C550.14,357.44,538.78,339,524.86,317,571.56,325.13,607,344.05,636.7,378Zm-144.42-25.7c13.7-22.88,13.7-22.88,28.52.35a8.4,8.4,0,0,1,.73,1.26c3.43,8.3,15.34,16.11,11.2,23.39s-17,.55-25.61,2.71c-9.16-1.64-21.65,4.1-26.08-3.89-3.67-6.65,6.49-15,10.47-22.59C491.73,353.07,492,352.68,492.28,352.26ZM394.4,359.1a17.38,17.38,0,0,1,3.3-2.7,16.27,16.27,0,0,1,11.89-8.87,16.67,16.67,0,0,1,7.65-5.5c0-2.93,4.7-3.86,6.69-5a138.68,138.68,0,0,1,59.67-19.1c-10.3,21-20.78,39.83-33.34,57.52-1.85,2.61-4.94,3-7.9,3-19.84.05-39.68,0-61.53,0C384.39,369.21,389.45,364.15,394.4,359.1ZM359.11,531.91c-6.87-11.34-10.3-20.88-7.24-29.85-4.91-3.61-8.18-10.42-6.24-16.11a17.78,17.78,0,0,1,.14-6.17c-1.1-24.19,2.79-47.56,12.88-69.87,3-6.7,7.67-9.33,14.89-9.12,17,.5,34.1.64,51.15.8,6.28.06,9.72,1.57,5.68,8.47-8.75,14.94-17.5,29.89-26.31,45-2.67,7.37-5.81,14.68-10.41,21a67.17,67.17,0,0,1-6,7.14Zm280.4,34.91c-53,77.52-171.74,88.22-242.62,18.72-24.55-24.07-26-24.52-9.59-54.33,22.49-41,47.11-80.76,70.6-121.19,3.88-6.68,8.79-9.59,16.55-9.26,11.18.47,22.4.12,33.61.12,32.67-8.07,50.32,7.21,65.16,35.52,19.84,37.84,44.2,73.33,67,109.62C644.93,553.59,644.87,559,639.51,566.82Zm23.88-47.17c-1,3.19-1.57,7.46-5.16,8.15-4.19.8-5.12-3.9-6.78-6.6-21.92-35.69-43.81-71.41-65.37-107.32-2.08-3.47-8.69-8.13-2.42-12.16,4.05-2.61,12.16-3,14.93,1.67.33.55.68,1.08,1,1.62a15.41,15.41,0,0,1,8.28-2.53,14.76,14.76,0,0,1,1.5.08c1.45-1.21,4.2-1.53,6.63-1.53,9.75,0,19.49.49,29.24.59,7.35.07,9.84,5.21,12,10.88,7.62,20.16,14.68,40.42,12.55,61.57C670.71,490.33,668,505.14,663.39,519.65Z" transform="translate(-285.48 -294.3)"/></svg>