<svg id="Layer_1" data-name="Layer 1" xmlns="http://www.w3.org/2000/svg" viewBox="0 0 210.38 472.92"><path d="M543.41,235.43c8.26,12.19,15.2,21.81,21.47,31.84,6.54,10.47,4.94,14.21-7,16.71-13.15,2.76-26.43,4.82-39.6,7.47a90.39,90.39,0,0,0-29,11c-6.14,3.69-11.45,8.27-11.18,16.21s6,12,12.51,15.11c11.89,5.64,24.7,8.38,37.37,11.53,11.18,2.77,22.5,5.16,33.05,10,8.54,3.9,15,10,15.59,19.8.63,10.48-6,17.24-14.56,21.73-11.63,6.12-24.46,9-37.14,12.19-17.87,4.5-36,8.28-52.46,17.06-5.17,2.77-12.73,5-12.25,12.27s8,8.55,13.73,10.49c22.67,7.76,46.87,8.15,69.91,14.2,4.82,1.27,9.76,2.25,14.36,4.08,8.17,3.24,15.71,8.13,15.81,17.85.11,10.38-5.36,18.51-15,22.69-13.52,5.84-28.06,7.66-42.52,9.79-11.38,1.68-22.8,3.36-34,5.93-48,11-64.81,45.91-58.72,91,7.07,52.4,44.85,74.76,101.05,62.55,19.94-4.33,38.11-12.14,52-27.78,11.92-13.44,15.7-28.5,9.23-45.88-14.69-39.41-59.73-57.29-95.33-37.59-14.5,8-23.77,24.18-21.67,39,2.49,17.54,10.58,32,28.22,37.43,17.91,5.52,35.2,2.91,48.63-11.72,6.34-6.92,8.54-15.12,4.5-24.52-4.66-10.84-12.38-17.51-24-19-6.29-.83-12.88-.26-15.68,6.65-2,5-2.74,11.09,1.68,15.18,5.82,5.39,10.15-1.67,15.81-4.23.55,8.1-4.22,10.54-9.4,11.86-5.72,1.45-10.72-.26-13.6-5.93-3.52-6.95-4.15-14.08-.06-20.95,4.51-7.58,11.56-11.11,20.31-10.82,15.17.51,28.56,11.78,33.2,27.67,4.34,14.84-.34,27.66-13.57,37.2C526.7,656.76,499.9,657.39,481,645c-16-10.48-25.48-33.14-21.86-52.45,4.29-22.9,23.14-41,47.64-45.85,38.46-7.56,75.9,12.4,90.83,48.7,9.92,24.1,5.92,46-11.82,65.06-29.2,31.36-90.41,43.74-129.56,26.48-33.7-14.85-51-52.27-46-93.38,7.39-60.91,49.51-77.46,90.38-84.19,14-2.3,28.28-3.06,42-7.08a67.51,67.51,0,0,0,12.78-5.07c4.15-2.21,7.83-5.58,7.28-10.84-.52-4.9-4.91-6.64-8.87-8.07-16.8-6.06-34.55-7.07-52-9.29a152.22,152.22,0,0,1-36.85-9c-10.52-4.15-19.78-10.14-19.19-23,.57-12.23,8.86-19.44,19.71-23,16.76-5.54,33.79-10.26,50.73-15.24,12.54-3.67,25.17-7.06,36.63-13.63,3.35-1.93,7.25-3.84,7.45-8.12.22-5-4.15-7.14-7.93-8.92C540,362.32,527,359,513.9,355.9c-12.81-3-25.07-7.15-35.95-14.92-16.16-11.52-17.72-29.36-3-43s33.72-15.79,52.2-19.22c7.54-1.4,15.23-2,22.8-3.2,5.35-.87,7.44-3.51,4-8.74-6-8.95-11.68-18.06-17.66-27a13.27,13.27,0,0,0-10.84-5.75c-29.74-1.46-59.22-.27-87.56,10.06-8.33,3-16.08,7.35-22.23,14-2,2.14-3.85,5.86-7.39,3.13-3.92-3-2.47-7.05,0-10.24,8.13-10.44,19.43-16.35,31.72-19.89,36.35-10.48,73.39-11.24,110.71-6.67,17.19,2.1,34.34,4.25,50.21,11.89,2.08,1,4.39,1.65,6.21,3,4.45,3.26,12,6.27,7.88,13-3.88,6.25-8.76-.37-12.65-2.47C584.67,240.37,565.57,237.38,543.41,235.43Z" transform="translate(-405.8 -221.85)"/></svg>