<svg id="Layer_1" data-name="Layer 1" xmlns="http://www.w3.org/2000/svg" viewBox="0 0 210.38 472.92"><path d="M478.57,235.43c-8.26,12.19-15.2,21.81-21.47,31.84-6.55,10.47-4.94,14.21,7,16.71,13.14,2.76,26.43,4.82,39.6,7.47a90.39,90.39,0,0,1,29,11c6.13,3.69,11.44,8.27,11.18,16.21s-6,12-12.51,15.11c-11.9,5.64-24.7,8.38-37.38,11.53-11.18,2.77-22.49,5.16-33,10-8.54,3.9-15,10-15.6,19.8-.63,10.48,6.05,17.24,14.57,21.73,11.62,6.12,24.46,9,37.13,12.19,17.88,4.5,36,8.28,52.47,17.06,5.17,2.77,12.73,5,12.25,12.27s-8.05,8.55-13.73,10.49c-22.67,7.76-46.87,8.15-69.91,14.2-4.82,1.27-9.76,2.25-14.37,4.08-8.17,3.24-15.71,8.13-15.81,17.85-.1,10.38,5.37,18.51,15,22.69,13.52,5.84,28.07,7.66,42.52,9.79,11.38,1.68,22.81,3.36,34,5.93,47.94,11,64.81,45.91,58.72,91-7.07,52.4-44.85,74.76-101,62.55-19.94-4.33-38.11-12.14-52-27.78-11.92-13.44-15.71-28.5-9.23-45.88,14.69-39.41,59.73-57.29,95.32-37.59,14.51,8,23.78,24.18,21.67,39-2.49,17.54-10.57,32-28.22,37.43-17.9,5.52-35.2,2.91-48.62-11.72-6.34-6.92-8.55-15.12-4.5-24.52,4.66-10.84,12.37-17.51,24-19,6.29-.83,12.88-.26,15.68,6.65,2,5,2.74,11.09-1.68,15.18-5.83,5.39-10.15-1.67-15.81-4.23-.56,8.1,4.21,10.54,9.4,11.86,5.72,1.45,10.72-.26,13.59-5.93,3.53-6.95,4.16-14.08.07-20.95-4.52-7.58-11.57-11.11-20.31-10.82-15.17.51-28.56,11.78-33.21,27.67-4.33,14.84.34,27.66,13.58,37.2,18.38,13.25,45.17,13.88,64.11,1.5,16-10.48,25.48-33.14,21.86-52.45-4.3-22.9-23.14-41-47.64-45.85-38.47-7.56-75.9,12.4-90.84,48.7-9.91,24.1-5.91,46,11.82,65.06,29.21,31.36,90.42,43.74,129.57,26.48,33.69-14.85,51-52.27,46-93.38-7.39-60.91-49.51-77.46-90.38-84.19-14-2.3-28.28-3.06-42-7.08a67.68,67.68,0,0,1-12.77-5.07c-4.15-2.21-7.83-5.58-7.28-10.84.51-4.9,4.9-6.64,8.87-8.07,16.8-6.06,34.54-7.07,52-9.29a152.26,152.26,0,0,0,36.84-9c10.53-4.15,19.79-10.14,19.19-23-.56-12.23-8.85-19.44-19.7-23-16.76-5.54-33.79-10.26-50.74-15.24-12.53-3.67-25.17-7.06-36.62-13.63-3.35-1.93-7.26-3.84-7.45-8.12-.22-5,4.14-7.14,7.92-8.92,12.24-5.75,25.29-9.07,38.38-12.17,12.8-3,25.07-7.15,35.95-14.92,16.16-11.52,17.72-29.36,3-43s-33.73-15.79-52.2-19.22c-7.54-1.4-15.23-2-22.8-3.2-5.35-.87-7.44-3.51-4-8.74,6-8.95,11.68-18.06,17.66-27a13.26,13.26,0,0,1,10.84-5.75c29.73-1.46,59.21-.27,87.56,10.06,8.33,3,16.08,7.35,22.23,14,2,2.14,3.85,5.86,7.39,3.13,3.92-3,2.46-7.05,0-10.24-8.13-10.44-19.43-16.35-31.72-19.89-36.35-10.48-73.39-11.24-110.71-6.67-17.19,2.1-34.35,4.25-50.22,11.89-2.07,1-4.38,1.65-6.2,3-4.46,3.26-12.05,6.27-7.89,13,3.89,6.25,8.77-.37,12.66-2.47C437.3,240.37,456.4,237.38,478.57,235.43Z" transform="translate(-405.8 -221.85)"/></svg>