<svg id="Layer_1" data-name="Layer 1" xmlns="http://www.w3.org/2000/svg" viewBox="0 0 442.58 595.76"><path d="M491.27,221.87c-2.62-37.31,11.23-58.1,37.81-57.66s41,21.57,37.57,57.32c12.86-2.61,25.29-5.64,37.88-7.59,37.58-5.83,74.75-4.13,111,8a88.74,88.74,0,0,1,20.17,9.8c19.77,12.88,19.84,23.07.06,35.55-23.74,15-50,22.76-77.91,24.64-37.46,2.52-73.59-3.16-108.13-20.56-.57,8.52,4.22,13.47,7.11,19,32.72,62,65.85,123.7,98.33,185.79,5.68,10.86,8.63,12.88,18.23,2.79a36.52,36.52,0,0,1,53.6.29c12.54,13.81,11.28,35-2.91,48.66-13.47,13-31,13.18-49.94-3-11.58-9.92-15.74-6.68-23.16,4-32.9,47.22-66.48,94-100.29,140.56-6.53,9-9.1,14.08,2.23,22.21,18.73,13.46,19.29,41,3.22,57-15.78,15.68-43.26,15.16-58-1.12-15.59-17.18-13.64-45.62,5.78-58.09,10.31-6.62,9.13-11,3.51-19.58q-48.24-73.41-95.53-147.44c-6.7-10.53-10.35-10.19-18.08-.84-13.69,16.57-31.56,20-46.55,11-15.44-9.32-22.05-29.79-15.28-47.36,9.65-25,43.09-29.43,61.52-6.74,9.44,11.63,11.58,6.76,16.25-2.64q49.8-100.17,100.08-200.11c.82-1.63,1.34-3.42,2.66-6.89-33.91,14.92-67.27,24.72-102.94,22.8-26.19-1.41-51.58-6.94-75.35-18.34a78.94,78.94,0,0,1-18.73-12.26c-10.49-9.49-9.86-15.71,1.58-24,23.61-17.11,51.12-22.38,79.25-24.47,28.58-2.12,57-.18,84.74,8C484.26,221.31,487.75,221.38,491.27,221.87Zm32.29,54.31-2.18-.6q-54.17,108-108.5,215.86c-4,7.9-.84,13.15,3.25,19.09q47.69,69.26,95.27,138.58c3.2,4.66,6.59,9.18,12.16,16.92Zm16.47,2.2c-3.3,128.23-.69,255.47-3.76,383.15,38.89-50.2,76.18-100.91,113.6-151.51,5.35-7.23,1.63-13.11-1.61-19.38q-33.36-64.71-66.6-129.47C567.61,333.66,553.89,306,540,278.38Zm-45.68-35.94c-36.88-18.5-75.94-23.19-116.19-17.92-17.42,2.28-34.18,7.25-49.31,16.75-8.2,5.14-8.67,10.15-.62,15.9A96.38,96.38,0,0,0,352,269.73c32.34,11.49,65.37,13.06,98.81,6.28,19-3.86,37.16-10.08,53.26-22.28-24.95-1.38-49.73-1.3-74.51-1.47-4.29,0-11.22.66-11.36-4.43-.19-7,7.28-5.2,11.72-5.26C451.4,242.27,472.88,242.44,494.35,242.44Zm60.08,10.13c18.35,15.78,39.94,21.39,62,24.21,38.77,5,77,3.58,111-19.36,11.55-7.79,11.31-10.69-.86-17.23-34.5-18.53-71.66-20-109.36-15.81-19.55,2.19-38.68,7-56.31,16.88,23.5,1.23,46.84,1.15,70.18,1.31,3.76,0,9.21-.28,9.05,5.14-.12,4-5,4.17-8.43,4.47s-7,.37-10.48.38Q587.82,252.61,554.43,252.57ZM728.52,500.79c.16-14.59-10.7-25.51-25.44-25.57-12.21-.05-31.15,15.29-31.8,25.77-.6,9.66,20.28,25.81,33.39,25.81C717.16,526.81,728.36,514.59,728.52,500.79Zm-365.62-26c-13.63.23-22.36,9.6-22.54,24.18-.2,16.15,10.5,28.61,24.36,28.38,13.26-.22,30.56-15.48,30.1-26.54C394.28,488.06,377.73,474.56,362.9,474.8ZM557.2,721.34c.3-14.56-10.58-26.38-24.57-26.69-16.53-.37-28,9.54-28.17,24.43s11.61,27.17,26.13,27.44C544.54,746.78,556.92,735.07,557.2,721.34ZM528.44,176.18c-18.36-.3-32.05,19.53-24,37.2,3,6.62,7.38,13.74,14.72,13.41,9-.4,3.3-9.55,5.45-14.36a11.57,11.57,0,0,0,.27-1.47c.82-2.85,1.38-6.27,5.31-6,3,.24,3.67,3.07,4,5.56s.17,5,.52,7.48c.47,3.21-1.54,7.74,3,9.08,3.53,1,6.71-1.54,9.46-3.69,10-7.82,11.7-18.11,8.13-29.64C551.5,181.48,542.07,177,528.44,176.18Z" transform="translate(-308.02 -164.2)"/></svg>