<svg id="Layer_1" data-name="Layer 1" xmlns="http://www.w3.org/2000/svg" viewBox="0 0 496.9 499.2"><path d="M631,513.71c6.47,13.73,11.74,24.68,16.8,35.73,4.94,10.76,2.06,15.5-10,15.63-22.28.26-44.58.41-66.85-.06-9.15-.2-12,1.73-9.4,11.54,6.88,26.12,11.23,52.67,9.93,79.9a105.06,105.06,0,0,1-3.85,24.4c-6.72,23.21-23.06,36.4-45.82,37.14-23.83.77-42.76-11.7-50.36-34.53-8.79-26.36-5.63-53.28-1.79-80A253.48,253.48,0,0,1,475.12,576c2-7.88.48-11-8.41-10.76-23.71.5-47.44.21-71.17.14-15.63-.05-18-3.79-11.43-18.22,4.54-10,9.45-19.77,15-31.32C379,519,361,522,342.81,522.94a107.13,107.13,0,0,1-45.32-7.05c-19.59-7.69-28.89-22.65-29.55-43.37-.71-22.11,8.92-38.16,28.87-47.47,19.23-9,39.82-8.74,60.34-6.89a395.15,395.15,0,0,1,73,13.15c7.21,2.05,11.88.6,14.49-6.52a20.38,20.38,0,0,1,.94-1.94c8.68-17.75,20.34-34.73,25.19-53.47,4.81-18.59-6.47-37.57-7.7-56.88-1-15.44-2.29-30.84.55-46.17,6-32.48,25.42-49.1,55-47.39,26.83,1.55,45.09,22.15,48.41,53,3.1,28.71-1.78,56.54-7.26,84.39-.93,4.77-1.25,9,1,13.53,9,18.38,18,36.79,26.71,55.33,2.8,6,5.91,7.44,12.59,5.44,31-9.28,62.74-15.66,95.22-16.69,14.46-.45,28.82,2,42,8.08,18,8.38,26.72,23.62,27.46,43.06.71,18.91-6.41,34.42-22.79,44.83-11.21,7.12-23.68,10-36.89,10.34A304.92,304.92,0,0,1,631,513.71Zm63.43-7.82c5.82-.71,14.12-1.12,22.14-2.85,13.55-2.93,25-9.39,30.19-23.25,8.76-23.44-5.49-44.75-32.11-48.12-37.58-4.76-73.3,5-109.1,14.18-5.29,1.37-6.06,4.09-3.83,8.63,5.84,11.92,11.57,23.9,17.36,35.84,1.85,3.81,4.83,5.88,9.05,6.83A391.75,391.75,0,0,0,694.39,505.89ZM338.67,508c16.21.75,31.19-4,46.54-5.11,17.86-1.31,28.84-10,34.32-26.94,2.08-6.42,5.62-12.44,9-18.36,3.94-6.89,2.31-9.8-5.48-11.79-20.91-5.36-42-9.88-63.46-11.52-18.14-1.38-36.62-3.49-54.29,3.89C289.58,444.68,283,456,284.05,475.2c.8,15.06,8.57,24.34,24.4,28.95A89.46,89.46,0,0,0,338.67,508ZM555.42,646.19c.5-20-3.1-39.44-7.69-58.66-6.3-26.37-2.38-21.86-27.45-22.35-5-.1-10.13.5-15.09-.12-9.65-1.2-13.65,3.33-15.06,12.31-1.9,12.06-5,23.93-6.71,36-2.91,21-5.14,42.23,1.59,63,5.24,16.23,18.69,26,34.68,25.66,17.1-.33,28-9.35,33.2-27C555.69,665.56,555.13,655.85,555.42,646.19ZM545.16,337.52c5.27-18.12,8.43-35.72,7.21-53.63-.64-9.24-1.76-18.57-5.29-27.35-6-15-16.35-21.68-33.59-21.49-15.7.18-25.37,6.95-30.93,21.8-6.91,18.46-4.9,37.5-3,56.36.89,8.75.61,18.12,6.24,27.45,7.25-14,13.8-26.64,20.41-39.28,2.43-4.64,3.66-10.89,10.41-10.94,7.26,0,8.75,6.55,11.24,11.52C533.78,313.74,539.42,325.66,545.16,337.52ZM441.86,549.17c10.75,0,21.49-.08,32.24,0,5,0,8.77-1.77,9.29-6.86.7-7,8.55-13.76,1.63-21-22.39-23.34-22.48-23.26-53.83-13.84a48.14,48.14,0,0,1-5.15,1.54c-4.26.78-7,3.32-8.9,7-4.33,8.65-8.55,17.35-13,25.95-2.6,5-1.44,7.24,4.38,7.17C419.64,549.09,430.75,549.19,441.86,549.17ZM592.2,549c2.88,0,5.77.23,8.62,0,9.07-.86,21.84,4.35,26.19-2.53,3.59-5.7-6.87-15.33-9.53-23.78C611.05,502.21,591.77,505,577,500c-10.17-3.46-10.63,8.68-16.7,12.2-2.75,1.59-4.73,4.45-7.41,6.21-10.56,6.93-2.12,14.69-1.07,22.06.9,6.38,4.77,8.91,11.31,8.65C572.81,548.71,582.51,549,592.2,549ZM516.67,406.26c5.51-.67,12.4,3.11,15.63-6.25,7.09-20.5,12-40.37-3.06-59.67-5.15-6.59-5.57-20.44-12.87-20.26-6.55.15-7.93,13.79-12.56,20.9-10.74,16.48-14.71,33-6.34,52.42C501.65,403.07,504.94,409.44,516.67,406.26Zm1,142.75v-.1c4.63,0,9.26.06,13.89,0,2.15,0,4.14-.32,4.77-3.13,1.75-7.75-6.27-17.2-14.24-16.64-2.82.19-5.81.94-8.45.31-12.36-3-12.78,6.45-13.66,13.81-1.21,10.13,7.31,4.2,11.33,5.66C513.23,549.58,515.57,549,517.7,549Zm-38.1-159.4c-8.05,16.15-14.76,29.59-21.45,43-.92,1.86-2.6,4.21-.21,5.67,2.7,1.66,4.69-.58,6.24-2.66,4.3-5.78,8.53-11.94,14.73-15.55,7.9-4.62,8.9-10.17,5.25-17.8C482.66,399.18,481.78,395.76,479.6,389.61ZM429.68,490.68c8-2.05,13.1-3.17,18.07-4.72,3.29-1,7.49-1.71,7.66-6.29.25-6.78.06-13.57-.06-20.36a5,5,0,0,0-3.61-4.8c-2.61-.89-4.17.76-5.16,2.68C441.28,467.5,436.11,477.89,429.68,490.68Zm142.5-51.83c1.27-.7,2.54-1.4,3.82-2.09q-11.25-22.93-22.51-45.86c-2.68,8.09-11.65,16.34-5.44,22.83C556,422,564.8,429.76,572.18,438.85Zm11.69,15.3c-4,0-5.59,1.08-5.64,3-.19,7.5-.43,15,0,22.5.22,3.42,14.88,9.46,18.61,8.34,2.5-.74,2.48-2.4,1.63-4.15-4.37-9.06-8.85-18.07-13.29-27.09C584.58,455.47,583.9,454.19,583.87,454.15Zm-83.66-2c.31-5.15-2-8.86-3.49-12.75-3.78-10-5.93-10.36-13.33-2.84-5.57,5.65-6.66,9.77,2.68,12.1C490.49,449.72,494.46,452.5,500.21,452.11Zm37.16-.77c5-3.21,14.63-1.45,15.94-8.95.92-5.28-6.63-11.47-11.09-10.93-7.66.92-6.06,10.48-8.9,16.1C532.19,449.81,534,451.51,537.37,451.34Zm-36.74,32.71c-5.87,2.3-11.44,4.41-16.93,6.68-2.4,1-4.88,2.48-2.74,5.53,2.83,4.05,5.89,9.05,10.89,9.47s4.36-5.6,5.64-8.9C499,493,501.49,489.33,500.63,484.05Zm33.77,2.66c2.86,6.42.12,16.19,8.87,17.71,4,.69,10.77-5.88,9.7-9.68C550.77,486.86,541.17,489.37,534.4,486.71Zm2.3-17.82c7.36,2.57,11.69,4.12,16,5.57,3.12,1.05,6.55,2.14,8.35-1.8a10.74,10.74,0,0,0-.31-10.33c-2.11-3.31-5.27-1-7.75-.18C548.4,463.76,543.94,465.86,536.7,468.89Zm-19.91,23.27c-1.88,4.69-3.81,8.83-5.18,13.15-.88,2.78-3.41,6.4.82,8.42a10.32,10.32,0,0,0,9.35-.29c3.71-2.07,2.58-5.42,1.31-8.48C521.38,500.82,520.91,496.07,516.79,492.16Zm-21.25-23.48c-7.08-2.63-11.71-4.44-16.41-6.07-2.48-.87-5.23-1.06-6.63,1.63a10.44,10.44,0,0,0,0,10.31c1.68,2.79,4.54,1,6.79.22C484,473.14,488.58,471.31,495.54,468.68Zm20.85-25.76c2.69-6.51,9.27-12.21,5.15-19.37-1.43-2.49-8.26-2.27-9.8.07C507,430.76,514.15,436.4,516.39,442.92Z" transform="translate(-267.9 -218.82)"/></svg>