<svg id="Layer_1" data-name="Layer 1" xmlns="http://www.w3.org/2000/svg" viewBox="0 0 375.94 502.83"><path d="M542.49,717.65c-41.67.28-41.67.28-41.6-41.75,0-4.47-.52-9,.22-13.38,2.67-15.64-4-20.54-19.41-22.36-76.16-9-135.72-62.08-152-133.76-16.57-72.87,15.92-151.8,79.25-193,23.25-15.13,47.94-27.19,75.49-31,26.38-3.66,16.18-23.07,16.69-36.82.67-17.77-14-9.74-22.6-10.56-6.89-.66-14,1-21,1.06-5.54,0-10.49-2.25-10.57-8.58-.06-5.17,4-8,8.85-8.41,17.77-1.6,35.55-3.34,53.36-4.15,10.25-.46,11.79,7.13,12.24,15.63.81,15.08-7.42,34.33,3.27,44.06,9.09,8.28,27.91,5,41.87,8.93,65.56,18.28,112.52,57.2,128.77,125.28,18,75.34-4.93,138.36-64,188.13a184.23,184.23,0,0,1-91.19,41.49c-15.29,2.42-21.08,9.1-19.07,24a63,63,0,0,1,0,15.28c-1.65,14.95,4.38,20.91,19.59,19.39,10.73-1.07,21.66-.26,32.5,0,6.44.17,11.38,3.1,11.31,10.2s-5.12,10.06-11.47,10.26C562.9,717.89,552.69,717.65,542.49,717.65ZM345.55,463c-2.07,78.57,63,151.19,140.75,157,4.81.36,10.18,2.4,13.68-3.44,7.77-12.94-1.22-32.35-16.53-35.2-11.94-2.22-23.69-4.85-34.52-10.69C406.07,547.52,382,512.09,382,463c0-52.65,26.37-90.42,71.43-115.81a137.24,137.24,0,0,1,37.45-14.05c16.54-3.73,10.38-17.27,9.54-26.61-1-11.24-10.6-5.82-16.7-4.68C406.21,316.38,347.62,384.86,345.55,463Zm335.9-7.46c.7-80.71-64.86-152.44-143.2-156.85-9-.5-17-.88-17,11.58.06,9.89-3.15,19.67,13.11,21.84,51.44,6.87,87.38,35.25,102.74,85s.75,93.28-36,129.07c-18.56,18.07-40.91,30.25-66.93,34.64-20.11,3.39-11.94,19.34-12.81,30.53-.76,9.7,7.18,8.21,13.68,7.37C613.21,608.7,680.77,533.43,681.45,455.56ZM622.06,453c.11-45-32.8-87.88-76.37-98.18-7.83-1.85-20-9.52-23.32,5.56-2.55,11.54-3.76,22.41,13.56,27.83,38.41,12,55.08,45.24,45.53,84.52-6.29,25.84-23.72,42.2-47.52,50.81-17,6.17-14,19.28-11.42,29.69,3.39,14,15,4.83,22.07,2.83C587.91,543.78,622,497.85,622.06,453Zm-219.77,6.32c-2,48,36,93.83,83.81,101.08,5.47.83,12.64,3.67,13.41-5.16,1.09-12.53,6-25.74-14.46-30.76-25.16-6.16-42-24.09-47-50.09-5.28-27.52,2.4-51.63,24-70.57,8.76-7.7,18.93-12.83,29.82-16.59,15.08-5.21,10.31-18.26,8.92-27.52-1.85-12.43-12.13-5.07-18.28-3.4C438.11,368.37,404.25,412.25,402.29,459.33ZM501.07,456h-.33c0-12.66.08-25.31,0-38,0-5.95.2-11.78-9.32-9.05-17.16,4.93-33.9,27.77-34.54,48.32-.61,19.67,12.95,40.17,30.23,46.45,9.82,3.57,14.31,1,14.06-9.81C500.85,481.28,501.07,468.63,501.07,456Zm20.24-.08c0,12.71-.18,25.42.07,38.12.12,5.88.31,11.85,9.66,9,15.5-4.69,31.9-28.37,32.55-48.08.63-19.06-14.37-41-30.93-46.36-9.38-3-11.35,1.55-11.37,9.21Q521.25,436.85,521.31,455.9Z" transform="translate(-325.4 -214.9)"/></svg>