<svg id="Layer_1" data-name="Layer 1" xmlns="http://www.w3.org/2000/svg" viewBox="0 0 436.5 512.32"><path d="M369.85,577c-3.81,4.88-2.11,8.74-2.31,12.34-1.16,20.44-18.76,35.93-38.56,33.76-20.64-2.25-34.19-21.09-30.58-42.49,3.16-18.73,22.68-31.74,42.1-26.81,8.86,2.25,13.08.25,17.85-7.47C404.18,472,450.5,398,496.62,323.89c1.85-3,5.88-6,3.26-9.85-2.33-3.4-6.9-2-10.51-2-25.21-.11-50.43,0-75.64-.13a65.85,65.85,0,0,1-12.44-1.32,5.41,5.41,0,0,1-4.28-5c-.35-3.22,1.12-5.82,4-6.51a61.46,61.46,0,0,1,13.75-1.82c26.62-.27,53.24-.6,79.85-.25,10.19.14,14.21-3.35,13.93-13.8-.52-19.6,0-39.22.06-58.83,0-3.27-.11-6.56.17-9.8.46-5.49-.09-12.62,7.55-12.84,8.23-.24,7.21,7.21,7.28,12.51.28,20.08.23,40.16.26,60.24,0,22,0,22,22,22.16,23.35.14,46.7.26,70,.5a74.93,74.93,0,0,1,12.53,1c3.33.6,6.21,2.53,6,6.57-.21,3.26-2.73,5-5.54,5.48A86.22,86.22,0,0,1,615,311.65c-23.35.23-46.7.17-70,.45-5,0-11.67-2.41-14.57,1.89-3.35,5,2.86,9.17,5.4,13.23,45.52,72.84,91.45,145.43,136.7,218.44,5.42,8.75,11.09,7.23,18.69,5.91,27-4.69,48.25,16.88,42,42.27a34.73,34.73,0,0,1-32.07,26.74c-16.95.79-31.57-8.43-35.6-25.48-3.1-13.06-8.11-12.76-18.11-7.58-36.05,18.67-72.32,36.9-108.64,55-6.77,3.38-8.32,5.34-1.95,11.55,16.25,15.85,16.3,36.1,1.28,50.58-13.9,13.38-36.81,12.44-50.2-2.06-14-15.19-12.29-34.59,4.76-50.49,3.21-3,7.85-5.57,1.27-9.1C452.57,620.86,411.07,598.89,369.85,577ZM509.13,329c-3.06,2.57-3.95,3-4.38,3.72-44.3,72.44-88.41,145-133,217.23-5.8,9.39-2.19,12.81,5.57,17,39.77,21.59,79.34,43.54,119,65.26,13.68,7.48,14.82,6.9,14.61-8.19-.42-29.38-1.61-58.76-1.73-88.13C508.94,467.82,509.13,399.71,509.13,329Zm16.56,4.27c-1,3.72-1.66,5-1.67,6.23-.94,95.66-1.71,191.33-2.84,287-.16,13.15,5.14,11.12,13.24,6.55,39.44-22.22,78.88-44.42,118.57-66.18,7.13-3.91,8.21-7.1,3.77-13.92-9.42-14.46-18.25-29.31-27.06-44.15C595.41,451.07,561.23,393.28,525.69,333.29ZM334.57,564.48c-12.11-.23-20.56,7.57-21,19.37-.44,12.52,8,21.11,20.65,21.08s20-7.36,20.08-19.89C354.4,572.92,346.51,564.72,334.57,564.48Zm365.68,38c12.29.12,20.69-7.79,20.75-19.57.07-11.53-8.9-21-19.89-21-12.27,0-21.82,9.22-21.64,20.85C679.65,594.69,687.79,602.4,700.25,602.53ZM515.84,658.17c-11.68-.16-21.05,8.36-21.3,19.37-.27,11.57,9.61,21.8,20.83,21.57,10.85-.21,20.51-9.76,20.67-20.41A20.58,20.58,0,0,0,515.84,658.17Z" transform="translate(-297.82 -201.81)"/></svg>