<svg id="Layer_1" data-name="Layer 1" xmlns="http://www.w3.org/2000/svg" viewBox="0 0 517.63 567.86"><path d="M259.75,778.09c.19-3,2.58-5.09,4.53-7.34q26.06-30,52.19-60Q376.17,642,435.84,573.3q33.78-38.88,67.58-77.72c4.23-4.86,4.26-4.82-.17-9.77Q437.17,411.88,371.1,337.94q-49.14-55-98.2-110.12c-.74-.84-1.52-1.65-2.18-2.54-2-2.7-2-5.43.48-7.74s5-1.75,7.35.22a25.6,25.6,0,0,1,2.68,2.73q59.52,66.64,119,133.29,54.88,61.46,109.81,122.88c.85.95,1.82,1.81,2.62,2.79,1.6,1.95,3,1.9,4.65,0,4.48-5.21,9.07-10.31,13.58-15.49q42.6-49,85.19-98,39.92-45.93,79.79-91.87,23.73-27.3,47.48-54.56c2.58-3,5.51-5,9-2s2,6.29-.52,9.22q-26,30-52.11,60.08-42.12,48.45-84.28,96.86Q571,434.82,526.48,486c-3.06,3.49-3.08,5.69.06,9.19q78.63,87.78,157,175.78,45.31,50.73,90.7,101.41a14.4,14.4,0,0,1,2,2.65c1.49,2.81,1.63,5.58-1.11,7.74S770,784,768,781.82q-6.72-7.17-13.24-14.51-71.34-79.84-142.65-159.72-45.3-50.74-90.55-101.53c-6.44-7.22-6.31-7.23-12.64.05Q451.53,572.1,394.14,638q-52.17,60-104.25,120.13c-6.07,7-12.09,14-18.19,21a19,19,0,0,1-4.23,3.84C264,785.13,259.69,782.49,259.75,778.09Z" transform="translate(-259.75 -216.07)"/><path d="M495.28,305.47a21.55,21.55,0,0,1,22-21.69,21.84,21.84,0,0,1,21.81,21.94c-.22,12.74-9.69,22.27-22.07,22.2S495.19,318.13,495.28,305.47Z" transform="translate(-259.75 -216.07)"/><path d="M538.92,608.39c-.06,12.52-9.36,21.72-21.89,21.64s-21.85-9.41-21.78-21.8c.06-12.68,9.68-22.24,22.16-22S539,595.91,538.92,608.39Z" transform="translate(-259.75 -216.07)"/><path d="M539.05,725.07a21.93,21.93,0,0,1-22.28,21.51c-12.53-.23-21.75-10-21.52-22.69.21-12,9.78-21.21,22-21.15C529.74,702.81,539.18,712.45,539.05,725.07Z" transform="translate(-259.75 -216.07)"/></svg>