<svg id="Layer_1" data-name="Layer 1" xmlns="http://www.w3.org/2000/svg" viewBox="0 0 195.45 619.54"><path d="M451.15,203.59a46.3,46.3,0,0,1,30.78-15.08c11.55-1.1,16.72-6.14,16.4-18-.2-7.55,1.18-15.48,11.85-15.56,13.6-.1,16.06,3.38,11.29,16.16-5.71,15.29-5.71,15.34,11.07,15.5,7.49.08,15-.23,22.46-.1,3.92.07,9.55-2.35,10.09,4.54.42,5.5-3.33,9-8.2,10.19-9.29,2.31-18.81.76-28.24.64-5-.06-11.5-5-14.24,3-2.67,7.79,2.3,12.64,8.43,16.29a193.07,193.07,0,0,0,68.45,24.77c4,.65,10,.16,10.18,5.76.19,5-5.13,6.25-9.3,7.57-10.1,3.2-19.51.09-28.65-3.56C548.31,249.64,536,239,523.16,229.19c-1.78-1.35-3.78-2.41-6.68-4.23-2.36,15.24.69,29.13,1.37,43,.33,6.77,6.21,5.71,10.85,6,4.48.33,10.89-1,10.63,6-.23,6-6.38,5.22-10.32,4.83-9.75-1-14.28,3.85-17.05,12.47-1.31,4.09-1.9,11.14-7.66,10.2-4.53-.74-3.47-7.15-3.72-11.4-.21-3.47.51-7.46-4.61-8.13-2.72-.35-7,2.72-7.56-2.36-.33-2.94,3.3-4.09,5.78-5.18,4.48-2,6.57-5.2,6.51-10.15-.13-10.58,0-21.16-1.5-32.76-11.75,11.35-23.77,21.63-37.1,30.28-9,5.86-18.25,11-29.58,10.14-5.08-.38-10.24-1.94-10.83-7.26-.74-6.72,5.78-4.79,9.51-5.68,25.06-6,44.74-20.91,62.64-38.38,6.68-6.52,5.51-16.07,2.4-23.45-3-7.23-11.22-3.29-17.11-2.94C470.41,200.75,462.28,206.41,451.15,203.59Z" transform="translate(-411.63 -154.93)"/><path d="M482.16,430.85c36.39-4.18,72.87-2.75,109.63-1.64-11.76,10.77-26,15.26-41.17,16.45-25.37,2-25.39,1.71-25.21,27.06.12,16.09.05,15.86,16.07,11.33,9.07-2.56,18.44-4.47,27.81-1.27,3.22,1.09,7.72,2.08,7.52,6.3-.18,3.69-4.5,3.89-7.44,4.67-11.4,3-22.77,6.26-34.3,8.72-8.27,1.76-12,6-12.26,14.54-.36,10.59-1.59,21.17-2.79,31.71-.4,3.53.77,9.17-4.9,9-4.8-.13-7.3-4.53-7.57-9.19a206.85,206.85,0,0,1,1.1-33c2-18.85,2.26-37.6-2.74-56.24-2.45-9.12-6.86-12.3-16.18-10-14.89,3.63-30,6.56-44.94,9.79-3.08.66-6.14,1.64-9.25,1.87-4.75.36-10.41.4-12.21-4.76-2.13-6.1,3.88-7.76,7.9-9.78,16-8.07,33.53-11,50.67-15.33Z" transform="translate(-411.63 -154.93)"/><path d="M435.71,336.2c8.17-10.29,19-13.22,29.19-16.76a128.69,128.69,0,0,1,49.9-7.28c10,.58,16.86-1.78,18.92-12.51a4.17,4.17,0,0,1,3.89-3.73c1.92.55,2.32,2.22,2.16,3.73-1.16,10.43,3.82,11.55,12,8a4.18,4.18,0,0,1,1.12-.36c5-.49,11.44-7.61,14.52-1.5,3.17,6.29-4.42,10.9-9.34,14.59-3.41,2.55-7.51,5.52-11.45,5.76-19,1.13-28.11,15-38.35,27.93-19.06,24-36.11,49.69-59.49,70a81.42,81.42,0,0,1-9.18,7.35c-3.14,2-6.76,6-10.46,3-4-3.24-.14-7.25,1.39-10.57,6.22-13.55,16.88-23.44,27.49-33.51,17.1-16.25,33.77-33,50.44-49.67,2.29-2.29,6.22-4.87,4-8.86-1.75-3.23-5.72-1.86-8.72-1.84-17,.1-33.58,3.16-50.24,6C448.21,337,442.84,338.7,435.71,336.2Z" transform="translate(-411.63 -154.93)"/><path d="M519.79,675.27c-17.54,5.64-34.2,12.55-52.11,15.5-6.65,1.1-13.37,2.15-19.84-.34-7.33-2.82-10.35-8.7-8.29-16.12s7.8-4.25,12.7-3.36c24.31,4.42,46.81-1.81,68.8-11.54,5.56-2.46,13.11-8.78,17-4.62,5.25,5.59-2.68,11.94-5.76,17.39-12.78,22.63-25,45.64-39.92,67-8.42,12-17.78,23.27-30.6,30.79-13.87,8.13-27,5.13-35.18-7.31-3.72-5.63-4.83-11,4.07-11.31C480.37,749.36,495.56,707.28,519.79,675.27Z" transform="translate(-411.63 -154.93)"/><path d="M511.69,583.69c-25.24,42.55-65.21,66-100.06,59.57.16-5.74,5.33-5.09,8.48-6,36.47-10.58,64.56-30.55,77.26-68,1.2-3.53,4.07-6.79,6.43-3.56,4.67,6.37,14.31,8.08,15.81,17,2,11.68,9,20,17.8,27,18.25,14.36,38.05,25.3,61.92,26.72,3.1.19,6.87-.05,7.64,3.92.68,3.46-1.88,5.91-4.57,7.68a20,20,0,0,1-14.66,3.39c-27.79-5-51.44-17-68.34-40.42C513.91,603.3,511.76,594.52,511.69,583.69Z" transform="translate(-411.63 -154.93)"/><path d="M602.25,760.36c-11.91,13.06-35.26,16.37-51.5,7.56-20.9-11.34-29.59-30.5-33.09-52.78-.65-4.12,1.05-7.8,3.82-10.76,1.23-1.32,3.22-2.81,4.8-2.74,2,.09,3,2.51,3,4.5-.41,18.13,5.09,33,21.63,42.76,15.19,9,31.18,12.42,48.57,9.83C600,758.64,600.7,759.43,602.25,760.36Z" transform="translate(-411.63 -154.93)"/><path d="M481.9,431.07c-4.81-1.73-5-5.5-4.26-9.68,6.59-38.33,3.06-35.55,40.26-43.6,7.4-1.59,14.77-1.86,22.25-2.11,8.69-.3,12.71,4.32,12.19,12.17-.7,10.6-1.56,21.16-1.08,31.8.1,2.22.29,5.14-2.78,5.69-3.29.59-5-1.9-6.09-4.48-3.12-7.15-1.8-14.77-1.81-22.17,0-8.09-3.51-10.66-11-8.91-1.15.27-2.3.53-3.47.71-35.26,5.43-35.26,5.43-43.93,40.36Z" transform="translate(-411.63 -154.93)"/><path d="M487.36,505.3a120.37,120.37,0,0,1-4.13,27.06c-.63,2.22-1.41,4.91-4.17,5.07-3.66.21-4.31-3-4.6-5.64-.91-8.53-1.87-17.09-2.16-25.66A57.45,57.45,0,0,0,468,486.82c-1.11-2.83-2.88-6.26.09-8.71,3.35-2.77,6.62-.33,9.6,1.53C487.13,485.54,487,495.18,487.36,505.3Z" transform="translate(-411.63 -154.93)"/><path d="M484.84,643.31c-2.3-.08-6.16-.11-7.28-4.39s1.94-6.36,5.09-8.23c9-5.36,43.62-.87,50.65,6.62,1,1.1,2.37,2.31,1.14,4-1.87,2.57-4.81,2.64-7.46,2.26A164.24,164.24,0,0,0,484.84,643.31Z" transform="translate(-411.63 -154.93)"/><path d="M594,716.15a24.45,24.45,0,0,1-3.42,12.24c-2,3.6-4.64,6.84-9.23,5.14-5.11-1.9-2.23-5.62-1.29-8.81,1.06-3.59,0-6.89-1.53-10.14-2.47-5.38-4.07-11.5,3.56-13.1,6.66-1.38,10.73,3.36,11.86,10A29,29,0,0,1,594,716.15Z" transform="translate(-411.63 -154.93)"/><path d="M517.46,404.9c4.81,1.1,11.5-.27,12,5.64.62,6.67-6.47,5.3-10.62,6.25-4.57,1.06-9.36,1.18-14,1.82-2.89.4-5.81.57-6.93-2.72a5.79,5.79,0,0,1,3.78-7.66C506.89,406.57,512.41,405.91,517.46,404.9Z" transform="translate(-411.63 -154.93)"/><path d="M541.13,716.44c.7-5.09,1.13-10.85,7.85-11.11,6.06-.23,7.69,4.25,7.34,9.62a15.22,15.22,0,0,1,0,2.34c-.92,4.14,8.06,11.28-3,12.19C544.9,730.17,542.42,723.49,541.13,716.44Z" transform="translate(-411.63 -154.93)"/></svg>