<svg id="Layer_1" data-name="Layer 1" xmlns="http://www.w3.org/2000/svg" viewBox="0 0 177.95 631.15"><path d="M570.4,706.33c-8.6,26.54-21.45,35.49-40.59,29.72-14.9-4.5-24.09-19.43-22.54-36.65,1.36-15.12,12-24.81,28.73-26.16,30.56-2.48,56.17,16.07,58.29,42.21,2.39,29.3-17.41,53-45.89,55-36.55,2.54-69.17-26.85-70.22-63.8-.8-28.68,8.4-55.16,19.25-81.16a16,16,0,0,1,1.72-3.61c19.38-25.2,15.57-47.78-3.46-72.55-18.61-24.23-32.44-52.09-49.33-77.71-7.89-12-8.11-22-.86-34.35,33.7-57.6,67.21-115.33,98.56-174.27,10.17-19.11,17.43-39,16.54-61-1.09-26.71-18.1-42.85-44.66-42.42-22.79.37-33.24,15.11-26.49,37.67,4.92-1.25,4.25-6.22,6.06-9.36,7.83-13.51,20.91-19.56,36.22-16.25,12.62,2.72,21.87,14.22,22.55,28,.76,15.21-7.86,27.32-22.89,32.16-18.09,5.82-42-1.33-54.53-16.32-12-14.27-14-35.21-5.06-51.26,9.45-16.9,30.25-26.81,51.24-24.41,40.55,4.63,63.19,36.82,57,79.55-4.35,29.92-18.81,55.46-33.54,80.8-5.93,10.2-6.14,17.54.31,27.72,22.61,35.7,43.88,72.26,66.11,108.2,7.17,11.59,7.05,21.44-.27,33.29-29.69,48.06-59.29,96.22-87.41,145.21-15.32,26.69-26.55,55.56-27,87.11-.45,35.17,20.72,46.65,48.12,48.58C568.07,751.8,580.42,729.51,570.4,706.33ZM529.33,443.57c17.8,0,35.6-.06,53.4,0,6.56,0,9.48-1.27,5.22-8.35q-27.9-46.29-55.31-92.89c-3.33-5.62-5.87-5.93-9.21-.05q-26.38,46.4-53,92.68c-3.79,6.59-1.36,8.66,5.48,8.6C493.73,443.45,511.53,443.55,529.33,443.57Zm.48,20.11v.16c-17.76,0-35.52.14-53.28-.07-8.11-.09-9.33,2.33-5,9.22,17.42,27.85,34.57,55.86,51.73,83.87,3.66,6,7,7.83,11.44.62q26.4-43.17,53-86.19c3.76-6.07,1.59-7.69-4.63-7.65C565.33,463.76,547.57,463.68,529.81,463.68ZM499.54,208.92c9.43,4.51,16.8,5.94,24.37,4.41,5.52-1.11,9.93-4.09,10-10.68.05-4.86-1.65-8.87-6.47-10.56-5.7-2-10.76-.62-13.74,4.83C510.87,202.09,508.08,207,499.54,208.92Zm56.58,485.57c-12.68-.49-23.34-5.63-28,7.29-2.38,6.54.83,13,8,14.3C554.07,719.44,545.52,701,556.12,694.49Z" transform="translate(-440.24 -139.45)"/></svg>