<svg id="Layer_1" data-name="Layer 1" xmlns="http://www.w3.org/2000/svg" viewBox="0 0 395.72 428.21"><path d="M354.34,390.33c11.82,1.73,18.51,10.34,16.73,20.91-1.75,10.34-13.66,18.14-25,16.33-18.87-3-32-21.13-29.41-40.65,6-45.59,47.4-72.51,94.33-60.68,7.09,1.79,11.89.36,17.79-3,57.53-32.66,118.49-48,183.66-29.21,50.06,14.42,85.4,45.88,97.17,98.87,3.28,14.79,3.44,30-.62,44.87-7.75,28.4-27.24,36.36-52.42,21.29-3.83-2.29-8.56-4.88-10.31-8.56-9.75-20.45-24.76-37.19-37.5-55.53-3.1-4.47-5.59-7.23-11.19-7.64-9.47-.7-18.62-3-26.59-8.62-1.21-.86-3-2.24-4-1.87-18.83,7.29-36.42-6.4-55.16-3-13.37,2.41-21.36-4.08-22.65-16.87,5.17.47,5.33,5.84,8.36,8.11,5,3.79,10.87,4.92,15.85,1.79,5.29-3.33-.22-7.37-1.47-10.76-3.85-10.41-5.21-20.47,1.53-30.25,5.22-7.58,12.51-9.47,20.91-7.06,8.11,2.33,10.91,9,11.18,16.6.33,9.52-3.53,17.77-10.11,24.44-6.15,6.24-3.27,9,3.44,10.3,4,.75,8.26.55,12.4.58,7.3,0,9.44-3,6.29-10-5.19-11.44-4.31-22.93,1.62-33.76,4.07-7.42,10.43-12.44,19.5-10.18s12.29,9.1,12.51,17.95c.31,12-4,22.23-12,30.79-5,5.27-3.29,8.22,2.32,11.13,13.18,6.82,20.47,3.24,22.41-11.07a50.87,50.87,0,0,1,6.25-19.26c4.63-7.84,11.35-11.11,20.08-8,9.39,3.39,12.35,11,10.07,20.07-2.6,10.38-9.47,17.79-18.64,23.18-3.72,2.19-9.22,3.57-6.94,9.8,2.78,7.58,6.86,14.61,14.47,18.06,3.77,1.7,3.6-2.78,4.12-5,2.12-9.07,6.68-16.84,12.66-23.76,7.81-9,18.46-9.79,27-2.27,7.8,6.9,8.49,17.75,1.61,26.41-6.51,8.21-15.92,11.52-25.5,13.54-8.52,1.8-9.43,6.1-6.64,13,4.87,11.94,12.17,21.62,24.51,26.79,16.74,7,29.58,1.19,35.17-16.6,6.77-21.54,3.75-42.57-4.69-63-13.16-31.85-37.64-52.52-68.22-66.11-58.59-26.06-116.49-16.89-173.7,5.42-9.36,3.65-19.06,7-28.3,14,24.23,13.81,40.36,33.35,49.23,59,2.42,7,8.48,2.87,12.78,2,35.27-7.2,69.25-3.73,101,13.58,42.86,23.41,64.44,61.8,70.57,108.71,8,61-8.74,114.73-54.76,156.94-25.59,23.47-54.24,42.55-91.26,42.05-32.12-.44-59.19-32.88-57-67.91,2.13-33.79,31.73-59.43,64.26-55.68,22,2.53,39,26.9,32.8,47-5,16.29-23.58,23-39.59,13.93,2.47-4.19,6.86-2.3,10.07-3,14.81-3.31,19.5-7.43,19.12-17.88-.45-12.32-11.48-24.22-23.39-25.23-18.1-1.54-40.2,12.74-45.78,30.68-5,16.18-3.7,32.24,5.53,46.84,11.91,18.86,30.48,25.85,53.15,19.12,36.5-10.83,62.87-34.84,83.07-66.33,37.91-59.07,32-149.94-13.77-200.09-31.41-34.37-71.16-41.14-115-31.6-6.13,1.33-7.1,4.55-6.52,10.6,1.73,18,1.7,36.1-1.4,54.13-5.72,33.3-24.53,56.12-55,69.62-11.19,5-23.16,6.35-33.33-1.79s-11.6-20-9.42-32.07c7.9-43.64,31.7-76.21,70.46-97.28,9-4.89,9.5-9.27,5.95-17.58-12.73-29.81-34.22-48.23-66.7-52.81-30.87-4.36-65.64,25.66-65.67,56.5,0,13.83,9.57,24.72,22.34,25.32,5.48.26,10.9-.13,13.56-5.9s1-10.95-3.54-15.39C357.15,395.51,354.05,394.68,354.34,390.33Zm113,52.44c0-6,.27-12.08-.05-18.09-.6-11.16-2.91-12.53-11.88-6.53-32.8,21.91-52.53,52.47-58.74,91.4-2.88,18.09,7.09,26.33,24.92,20.7,18.45-5.82,30.57-18.92,37.79-36.47C466.1,477.49,467.86,460.26,467.35,442.77Zm94.4-94.09a19.46,19.46,0,0,0,.75,5.65c1.17,3.36.82,8.43,5.15,9.18,4,.7,6.43-3.24,8.74-6.15,5.38-6.77,7.35-14.58,6.76-23.15-.3-4.45-1.76-8.19-6.42-9.46s-8,1.26-10.55,4.75C562.46,334.55,561.55,340.44,561.75,348.68Zm-45.24-7.36c-.08,7.68,4.61,19.2,8,18.54,8.11-1.57,10.3-9.09,12.7-15.6a22.37,22.37,0,0,0,.63-11c-1.41-8.11-8.51-10.6-15.15-5.66C518.11,331,516.38,335.75,516.51,341.32Zm130.73,69.83c8.94-.09,22.23-10.78,22-17.87-.19-6.41-4.06-9.55-10.1-9.75-6.23-.21-17.45,14.71-17.63,22.72C641.43,410.48,643.77,411.34,647.24,411.15Zm-35.9-44c.2,2.88-1.14,6.52,1.76,8.29,3.45,2.12,6.49-.77,8.95-2.77,5.59-4.55,9.9-10.15,10.68-17.67.49-4.69-1.79-8-6.11-9.53-4.11-1.48-7.4.4-9.58,3.79A34,34,0,0,0,611.34,367.15Z" transform="translate(-316.38 -285.89)"/></svg>