<svg id="Layer_1" data-name="Layer 1" xmlns="http://www.w3.org/2000/svg" viewBox="0 0 232.17 710.79"><path d="M455.4,636.72c6.55,9.27,14.17,15.17,20.87,21.95,2.72,2.76,5.47,1.54,8.58.65C517,650,548.09,651,577,669.55c37,23.69,45.3,67.5,19.5,102.27-2.56,3.44-2.81,5.58.29,8.47,5,4.63,9.76,9.44,14.54,14.25,6.3,6.34,6.24,9.09-1.28,13.86-29.76,18.92-62.18,26.3-97.18,21.31-21.08-3-40.37-10.17-56.88-24.29-32.53-27.81-46.63-105.27,6.86-136.17,4.77-2.76,5.16-4.82,1.13-8.66-7.77-7.41-15.15-15.23-22.69-22.87-2.18-2.21-4.92-4.24-3.26-7.93,1.42-3.18,4.47-3.14,7.28-3.14q84.45,0,168.89.06c3.51,0,7.62.33,7.65,4.74,0,5.71-4.79,5.22-8.76,5.22l-148.52.05Zm81.14,159.92c-3.67,0-7.36.2-11,0-32.18-2-53.74-19.94-60.13-49.91-4.66-21.83,2.35-41.6,18.64-52.59,8.22-5.55,8.22-5.55.84-12.75-9.24-9-9.63-9.08-20.36-1.37-20.33,14.62-28.33,34.48-27.36,59.4,1.33,34.25,19.26,61.71,51.28,73.91,33.38,12.72,66.59,10.22,99-3.59,17.61-7.5,17.42-8,3.94-20.88a17,17,0,0,1-1.77-1.83c-2.43-3.23-4.81-3.68-8.53-1.34C567.53,794.21,552.36,797,536.54,796.64Zm-14.36-133a130.54,130.54,0,0,0-28.61,3.6c-1.95.47-4.93.43-4.35,3.86.78,4.54,15.31,14.34,20.29,13.74,20.61-2.49,38.57,3.07,53.48,17.7,11.12,10.92,15.64,24.63,9.58,38.68-4.55,10.56-.16,15.41,6.44,21a19.32,19.32,0,0,1,3,2.94c3.32,4.49,5.59,2.73,8.07-1C602,746.63,605.86,727.63,597,708,582.5,676.21,555,665.05,522.18,663.63Zm8.59,123.2c11.56,0,23.12,0,34.19-4.31,14.65-5.64,14.49-5.45,3.83-16.7-4.59-4.84-8.18-6.42-15.07-3.22-12.57,5.84-25.94,4.57-38.84-.13-10.36-3.78-17-11.07-18.71-22.11-1.82-11.61,1.61-21.22,11.76-27.89,1.36-.89,3.38-1.22,3.49-3.29.21-3.81-11.59-11.85-15.23-10.28-8.92,3.84-16.08,9.87-19.35,19.13-6.16,17.45-1.92,48.72,21.36,60.57A74.3,74.3,0,0,0,530.77,786.83Zm3.4-30.24c4.44-.69,8.92-1.22,13.32-2.11,5-1,7.08-3,2.36-7.53-7.91-7.65-15.46-15.66-23.22-23.46-5.9-6-12.54-5.43-17.63,1.3-6.2,8.17-3.48,21.19,5.59,26.46C520.61,754.74,527.23,756,534.17,756.59Zm-21.12-61.15c13.25,13.51,25.33,26.11,37.79,38.32,3.2,3.13,6.27,10.17,10.38,8,5-2.64,3.85-10,3.42-15.68a20.34,20.34,0,0,0-2.17-7.2C554.53,702.66,533.18,692.05,513.05,695.44Z" transform="translate(-389.7 -120.44)"/><path d="M512.72,237.39c26.15.46,44.49,13.45,55.28,36.6,11.51,24.73,10.85,49.18-7.38,70.78-17,20.15-39.4,25.94-64.45,19.38-20.16-5.27-30.68-20.34-34.83-39.95-4.19-19.77-.39-37.61,16.94-49.8,15.47-10.88,32.75-15.87,51.14-7.53,16.08,7.28,24.41,29.06,19,47.25-5.74,19.12-21.28,29.47-40.56,27C494.41,339.42,484.14,326,484.68,311c.46-12.81,10.13-23.47,21.91-24.06,2.82-.14,6-.43,7,3.19s-1.81,4.86-4.54,6c-13.75,5.79-17.8,14.59-12,26,4.79,9.41,19.42,12.35,29.75,6,11.16-6.9,16.35-23.59,11.45-36.81-5.2-14-16.68-20.61-31.49-18.15-21.25,3.54-34.35,15.58-37.07,34.07-2.39,16.25,7.81,37.85,22.07,44.58,17.11,8.07,34.26,7,50.1-3.48,16.34-10.79,24.67-26.5,23.53-46.11-1.94-33.35-29.93-66.9-75-51.24-12.44,4.33-24.13,9.63-33.49,19.18-2.34,2.4-5.05,4.4-8,1.41-2.77-2.82-1.13-5.61,1.14-8.15,9.54-10.68,21.77-17,35.17-21.08C494.13,239.58,503.1,236.76,512.72,237.39Z" transform="translate(-389.7 -120.44)"/><path d="M584.05,457.87c-34.6-6.25-66.36-2.74-97.86,5.06-14.55,3.6-29,7.67-42.8,13.62-3.23,1.38-7.42,3.24-9.3-1.9-1.6-4.41,1.89-5.94,5.18-7.19,49.41-18.7,99.78-29.38,152.7-18,5,1.08,12.41.71,13.14,7.12.81,7.12-7.21,6.66-11.68,8.67-11.75,5.29-22.7,11.82-31.36,21.32-16.88,18.5-18.31,41.2-5.51,66.14,6,11.61,13.51,20.12,27.75,19.91a26.74,26.74,0,0,0,26.36-24c1.37-13.3-6.49-24.2-19.88-27.52a35.34,35.34,0,0,0-5-.92c-3.65-.38-7.32-1.49-6.73-5.78s4.77-4,8.21-3.88c16,.65,28.69,11.42,32.36,27.43a36.57,36.57,0,0,1-19,40.63c-14.13,7.42-33.63,4.86-43.54-7.58-24.1-30.22-30.42-73.79,11.13-102.84C572.76,465,577.55,462.09,584.05,457.87Z" transform="translate(-389.7 -120.44)"/><path d="M426.47,400.33c27.34-13.43,55.72-17.47,84.9-14.55,31.71,3.16,62.1,12,91.45,24.31,4.17,1.75,8.35,3.47,12.53,5.2,3.45,1.42,6.31,3.56,4.64,7.65-1.83,4.44-5.39,3-8.62,1.52a356.53,356.53,0,0,0-65.56-22.74c-33.81-8.05-67.62-10.39-101.12,1.59-12.07,4.32-23.27,10.27-32.43,19.51-2.45,2.48-5.18,5.36-8.72,2.74-4.15-3.06-1.32-6.75.54-9.72a407.17,407.17,0,0,0,32.29-64.36c1.3-3.24,2.59-6.89,7.12-5.1s3,5.43,1.87,8.65c-4.61,12.78-10.52,25-16.53,37.15C427.74,394.36,425.81,396.28,426.47,400.33Z" transform="translate(-389.7 -120.44)"/><path d="M528.55,132.45c-17.12,0-34.24.2-51.35-.1-6.75-.12-13.5-1.24-20.22-2.14-3.2-.43-6.42-1.66-6-5.74.45-4.36,4.06-4.23,7.17-3.88,30.72,3.44,61.54,3.7,92.39,3.22,2.73,0,5.26.38,6.16,3.33s-.47,4.84-3.28,5.93c-19.22,7.4-31.87,23-45.89,36.89-11.87,11.72-22.35,24.84-35.46,35.32-1.76,1.41-3.63,2.7-5.52,3.95-3.17,2.09-6.79,4.38-9.47-.09-2.33-3.91,1.05-6,3.87-8.1,25.51-19,43.49-45.73,68.36-65.41C529.07,134.57,528.81,133.51,528.55,132.45Z" transform="translate(-389.7 -120.44)"/><path d="M423.42,525c0,9,.54,18.13-.15,27.12-.63,8.17,2.75,10.48,10.19,9.72a78.3,78.3,0,0,1,11.86.09c2.77.14,5.1,1.4,5.07,4.54a4.84,4.84,0,0,1-4.84,5,140.94,140.94,0,0,1-15.24.29c-5-.2-7.17,1.62-6.94,6.84.31,6.77.07,13.56,0,20.34,0,3.77,0,8.08-5.13,8-4.65-.09-4.57-4.17-4.59-7.62,0-6.78-.31-13.57,0-20.34.28-5.66-2.13-7.54-7.49-7.19a79.52,79.52,0,0,1-11.85-.29,4.76,4.76,0,0,1-4.67-5.07c0-3.27,2.16-4.3,5-4.53.84-.07,1.69-.06,2.54-.11,16.45-.81,16.46-.81,16.46-17.72,0-16.1-.1-32.21,0-48.31,0-4-1.18-9.76,5-9.66,5.38.1,4.65,5.44,4.69,9.29C423.48,505.23,423.42,515.12,423.42,525Z" transform="translate(-389.7 -120.44)"/></svg>