<svg id="Layer_1" data-name="Layer 1" xmlns="http://www.w3.org/2000/svg" viewBox="0 0 443.97 448.62"><path d="M634.94,631.65c-13.81,1.07-27.79-4-41.43-9.9-7.39-3.2-11.31-4.32-13.94,6-5,19.43-13.61,37.55-29.4,50.89-21.07,17.8-47.23,15.34-65.46-5.38-12.31-14-20.22-30.25-24.5-48.18-1.72-7.17-3.28-8.78-10.22-4.56-15.64,9.51-32.26,16.2-51.1,17.37-36.71,2.27-55.42-23.9-50.6-58.59a99.88,99.88,0,0,1,9.78-31.77c3.31-6.5,3.05-9.28-5.11-11.88-20.36-6.46-39.87-15.07-52.21-34.12-11.72-18.1-10.12-38.85,4.37-54.95,13.54-15,31.06-23.59,50.1-28.92,8.54-2.39,7.16-5.44,3.21-10.91-12.36-17.13-21.91-35.22-23.14-57.15-2.13-37.9,27.55-52.49,57.28-49.45A124.72,124.72,0,0,1,448.28,320c7.2,4.69,10.52,4.39,12.36-5.11,3.23-16.63,9.83-32.06,19-46.52,22.57-35.59,64.42-35.62,87.56,2.12,6.17,10.07,11.6,20.58,14.3,32.21,1.68,7.22,5,8.43,11.39,4.5a111.79,111.79,0,0,1,39.52-14.8c39.69-6.92,66,19.61,58.74,59.36-3.91,21.32-13.07,40.27-25.74,57.68-7.45,10.22-7.33,10.05,4.48,13.31,20,5.52,38.51,13.43,54,28.22,17.83,17,17.39,50.59-1.39,66.89a115.43,115.43,0,0,1-38,22.44c-7.06,2.45-8.06,5.31-4.79,11.66a80.28,80.28,0,0,1,5.76,16.16C695.42,605.45,675.07,631.77,634.94,631.65ZM469.13,421.82c-11.38-29.4-14-58-11.77-87.08.31-4.1-1.95-6.32-4.83-8.14-22-13.87-45.36-23.75-72-22.53S339,320.58,339,347.25c0,24.85,12.65,44.8,27.06,63.77,2.39,3.15,5.74,2.58,9.23,2.15,8.67-1.05,17.36-2.07,26.08-2.45C423.82,409.76,445.34,415.23,469.13,421.82Zm107.16,2.09c24.72-5.4,48.58-8.78,72.86-5.38,2.85.4,5.27-1,7.06-3.22,19.77-24.87,34.36-51.74,31.35-84.94-1.77-19.51-17.47-33.54-37.06-34.9-20.38-1.42-38.39,5.08-55.82,14.57-6.37,3.47-9.26,7.84-8,15.47a180,180,0,0,1,.4,55.32C585.1,395.18,580.51,408.81,576.29,423.91Zm-59.38-32c14.5-31.12,33.65-55.47,59.62-74.18,3.13-2.26,3.78-5.3,2.81-9-5.07-19.16-12.53-37-27.28-51-16.68-15.82-37-17.62-54.73-3.15-21.24,17.39-29.9,41.68-33.94,68-.67,4.34,1.27,7.82,4.7,10.55C487.75,348.85,504.55,367,516.91,391.93Zm3.28,295.91c11.25-1.61,21.61-5.38,29.77-13.56,14.73-14.76,22.7-33.13,27.55-53.11,1.18-4.84-.85-7.45-4.77-9.82a182.63,182.63,0,0,1-52.73-48c-4.71-6.37-7.35-6.09-11.52.22-11.58,17.53-25.19,33.3-42.25,45.79-3.4,2.49-4.55,5.28-3.62,9.53,5,22.93,14.21,43.47,32.47,59.06C502.28,684.14,511,686.49,520.19,687.84Zm214-203.34c.61-14.86-6.28-25.32-16.26-34.06-15.88-13.9-34.83-21.26-55.25-25.55-5.94-1.25-10.16.06-14.28,4.55a161,161,0,0,1-41,32.4c-9.52,5.24-9.58,6.75-.29,12.24,25.31,15,46.78,34,62.55,59,3,4.75,6.34,6.63,11.66,4.63,15.25-5.72,29.85-12.56,40.89-25.06C729.48,504.4,735.39,495.45,734.24,484.5Zm-438.34-6c.28,1.22.68,3.19,1.16,5.15,5.6,23.07,39,49.38,63.13,49.91a8,8,0,0,0,7.48-4.14c13.51-20.86,30.48-38.34,50.43-53.19,7.71-5.73,6.79-12.36-1.38-17.57-16.22-10.33-32-21.24-45-35.53-3.18-3.47-6.53-4.09-10.86-3-13.81,3.53-26.94,8.68-38.84,16.55C307.26,446.45,297.29,459.41,295.9,478.51ZM396,633.51c20.49,1.09,38.21-7.6,55.36-18,3.38-2.06,5.32-4.58,4.65-9.1-2.93-19.74-3.2-39.49.29-59.25,1.18-6.65-1.47-10.83-9.05-8.84-23.89,6.28-48,5.27-72.19,2.55-6.66-.75-10.63,1.49-13.41,7.76a123.16,123.16,0,0,0-9.7,33.83C348,611.55,364.29,636.06,396,633.51Zm287.77-50.82c1-10.23-3.84-20.73-8-31.4-1.81-4.69-4.59-6.59-10.12-5.47a198.19,198.19,0,0,1-71.21,1.44c-7.31-1.18-10.36,1.38-9.24,8.58,2.6,16.81,1.9,33.58-.61,50.29-.87,5.74,1.23,8.81,6.32,10.88,14.09,5.75,28.4,10.56,43.76,11.32C665.69,629.87,684,613.48,683.72,582.69ZM584.58,355.13c-.2-9.06-.38-18.11-1.41-27.19-1-8.43-3.25-8.93-9.41-3.94-19.89,16.13-35.4,35.69-48.28,57.79-7.07,12.12-4.22,23.55-.23,34.8,2.87,8.12,12.37,4.91,18.71,7.29,2.83,1.06,5.78,1.81,8.65,2.78,12.52,4.23,16.62,2.41,21.48-10.23A152.55,152.55,0,0,0,584.58,355.13ZM621.67,546a217.69,217.69,0,0,0,40.2-3.41c5.84-1,7.52-3.57,4-8.92-14.73-22.23-33.9-39.77-56.42-53.8-3.47-2.16-6.58-2.92-6.24,2.92,1,17.77-7.11,31.6-18.43,44.29-6.18,6.93-4.08,13.22,5.11,15.26A172.18,172.18,0,0,0,621.67,546ZM461.34,359c-.88,16.94,2.07,32.38,6.53,47.66,5.21,17.83,5.07,17.86,23,15,2-.32,4-.57,6-.73,11.49-.88,21.39-15.37,16.63-26.3-10-22.94-25.77-41.6-45.71-56.71-3.85-2.93-6.3-2.18-6.43,2.88C461.21,347.14,461.34,353.53,461.34,359ZM582.18,578c0-7,.51-14.15-.1-21.14-1.29-14.64-9.24-19.18-22.73-13.38-10.55,4.53-21.43,8-32.87,9-7.24.62-8.07,2.88-3.91,8.46a181.53,181.53,0,0,0,51.09,46.44c5,3.08,6.26,1.12,7.43-3.35C583.36,595.46,581.92,586.69,582.18,578ZM405.07,539.84c9.18-.79,19.26-1.38,29.24-2.66,3-.39,7.66.11,8.68-3.69.86-3.17-3-4.9-5.05-7-10.39-10.73-17.69-22.82-17.77-38.31,0-1.95.61-4.43-1.31-5.59-2.65-1.59-4.28,1.07-6,2.39-15.75,11.85-28.53,26.49-39.81,42.53-4.68,6.66-2.39,9.73,5.06,10.3C386.79,538.49,395.5,539.12,405.07,539.84Zm-33-122a203.23,203.23,0,0,0,47.42,38c5.66,3.3,8.74,2,12.59-2.66,7.06-8.6,15.19-16.09,25.63-20.72,2.83-1.25,6.57-1.89,7.63-6.77C435.77,414.33,405.65,412.25,372.07,417.84Zm85.37,157.78c.07,10.16,0,18.18,1.78,26.19,1.09,4.87,2,6.88,6.88,3.19,16.26-12.42,29.33-27.66,40.34-44.78,2.69-4.18,2.48-7.08-3.32-7.21-12.29-.27-24-3.33-35.35-7.7-5-1.94-6.78-.08-7.74,4.33C458,558.89,456.9,568.22,457.44,575.62ZM626.34,421c-17.2.83-34.23,2.08-50.57,7.89-5.61,2-7.5,4.82-1.63,8.87,8.09,5.58,15.46,11.88,20.44,20.51,2.28,3.95,5.14,3.55,8.48,1.73a170.73,170.73,0,0,0,41.57-31.48c3.76-3.9,2.19-6-2.29-6.51C637,421.35,631.64,421.3,626.34,421ZM443.68,470.46c-4.39.38-4,3.6-3.52,6.62a46.23,46.23,0,0,0,16.41,29c3,2.49,6.63,7.77,10.76,2.41,3.38-4.38,8.18-9.8.61-15.36a45.64,45.64,0,0,1-12.75-15.32C452.67,473.21,448.46,471.63,443.68,470.46Zm121.88,33.77a18.53,18.53,0,0,0-5.68-10.11c-3.44-3.32-6,.24-8.86,1.64-4.8,2.38-9.5,5-14.43,7-4.12,1.72-7.75,3.88-5.65,8.77s5.36,10,12,8a58.75,58.75,0,0,0,19.54-10.12C564.13,508.19,565.47,506.74,565.56,504.23Zm-53.73,21.23c7.75.71,13.27-2.15,13.06-10.26-.19-7.23-5.7-9-12.24-8.68-5.62.26-11.4.06-11.26,8C501.5,521.25,503.37,526.75,511.83,525.46Zm69.83-42.3c1-7.77-1.43-9.73-7.38-8.37-5.21,1.2-7.71,5-10.28,9-4.67,7.3.93,12.28,5.24,15.25s6.27-3.42,8.25-6.42C579.67,489.31,580.76,485.3,581.66,483.16Zm-99.9,36.23c5.91-1.71,13.53-4.54,13.32-10.32-.27-7.7-9.76-7-15.3-7.89-7.19-1.18-8.24,6.75-8.62,11.29C470.64,518.72,477.26,518.11,481.76,519.39Zm6.51-48.73c-3.83-3.46-6.8-6.1-9.73-8.8-2.45-2.27-4.78-5-8.62-3.22-1.73.78-2.06,2.55-1.79,4.26.62,3.87,2.45,7,6.46,8A27.94,27.94,0,0,0,488.27,470.66ZM532.74,472c-3.54.49-7.6.34-7,5.13.36,3.11,1.41,7,6,6.39,4-.53,9.26-1.89,9.65-5.65C541.82,473,535.81,473.61,532.74,472Zm-70.18-34.86c-7.33,3.34-12.14,9.11-16.18,15.56-1.29,2.08-4.17,5.1-1,6.92,3.61,2.09,6.32-.77,7.34-4.35C454.63,448.48,458.39,442.75,462.56,437.12Zm92.23,26.26c-.15-3.74-2.78-3.78-5-3.41-4.91.81-9.26,3.92-10.22,8.29-.67,3.1,4.41,3.25,7.18,3.42C552.54,472.06,553.15,467,554.79,463.38Zm10.53-21.82c1.9,7,3.58,12.3,6.89,16.86,1.15,1.59,3.41,2.74,5.39,1.68,2.59-1.38.85-3.48.08-5.17C575.35,449.74,572.4,445.05,565.32,441.56Zm-56.13,35.05a8.91,8.91,0,0,0-5.72,7.5c-.29,2.8,2.13,3.1,4.2,2.78,4.28-.67,4.93-4.12,5-7.54C512.77,477.5,511.39,476.39,509.19,476.61Zm-34.92-39.49c-4.9,3.68-6.33,7.72-7.28,12-.42,1.88-1.45,4.29,1.7,4.69,2.37.3,3.64-1.37,3.95-3.62C473.18,446.28,473.62,442.35,474.27,437.12Zm43-32.14c-1.6,6.5-4.69,10.19-1.18,14.34.53.63,3,.66,3.54.06C523.08,415.18,520.23,411.48,517.26,405Zm-14.4,69.61c-6.08,1.24-9.61,3.12-10.79,7.38-.5,1.78,1.77,3,3.44,2.73C500.58,484,500.65,479.45,502.86,474.59Z" transform="translate(-292.98 -241.9)"/></svg>