<svg id="Layer_1" data-name="Layer 1" xmlns="http://www.w3.org/2000/svg" viewBox="0 0 413.35 506.48"><path d="M737,270.18Q596.69,305,454.92,333.2c-14,2.8-20.52-1.43-26.25-13.19-10-20.51-16.88-41.7-18.93-64.48-.51-5.58,2.33-14.58-7-14.39-10.13.21-7.85,9.56-7.43,15.74,1.71,25,7.38,48.95,20.19,70.91,1.9,3.25,7.65,7.63,2.14,11.39-3.8,2.6-7.54,2.17-10.52-.42a65.91,65.91,0,0,1-8.37,5c-1.39,1.83-3.92,3.54-7.84,5.46C341,373.62,330.68,431.48,368.58,472c6.18,6.6,7.91,11.71,5.58,20.59-6.62,25.24-4.54,49.68,14.2,69.63,6.26,6.66,7.91,12.18,5.68,20.79-5.13,19.73-1.79,38.68,11.71,54,7.36,8.33,8.68,15.55,6.16,25.74-2.79,11.25-1.3,23.34,5.83,32.4C427.1,707,430,719.37,428.3,734c-.67,5.67-.93,14,8.26,13.63,8-.32,7.17-7.57,6.7-13-1-11.17,2.86-15.18,14.6-13.42a49.63,49.63,0,0,0,35.54-7.93c7.6-5.06,12.74-11.64,10.33-21.2s-10.51-12.77-19.36-13.52c-12.89-1.09-24.25,3.83-35.19,10-4.75,2.7-8.8,10.94-15.39,3-7.42-9-8.14-19.49-5.32-30.35,2.24-8.61,8.84-4.86,13.9-4.28,16.13,1.82,31.52.12,45.58-8.62,8.84-5.48,14.49-13,11.9-23.87-2.45-10.23-10.68-13.79-20.3-14.93-17.28-2-32.92,3.17-45.66,14-12.17,10.33-17.25,4.69-22.21-6.29-3.12-6.91-3.05-14.16-3.39-21.51-.58-12.53,4-17.14,17-14.65a78.6,78.6,0,0,0,43.29-3.68c15.81-6.07,25.18-18.95,21.37-30.2-5.39-16-19.06-17.86-33.18-16.7-15.53,1.28-30.06,6.73-41.39,17.42-10.63,10-16.1,5.47-21.78-4.56-7.1-12.53-6.65-25.76-5.37-39.45,1.05-11.26,4.36-15.34,17.08-12.89,21.17,4.06,42.76,3.69,62.93-6,13.06-6.28,23.33-15.52,19.9-31.46-3.31-15.35-16.63-19.39-30.05-19.57-23.9-.3-45.84,6.86-63.12,23.88-8.53,8.41-13.46,6.41-20.21-1.58-23.42-27.72-15-71.4,17.16-90.56l1.69-1a11,11,0,0,1,5.53-4.54A32.92,32.92,0,0,1,413.59,358a8.35,8.35,0,0,1,8.43-6.34,8.56,8.56,0,0,1,6,2.23,8.53,8.53,0,0,1,6.47,2.39c3.35,3,6.34,6.39,9.47,9.64,30.78,32,68.06,51.43,112,57.72,94.91,13.56,185-46.73,201.43-134.71C761.48,267.39,758.86,264.77,737,270.18ZM488.13,695.65c-8.15,10-17.67,9.3-32.19,9.74C467.42,695.44,475.41,691.2,488.13,695.65ZM469.81,624.7c4.74-.62,11.74-2.26,12.76,4.31.85,5.46-5.27,8-10.18,9.64-9.68,3.21-19.43,3.68-32.36,1C450.32,629.64,459.64,626,469.81,624.7Zm-32.16-73c8.48-4.38,17.44-7.63,27.29-6.17,3.77.57,8.45.86,9.13,5.65.61,4.31-2.72,7.24-6.2,9.16-8.51,4.7-17.88,6-27.85,6.17-4.84-.88-13,2.71-14.55-3.63C423.65,555.51,432.58,554.34,437.65,551.73Zm-14.42-94.44c11-5.92,22.71-9.63,35.44-8.47,5.66.52,12,1.4,13.48,7.9s-3.56,10.19-8.72,12.79c-11.13,5.61-22.82,9.25-37.2,8.78-6.18-1.25-18.62,2.55-20.57-6C403.61,463.45,416.17,461.11,423.23,457.29ZM739.59,299.38c-19.71,59.45-62.46,92.86-121.69,107.51a132.4,132.4,0,0,1-18.35,2.7c-6.14.64-12.34.8-18,1.13-47-1.14-87.19-17.46-120.84-49.56-3-2.9-8.27-5.45-6.42-10.72,1.5-4.27,6.69-3.71,10.33-4.41,88.94-17.12,177.21-37.33,265.16-58.88C743.18,283.87,742.65,290.14,739.59,299.38Z" transform="translate(-345.68 -241.14)"/></svg>