<svg id="Layer_1" data-name="Layer 1" xmlns="http://www.w3.org/2000/svg" viewBox="0 0 500.11 401.46"><path d="M601.9,652.53c.51-5,1.35-14,2.38-22.94.72-6.29-.94-9.68-7.93-11.75-46-13.66-68.11-40.23-71.87-85.21-3.45-41.3,17.86-77.36,57.43-97.1,9.85-4.92,19.81-9.58,30.62-12,5.94-1.36,9.43-4.46,10.48-11,4.15-25.57,8.51-51.1,13.24-76.56,1.86-10.06-.77-14.88-11.73-14.71-14.5.23-27.45-6.3-40.65-11.17-14.18-5.24-28.29-9.26-43.66-6.48-4.6.83-10.22.76-12.32-4.43-2.18-5.41,2.72-8.61,6.23-11.47,18.7-15.3,52-14.43,70.53,4.14,13.55,13.58,26.74,17.24,44.33,10.06,10.77-4.4,15.21.28,12.29,12.67-5.12,21.79-11.13,43.35-16.53,65.07-2.17,8.75-3.69,17.67-5.53,26.5-1.8,8.6.31,12.71,10.43,13.19,70.74,3.38,124,61.2,120.92,131.84-2.13,48.45-41.93,111.29-113.1,121.44-10.87,1.55-21.76,3.07-32.67,4.29C605.75,679,601.43,675.1,601.9,652.53ZM748.29,538.31c.91-17.14-4.31-34.31-13.64-50.13-18-30.51-43.65-50-80-53.08-7-.59-14.52-1.82-19.28,5.31-3.94,5.89-5.42,33.28-2.29,36.82,2.24,2.53,5.54,2.59,8.56,3.41,8.31,2.28,16.74,4.34,24.76,7.42,58.64,22.59,47.68,89.72,12.81,112.49-12.65,8.27-25.88,15.37-40.64,17.91-12,2-16,7.71-14.26,19a37.72,37.72,0,0,1,.12,8.23c-.57,8.15,3.67,10.69,10.9,9.16,10-2.12,19.93-4.38,29.77-7C714.93,634.53,748.22,591.19,748.29,538.31Zm-208.75-5.47c-.65,41.18,29.64,63.63,60.06,73.77,5.15,1.72,8.08.18,9.15-5.56,2.78-15,.18-20.2-13.71-25.95-14.79-6.12-26.39-15.59-31.18-31.51-7.37-24.53,5.64-48.39,35.07-57.55,15.87-4.94,21.38-13.22,21.26-28.06a9.3,9.3,0,0,1,.13-1.17c1.91-17.05-.57-19.06-16.6-13.44C564.06,457.28,540,490.78,539.54,532.84ZM691.7,550.26c.12-29.13-12.63-47.07-40.23-56.61-19.3-6.67-25.44-1.37-22.57,18.64,1.1,7.64,7.35,8.63,12.15,11.33,9.63,5.42,16.21,12.92,15.89,24.2-.36,12.18-6.17,21.69-17.37,27.36-2.09,1.06-4.32,1.84-6.46,2.81-7.33,3.29-12.36,23.29-7.5,29.63,1.35,1.76,3.14,2,5.19,2C663.28,610.16,691.58,582.62,691.7,550.26ZM595,538.75c-2.06-10.56,3-15.83,11.31-19.59,6.29-2.85,11.62-18.1,9.1-24.24-1.16-2.83-3.12-3.36-5.58-2.49-13.49,4.74-25.18,12.25-29.27,26.55s-2.52,28.16,10.49,38.22c4.93,3.81,10.58,9.28,16.57,7,6.63-2.52,2.43-10.43,3.57-15.86a7.06,7.06,0,0,0,0-2.34c-.68-5.24,3-12.39-2.3-15.34C602.56,527.1,602,537.67,595,538.75Zm31.69,8.06h-.21c0,3.91-.06,7.83,0,11.74.13,6.2,3.48,6,7.81,3.85,8.33-4.17,12.42-15.27,8.21-23.06-2.73-5-7.23-9.76-12.82-8.58-5.12,1.08-2.24,7.39-3,11.36A27.16,27.16,0,0,0,626.73,546.81Z" transform="translate(-270.58 -277)"/><path d="M492.56,302.51c-17.9-2-34.07,7.32-51.08,13-7.87,2.65-15.77,5.66-24,5.37-12.36-.43-13.71,6.48-12.09,15.85,3.16,18.18,8.39,36.21,9.41,54.49,1.21,21.61,9.92,32.06,31.17,38.81,35.13,11.16,60.28,34.88,68.5,72.86,12,55.62-15,100.33-70,115.11-6.24,1.68-8.27,3.66-7.35,10.33,1.66,12,2.2,24.24,3.05,36.39.53,7.66-3.37,11.34-10.92,12.44C361.8,687,290.92,639.45,274.09,573c-18.44-72.73,38.2-149.52,113.4-153.78,14.59-.82,15.55-1.37,13.61-16-3.36-25.39-11.59-49.7-17.57-74.51a187,187,0,0,1-3.66-19.64c-1-7.68,3.05-9.95,10-8.11,2.66.71,5.28,1.57,7.87,2.47,13.47,4.67,24.6,2.77,35.15-8.26,19.44-20.31,49.28-23.62,71.11-9.31,4.5,3,11,5.7,9.54,12.1-1.74,7.49-9.1,3.62-14.06,4.46C497.58,302.78,495.57,302.51,492.56,302.51ZM411,466.38c-.84-5.81-2.28-11.61-2.41-17.44-.24-10.84-6.23-14.53-16-14.14-28.4,1.14-52.53,11.55-71.57,33.05C264.41,531.92,301.54,632.13,374,647.3c8.44,1.77,16.73,4.28,25.21,5.8,6.24,1.13,14.08,6.41,16.95-5.11,4.48-18,2.25-24.93-9.57-28.09-20.72-5.54-40.34-13.16-55.33-29.46-26.44-28.72-22-74.71,9.28-94.71a99.86,99.86,0,0,1,39.38-14.89C409.09,479.48,412,475,411,466.38Zm91.37,68a57.12,57.12,0,0,0-.06-7,130.35,130.35,0,0,0-2.25-13.93c-8.47-35.85-30.25-59.54-65.38-70.63-5.3-1.67-11.9-4.09-13.33,5.56-3.07,20.79,1.92,29.83,21,37,1.1.42,2.16.93,3.26,1.37,21.35,8.56,34.3,25,33.91,44.93-.42,21.49-13.47,34.2-31.84,42.65-15.42,7.08-16.25,9-14.45,25.78.66,6.23,3.07,8.69,9.08,6.68C472.11,596.8,502.29,575.17,502.41,534.39Zm-89.19-27.1c-.57-8.49,1.5-16.32-10-16.29-23.41.05-48.87,20.06-52.08,43.3-6.36,45.89,14.25,66.9,59,75.16,3.47.64,6-.08,7.28-3.94,3.63-10.94-1.9-23.8-12.52-28.7-12.48-5.75-19.66-15.14-20.09-29.22-.4-13,7.19-20.43,18-24.9C410.9,519.32,414.84,514.42,413.22,507.29Zm17.25,38.49h.38c0,2.36-.06,4.71,0,7.07.4,13.44,3.53,15.06,15.3,8,23.38-14.08,22.89-44.86-1-61.39-5.13-3.54-11.81-9.32-16.77-5.38-5.24,4.15-1.3,12.36-.11,18.81.81,4.35,4.27,5.16,7.58,6.41,5.94,2.23,9.81,6.42,11.2,12.63.49,2.22.94,5-1.69,6.19-2.25,1-3.4-1.16-4.57-2.72-2.07-2.77-3.89-7.14-7.91-5.79-5.15,1.72-1.82,6.76-2.33,10.32A41,41,0,0,0,430.47,545.78Zm-15.14,2.92h-.08a56.63,56.63,0,0,0,0-5.83c-.45-4.43,1.28-11-4.36-11.93-6.4-1-10.25,4.7-12.3,10.42a16.31,16.31,0,0,0-.48,8c1.38,7.53,6,14.43,13.38,13.89,7.17-.54,2.6-8.77,3.86-13.43A4.48,4.48,0,0,0,415.33,548.7Z" transform="translate(-270.58 -277)"/></svg>