<svg id="Layer_1" data-name="Layer 1" xmlns="http://www.w3.org/2000/svg" viewBox="0 0 350 474.26"><path d="M656.05,251.36c-7.69-7.63-13.09.28-18.27,5.47-25.41,25.52-51.14,50.73-76.09,76.68-5,5.24-9,7.19-13,6.22a25.53,25.53,0,0,1-3.77,5,9.26,9.26,0,0,1-1.22,1.07c.63,2.86-.41,6-4.34,10.08-9.06,9.3-12.81,1-17.45-3.83q-43.86-46-87.32-92.28c-4.95-5.29-9.75-11-17.42-6.56q-51.56,29.85-102.7,60.42c-4.33,2.58-7.41,6.76-4.13,12,3.13,5,8.06,4.36,12.71,2.21,4.32-2,8.59-4.18,12.69-6.6q37.63-22.19,75.16-44.57c5.43-3.26,9.67-5,15.1.86Q468,322.95,510.83,367.7c5.93,6.22,6.3,11.22-.1,17.28-10.36,9.81-19.54,21-30.51,30-40.55,33.38-36.67,114.13,9,133.86,13.24,5.72,9.18,10.93-.05,16.52-30.55,18.5-41.41,47.31-40,81.09,1.29,31.29,14.65,56.29,44.7,69.4,27.41,12,53.05,7.3,75.92-11.22,28.63-23.18,39.18-66.91,25.93-101.23-8.37-21.67-23.11-37.37-44.79-48.67,5.83-3.79,9.75-6.3,13.63-8.88,44.27-29.44,51.06-93.23,14.19-131.8-8.76-9.17-16.71-19.13-25.6-28.16-5.86-5.94-9.53-10-1.4-17.82a18.43,18.43,0,0,1,5.22-3.75c2.22-5.14,6.16-8.69,10.79-11.28a32.39,32.39,0,0,1,5.75-7c26.1-25.57,51.56-51.79,77.23-77.79C655.41,263.51,663.21,258.46,656.05,251.36ZM582.2,635.06c.1,21.31-8.1,39.2-23.31,53.67-27.66,26.28-74.65,14.12-86.73-22.18a79.47,79.47,0,0,1,47.53-100,15.9,15.9,0,0,1,10.74-.2C560.24,575.17,582.36,604.39,582.2,635.06ZM566.46,429.18c33.5,39.29,16.06,97.4-33.51,112-21.64,6.37-54.93-18.1-60.5-44.73-1.18-5.66-1.27-11.55-1.87-17.33-.08-17.22,4.85-32.21,17.35-44.6,11.65-11.54,22.9-23.5,34.15-35.44,6.36-6.76,11.56-7.55,18,.48C548.3,409.88,557.88,419.12,566.46,429.18Z" transform="translate(-308.94 -248.19)"/></svg>