<svg id="Layer_1" data-name="Layer 1" xmlns="http://www.w3.org/2000/svg" viewBox="0 0 554.83 555.34"><path d="M434.18,679.7c.22-63.14,27.45-113.91,66.39-159.63,18.81-22.08,18.23-15.64.93-39.15-11.33-15.39-23.19-30.53-33-46.88-7.18-12-13.27-13.6-25.35-6.39-35.7,21.29-73.62,29.85-115.1,18.33-48.78-13.54-76.66-48.13-75.34-95.83,1.24-44.62,31.57-77.17,80.59-87.36,32.5-6.76,64.28-4.26,95.25,6.79,10.55,3.76,17.23,3.85,23.86-6.77,36-57.7,128.05-53,156.46,9.38,5.14,11.29,11.4,10.55,21.27,6.33,33.9-14.47,68.58-24.06,106.18-15.87,49.55,10.79,77.87,51.76,69.81,102.39-8.09,50.85-52.84,87.48-99.75,84.06-32.07-2.33-62.68-8.54-91.41-22.89-8.45-4.22-13-1.62-17.37,5.83-12.7,21.8-28.47,41.39-46,59.41-8,8.25-7.37,14.57-.84,23.13,21.43,28.07,41.12,57.3,55.63,89.69,14,31.19,21.66,63.79,15,97.69-10,50.9-50,81-97.64,74.95C474.28,770.67,429,730.74,434.18,679.7Zm170-4.35c-2.44-59.46-35.42-105-68.89-150.26-5-6.72-10.12-4.55-14.76.74-39.93,45.63-68.92,95.79-67,159.14,1.47,49.83,59.71,88,106.1,69.25C588.33,742.57,605,712.94,604.19,675.35ZM374.79,432.26c16.83.93,40.08-9.3,62.78-22.12,9.52-5.37,9.93-11.26,6.16-20.54-10.77-26.49-15.86-54-8.66-82.29,3-11.78-1.86-16.56-11.55-19.83-35.7-12-71.38-13.31-107,.21-25.82,9.79-41.4,28.48-44.46,55.73-3.2,28.54,4.9,53.35,30,70.32C321,426.55,342.25,431.37,374.79,432.26Zm248.52-95.09c1.14,16.14-1.1,35.11-7,53.39-3.33,10.25-.06,15.28,9.21,19.33,18.68,8.17,37.78,15.07,58,17.62,26.06,3.28,51.86,6.36,74.61-13.4,23.62-20.52,36.9-58.86,27.67-87.24-9.39-28.87-37.35-47.54-72.41-48.37-19.31-.46-38,3-56.22,9.15C623,299.18,623,299.12,623.31,337.17Zm-96.16-96.64c-23.74,1.35-44.24,10.37-58.71,31-5.05,7.2-6.54,12.91,2.32,19.38,18.24,13.33,35.79,27.63,53.23,42,6.67,5.5,12.07,5.7,19,.64,14.43-10.51,29-20.81,44.08-30.39,9.82-6.25,9.7-13.1,5.3-22.64C579.59,252.8,556.57,242.21,527.15,240.53ZM584.3,415.82c.6-5.13-1-7.64-3.37-9.55-14.86-11.89-29.85-23.62-44.66-35.57-4.83-3.9-8.5-2-12.64,1.16q-19.86,15.18-40,30c-6.42,4.69-8.07,9.84-3.28,16.61q20.13,28.36,40.13,56.83c6.35,9.07,12.12,9.34,19.64.77,13.36-15.25,26.34-30.73,37.43-47.71C580.43,423.88,582.61,419,584.3,415.82ZM450.69,337.44c.89,5.54,1.92,13.82,3.6,22,7.09,34.35,9,35.12,36.31,14.52,31.17-23.53,31.54-19.29,1.58-43.58C488,327,484,323.28,479.59,320.28c-7.2-4.87-14.3-16.19-22.12-12.1C449.41,312.4,451.69,325.22,450.69,337.44Zm152.85,7c0-6.57.21-13.15-.08-19.71-.18-4-2.08-7.77-6.71-4.86-16.13,10.12-40.06,17.43-44.33,33.65-3.51,13.36,21.46,21.93,33.88,32.52,6.33,5.41,10.61,3.52,13-4.38C602.9,369.5,603.83,357,603.54,344.45Z" transform="translate(-252.68 -222.33)"/></svg>