<svg id="Layer_1" data-name="Layer 1" xmlns="http://www.w3.org/2000/svg" viewBox="0 0 521.63 539.5"><path d="M746.86,382.5c-20-35.21-52.09-49.74-92-45.92-34.15,3.26-63.77,18.47-92,37.07-15.52,10.24-17.38,9.51-18-9.6-1-32.3-6.38-64-12.28-95.59-3.13-16.73-7.57-33.2-16.88-47.8-11.13-17.44-26-17.34-36.83.43-7.68,12.61-11.15,26.84-14.48,41.06-8.61,36.76-12.35,74.24-15.65,111.71-1.14,12.89-3.37,16.58-15.78,8.94-13.39-8.25-27.41-15.88-42-21.65-28.92-11.43-58.86-15.28-88.93-4.35-36.6,13.3-57.27,40.46-62,78.44-4.38,35,8.06,63.27,40.37,80.61,6,3.22,8.06,8.65,10.34,14.3,12,29.66,35.23,41.77,64.85,42.18,27-.58,51.82-6.35,75-17.51,13.58-6.54,16.74-2,17.16,11.1,1.08,34.63,5.31,69,10.87,103.18,3.42,21,7.48,41.94,16.69,61.29,4.19,8.8,10,17,21.71,16.77,11.52-.17,17.74-7.69,21.45-17a288.78,288.78,0,0,0,11.88-36.26c10.49-41.42,12.57-84,15.88-126.31,1.85-23.76,1.8-23.87,23.06-15.92,19.52,7.31,39.87,11.07,60.47,12.41,40.48,2.64,67-14.18,81.43-50.46,2.35-5.91,5.09-14.46,11.2-12.75a8.83,8.83,0,0,1,8-4.73,9.11,9.11,0,0,1,3.31.68,38.64,38.64,0,0,1,7.12-14.05C766.59,450.93,766.16,416.51,746.86,382.5Zm-442.37,110c7-30.69,34.92-52.4,66.79-50.1,24.11,1.74,45.37,11.26,66.72,27.48-38.71,24.08-77.93,39.29-122.48,38.06C305.17,507.6,302.12,502.79,304.49,492.45ZM426.72,538.6c-23.47,10.84-47.59,17.78-73.53,16.87-15.71-.55-29.65-5.81-39.66-18.72-2.12-2.74-5.26-5.86-3.63-9.68,1.79-4.17,6.28-2.7,9.61-2.71,37.12-.14,71.47-10.84,104.34-27.14,20.94-10.39,21.34-10.25,21,14.78C448.35,525.45,439.74,532.59,426.72,538.6Zm18.56-110.92c-.06,23.45,0,23.32-19.68,14-31.7-15.06-63.64-23.32-97.25-4.84-19.14,10.52-31.28,26-38.05,46.51-5.22,15.75-8.24,16.21-19.89,4C239.94,455.46,253.3,397.59,296,375c28.81-15.23,57.42-11,86.08-.14,16.51,6.24,31.29,15.82,46.59,24.43C441.12,406.29,448.64,414.8,445.28,427.68Zm87,7.12c-2,4,3.56,13.08-5.91,11.53-5.12-.83-12.75-6.56-13.24-10.77-.78-6.72,7.28-11.75,13.22-12.57C535.24,421.77,530.61,430.45,532.25,434.8ZM461.7,499.6c1.15-4.1-3.06-11.91,4.46-11,5.64.69,14.35,4.47,13.87,11.84-.42,6.48-7.77,12.39-13.9,12.24C457.87,512.46,463.41,504,461.7,499.6Zm11.45-31.34c-1.8-3.06,20.08-21.44,23.91-19.45,8.85,4.59,18.4,9.13,23,18.81,1.38,2.92-18.56,18.68-23.6,18.51C488.56,481,478.53,477.39,473.15,468.26ZM486,239.51c2-5.91,3.15-15.2,11.09-14.71,7.37.45,8.42,9.51,10.47,15.59,14.24,42.27,18,86.3,22.24,134.92,8.69,22.16-11.95,32.54-28.23,44.49-9.16,6.73-38.26-13.11-37.71-26.32C466,341.45,469.39,289.46,486,239.51ZM465.28,427c4.27-3.4,11.72,3,12.72,7,2.49,10-6.93,11.24-14,15.55C461.76,440.71,458.78,432.14,465.28,427ZM531,554.68c-3.51,48.37-6.23,96.89-19.05,144-2.87,10.56-3.64,27.54-15.38,27.75-10,.17-11.67-16.64-14.31-26.83-11.74-45.4-15.87-91.9-19.25-142.65-8.07-22.83,15.6-29.67,29.65-42.44,2.28-2.06,5.12-2.34,8.44-1.34C518,518.24,532.24,537.26,531,554.68Zm-3.46-46c-5.56-.26-12.29-4.14-11.71-10.95.46-5.25,6.23-9.45,11.36-10.07,7.68-.94,4.43,6.11,5.46,10.14C530.94,501.52,534.84,509,527.52,508.68ZM644.3,547.21c-30.28,1.82-58.93-5-85.88-18.75-9.1-4.66-14.16-33-7.65-40.37,3.23-3.66,6.58-1.94,9.77-.4,41.05,19.75,84.31,28.49,132.42,24.62C682.22,536.25,665.75,545.93,644.3,547.21Zm32.12-50.85c-4.22.36-8.45.43-10.06.51-36.5-.65-68.18-9.91-98.59-24.27-10-4.71-11.62-9.07-1.11-15.77C585.25,445,605,436,626.6,432c26.88-5,54.75,11.53,65.47,37.78C700.2,489.67,697.32,494.59,676.42,496.36Zm62.66-42.28a37.75,37.75,0,0,1-4,6.68,9.77,9.77,0,0,1-1.6,2.35c-.66,1-1.38,2.06-2.15,3.28l-.42-1.22a8.88,8.88,0,0,1-5.77,1.15c1.57,5.8-.15,11.21-6.16,13.5-6.32,2.41-6.31-3.44-7.83-7.07-21.66-51.81-59.66-68.67-112.68-50.09-13.25,4.65-25.51,11.24-37.35,18.63-7.91,4.93-11.46,3.87-12.79-6.22-2.64-20.21.89-35.92,20.77-47,28.1-15.72,55.23-32.76,88.26-36.44C713.07,345.37,759.73,403.63,739.08,454.08Z" transform="translate(-239.19 -207.67)"/></svg>