<svg id="Layer_1" data-name="Layer 1" xmlns="http://www.w3.org/2000/svg" viewBox="0 0 441.42 535.02"><path d="M480.16,542.49c-60.82,5-115.07,63-122.62,126.68-1.35,11.36,2.67,29.05-15.55,27.81-20.32-1.39-12.86-19.68-11.51-31,5.48-45.7,26.63-83.5,61.39-113.65,4.34-3.75,8.88-7.27,13.28-10.85-3.67-7.26-9.56-4.61-14.12-4.68-25.3-.39-50.62-.09-75.92-.44-25-.35-29.84-8.51-17.28-29.47q68.52-114.33,137.42-228.43C455.67,244.58,476,210.64,497,177.1c12.73-20.35,20.74-20.12,33.23.77Q628.52,342.32,726.37,507c12.15,20.45,6.64,29.19-18.08,29.37-32.16.24-64.33.06-101.38.06,18.64,18.68,35.15,31.77,47.22,49.5A174.86,174.86,0,0,1,684.41,673c.75,10,3.59,23.14-11.79,24-13.77.75-13.17-11.73-14.19-21.23-6.8-63.56-40.62-106.38-99.53-130a24.67,24.67,0,0,0-5.49-1.95c-5.43-.75-11.79-6.46-16.06-.57-3.24,4.47,1.87,9.75,4.4,14,16.09,27.4,32.45,54.64,48.7,82,3,5,6.06,10,8.81,15.13,4.31,8.1,9.9,17.06-1.19,23.69-10.71,6.4-16.83-1.43-21.71-9.65Q547,619.07,518,569.58c-10.84-18.45-10.77-18.53-21.88.12Q466.72,619,437.4,668.33c-5,8.37-10.83,16.12-21.54,9.4S410,662.11,414.78,654C436,617.73,457.28,581.5,480.16,542.49Zm216-32.79C682,485.72,670.46,466.33,659,447q-69-116.2-137.83-232.5c-6.31-10.72-10.41-9.31-15.81.15-6.42,11.25-13.21,22.28-19.89,33.37Q411.18,371.21,336.77,494.34c-7.43,12.23-4.56,15,8.8,14.8,29.16-.41,58.34.49,87.52.52C519.25,509.76,605.4,509.7,696.17,509.7Z" transform="translate(-291.16 -162.02)"/></svg>