<svg id="Layer_1" data-name="Layer 1" xmlns="http://www.w3.org/2000/svg" viewBox="0 0 373.25 376.14"><path d="M633.73,407.24c-34.87-41.42-78.46-58.1-129.15-60.14-59.06-2.38-114.83,12.35-169.9,31.25-6.32,2.17-12.66,4.35-19.12,6-4.59,1.18-9.25.49-10.95-4.84-1.56-4.89.77-8.64,5-11.2a17.69,17.69,0,0,1,3-1.44c73.87-26.93,148.82-48.76,228.53-34.12,60.86,11.18,106.12,44.38,131,102.53a91.21,91.21,0,0,1,4.67,14.24c1.08,4.47.9,9-3.62,11.9-5.36,3.42-9.52.77-13.28-3-3.55-3.54-7-7.22-10.45-10.81-46.1-47.45-165.25-66.07-230.46-4.87-44,41.34-59.33,110.73-33.77,162.16,28.9,58.16,92.94,89.64,156.11,76.74,84.57-17.28,129.77-96.46,99.52-174.51-13.06-33.71-39.39-51.37-73.24-59.64a182.51,182.51,0,0,0-58.13-4.17c-42.73,3.41-74,32.56-84.22,78-9.74,43.29,5.6,79.53,42.86,101.3,29.81,17.42,75.23,14.85,102.93-5.84,26.62-19.88,35.48-63.66,19.71-97.36-13.09-28-47.63-43-80.76-35.21-29,6.85-49.1,40.41-41.08,68.55,8.3,29.14,36.42,44.1,64,34,14.81-5.41,22.64-20,19.44-36.36C549.58,536.26,538.25,528,523,529.13c-9,.65-16.32,3.52-18.7,13.48-1.72,7.24-6.44,10.78-13.57,7.87-7.55-3.1-6.19-10.07-4.29-15.85,4.35-13.23,13.56-21.8,27.51-23.84,17.74-2.6,34.63-1.15,47.31,13.95,22.93,27.33,9.86,70.09-24.83,81.25-29.82,9.58-58.84-1-77.19-28-17-25-14.79-61,5.35-85.78,24.86-30.56,57.37-33.85,92.48-24.47,35.83,9.56,54.74,34.85,59.65,70.63,7.45,54.31-16.37,93.57-65.49,109.65-51.09,16.71-106.86-4.48-133.34-46.46-36.11-57.24-7-171.18,93.92-177,46.38-2.7,91,4.44,124.72,40,51.44,54.32,41.24,153.89-19.42,203.38-78.88,64.36-199.3,40.22-246.94-49.5-45.77-86.17,5.64-200.95,101.19-225.76C521.07,379.72,569.6,384,617,403.34,621.46,405.15,625.41,408.84,633.73,407.24Z" transform="translate(-304.13 -328.05)"/></svg>