<svg id="Layer_1" data-name="Layer 1" xmlns="http://www.w3.org/2000/svg" viewBox="0 0 466.68 606.07"><path d="M432.44,399.58c10.67-17.9,20.28-34.1,30-50.25,12.09-20.11,24.39-40.11,36.32-60.32,3.14-5.32,4.47-4.5,7.26.26,20,34,40.13,67.85,60.26,101.73,1.2,2,1.74,5.24,4.54,5.17,3.2-.07,2.71-3.58,3.42-5.69,10.47-31.18,19.81-62.75,31.41-93.55,10.44-27.74,17.8-56.65,31.47-83.16,2.14-4.15,2.66-11.05,10.43-7.65,6.84,3,7.51,7,4.32,14.07-22.26,49.13-42.51,99.08-59.25,150.41-3.6,11-7.73,21.84-11.78,32.7-2,5.42-1.64,10.06,1.45,15.29q47.13,79.83,93.81,159.92,27,46.11,53.8,92.32c5.31,9.16,5.19,9.28-5.19,9.28-61.35,0-122.71.21-184.06-.25-8.27-.06-10.87,3.2-12.15,10.15-4.53,24.67-9,49.34-14,73.94-2.58,12.94-6.08,25.7-9,38.58-1,4.55-3.14,7.43-8.23,7-4.91-.46-7.37-3.74-7.55-8.11-.67-16-4.71-31.52-7.69-47.1-4.21-22-7.17-44.19-11.37-66.18-1.21-6.33-3.87-8.14-10.18-8.12-61.63.23-123.25.15-184.88.11-2.9,0-7,1.31-8.43-1.08-1.82-3,1.6-5.91,3.18-8.55q74.44-124.37,149.12-248.59c4-6.61,5.31-12.43,3-20.4C406.26,346.41,385,293.33,361.6,241c-3.52-7.88-6.44-16.06-10.44-23.68-3.6-6.85-.17-9.91,5.1-12.76,5.89-3.2,7.54,1.24,9.54,5.17,13.78,27,22.47,56,32.54,84.52C410.38,328.33,420.65,363,432.44,399.58Zm68,269.9c4.6,0,9.22-.32,13.78.07,6.32.54,9.32-2.12,10.62-8.25,1.63-7.64,4.11-15.1,6.1-22.67,4.57-17.4,10.16-34.39,6.21-53.17-2.23-10.57-1.56-22.09-.39-33A631.42,631.42,0,0,1,561.4,433.8c3.72-12.1,4.27-22.06-3.15-33.75-17.64-27.78-33.32-56.8-50-85.21-5.69-9.72-6.4-9.87-12-.58-19.26,31.87-38.15,64-57.22,95.94a11.24,11.24,0,0,0-1.12,9.34,711.31,711.31,0,0,1,16.91,74.93c3.67,21.32,5.56,42.8,8.17,64.2,1.2,9.81,1.37,20.24-.69,29.82a40.68,40.68,0,0,0,1.43,22.9c4.17,11.75,6.45,23.93,9.14,36C477.82,669.44,477.59,669.49,500.43,669.48ZM545,628.57c-3.56,11.8-6.63,22.42-10,32.94-2.18,6.82-.09,8.73,7,8.69,54.86-.26,109.72-.12,164.58-.22,2.77,0,6.75,1.59,8.07-1.58,1.08-2.58-1.69-5.42-3.16-7.92C697.39,636.24,683.28,612,669,587.86q-38.85-65.42-77.9-130.71c-4.41-7.42-8.4-15.09-12.78-22.53-1.15-2-2.16-5.05-5-4.54-2.52.44-2.05,3.39-2.58,5.4-2.83,10.69-5.94,21.32-8.51,32.08-7.64,32-16.11,63.95-14.62,97.36.1,2.24-.39,4.62,1.48,7.36,3.09-11.07,5.67-21.48,9-31.67,2.21-6.86,5.87-13.57,14.34-13.24,8.09.32,9,7.78,11.4,13.73,4.78,12,3.26,24.49,3.25,36.84,0,17.91-5.42,34.64-12.86,50.6-4.87,10.45-13.86,12.86-21.92,7.15C549.83,634,548,631.63,545,628.57ZM428.43,429.07c-2.08,3-3.71,5.11-5.06,7.37Q356.43,548.75,289.55,661.06c-4.2,7.07-3.61,8.39,4.35,8.4,54.84,0,109.68-.05,164.52.07,7.3,0,9-3.14,7.25-9.59q-4.59-17.18-8.88-34.43c-.53-2.13-.65-5.07-2.67-5.56-3.23-.79-3.21,2.88-4.37,4.78-7,11.39-14.66,11.78-22.52.95a33.58,33.58,0,0,1-4.89-8.35c-6.67-19.27-11.2-39-9.58-59.54.73-9.31,1.89-18.87,6.67-27.32,4.92-8.69,10.7-9.4,17.17-2a35,35,0,0,1,7.72,13.14c2.2,7.37,4.6,14.68,6.91,22C450.06,518.1,444.59,473.34,428.43,429.07Zm70,352.21c1.35-2.13,2-2.75,2.15-3.46q8.94-46,17.79-92c.85-4.39-1.33-5.79-5.37-5.75-8.36.1-16.74.44-25.06-.11-6.77-.44-7.41,2.18-6.44,8,4.72,28.38,11.37,56.44,14.43,85.1C496.14,775.44,497.26,777.65,498.4,781.28Zm69.92-227.09a33.59,33.59,0,0,0-2.79,3.81c-7,14.4-10.38,30-14.7,45.25-1.75,6.19.63,12.32,3.49,17.87,2.73,5.3,5.68,4.72,8.49-.31,3.2-5.7,4.84-11.93,6.22-18.17C572.5,587,573.54,571.38,568.32,554.19ZM426.4,560.35c-.77,11.34,2.12,21.83,3.76,32.46.82,5.29.75,10.85,3.51,15.69,1.34,2.35,3,4.89,6.15,4.39,2.74-.44,3.28-3.08,4.29-5.35,3.21-7.25.1-14.41-.09-21.58-.35-13.38-6.31-25.44-10.17-38-.58-1.9-1.86-4.31-4.38-4-1.89.2-1.62,2.5-2.08,4C426.1,552.14,426.25,556.46,426.4,560.35Z" transform="translate(-266.66 -203.47)"/></svg>