<svg id="Layer_1" data-name="Layer 1" xmlns="http://www.w3.org/2000/svg" viewBox="0 0 242.99 476.34"><path d="M508.68,405.53H441.49c-7.42,0-14.84.2-22.24-.07-6.71-.25-16.06,1.66-15.68-8.87.38-10.21,9.69-8.22,16.37-8.28,24.19-.2,48.38-.09,72.57-.1h16c-13-11.26-24.12-20.67-32.72-32.62-23.61-32.84-25.42-75.68-3.87-106.13,18-25.36,52-36,84.87-26.39,29.82,8.68,48.81,33.82,50.1,66.07.55,13.74.33,27.4-5.3,40.23-2.63,6-.82,10.27,3.12,14.79,11.78,13.53,23.35,27.25,34.94,40.94,3.71,4.38,9.26,8.6,5.86,15.18-3.21,6.23-9.94,5.18-15.7,5.2-22.15.09-44.31,0-68,0,5.38,10.6,11.41,19.48,7.22,30.79-3.93,10.59-12,17.13-20.74,23.08-5.43,3.7-7.48,8.26-7.43,14.73q.33,41,0,81.94c0,6.08,1.72,10.32,7.35,13.27,23.12,12.14,31.15,30.81,25.81,56.55-4.95,23.93-14.48,45.19-30.89,63.28-3.37,3.71-7,8.23-12.83,6.33-6.44-2.13-6.45-8.2-6.46-13.71-.08-31.21-.4-62.43.13-93.64.16-9.62-2.9-15-11.94-18.59s-17.59-8.43-25.87-13.51c-23-14.14-27.46-35.09-12.53-58,9.6-14.76,23.16-25.49,38.19-33.87,9.7-5.41,12.94-12.26,12.06-22.7-.65-7.68-.13-15.46-.13-25.27-15.95,10.49-27.28,23.26-40,34.28-15,13-29.24,27-44.05,40.26-4.79,4.28-10,13.3-17.16,5.37s1.53-13.27,6.73-18c23-21.1,46.17-42,69.26-63C501.12,412.73,503.62,410.3,508.68,405.53Zm15.08-82.73h0c0-13.64-.1-27.27,0-40.91.07-6.08-1.38-13.42,6.18-16.12s11,4.38,14.85,8.8c12.11,13.72,23.88,27.75,35.77,41.67,3.38,4,6.58,6.62,8.32-1.11,5.46-24.33,2.73-47.62-16.38-64.64s-42.92-18.81-65.81-8.46c-22,9.95-33.16,28.65-33.49,53.2-.47,33.51,16.85,57.32,42,76.86,6.86,5.34,8.56,2,8.53-4.88C523.7,352.4,523.76,337.6,523.76,322.8Zm0,193.6h-.08c0-10.93,0-21.85,0-32.78,0-4.47-1.51-7.33-6.21-4-12.78,9-25.86,17.73-32.54,32.76-5.39,12.1-3.1,21.06,8,28.22,7.18,4.64,15,8.23,22.47,12.45,6,3.38,8.53,1.85,8.44-5C523.6,537.47,523.71,526.93,523.71,516.4Zm18-140.84a147.19,147.19,0,0,0,31.88-30.67c2.23-2.89,4.36-5.89,1.43-9.38-10.53-12.57-21.16-25.05-33.31-39.4Zm11.66,12.86c21.69,0,40.61.06,59.53,0,4.8,0,5.38-2.66,2.6-6-7.51-9-15.17-17.82-22.83-26.66-2.18-2.51-4.59-2.88-6.84,0C577,367.05,566.08,376.44,553.35,388.42ZM541.13,661c11.82-16.65,17.66-34,17.64-53.11,0-9.3-4.92-15.17-11.81-20.09-3.49-2.49-5.82-1.94-5.82,2.86Q541.11,625.83,541.13,661Zm2.06-247.58c-1.57,5-2.71,21.17-2.08,24.75.93,5.34,3.26,4.14,6.28,1.73C557,432.26,555.58,423.17,543.19,413.43Z" transform="translate(-403.56 -219.59)"/></svg>