<svg id="Layer_1" data-name="Layer 1" xmlns="http://www.w3.org/2000/svg" viewBox="0 0 653.53 726.77"><path d="M497.29,139c48.14-.06,82.16,40.5,73.51,87.79-1.17,6.35-1.36,12.93-5.41,18.67-2.51,3.55,1.74,4.71,3.93,6,12.87,7.47,25.85,14.76,38.77,22.15,24,13.75,48.08,27.44,72,41.35,4.55,2.64,7.86,3.85,11.64-1.41,18-25,47.45-34.9,77.36-27.62,35.81,8.73,57.84,40.13,55.6,78.25-2,33.79-29.11,62-64.89,66.66-6,.79-7.57,2.61-7.54,8.44q.35,63.15,0,126.31c0,5.33,1.28,7.39,7.08,8.17,30.5,4.08,51.78,20.78,61.62,49.85,9.75,28.83,3.1,55.5-18.35,76.55s-48.23,25.74-77,16.39c-14.11-4.57-25.27-13.43-33.68-25.36-3.4-4.83-6-4.94-10.53-2.33-21.52,12.49-43.14,24.83-64.73,37.22-15.35,8.81-30.62,17.76-46.09,26.35-4.71,2.62-6.44,4.57-4.12,10.61,11.22,29.33,6.68,56.06-14.38,80-11.32,12.84-25.79,19.15-42,21.76-16.62,2.67-32.63.14-47.56-8.33-31.24-17.72-45.7-54.91-34.13-88.29,1.25-3.6,4.21-7.06,3.42-10.82-.93-4.49-6.35-3.53-9.32-5.62-14.41-10.14-30-18.39-45.11-27.26-20.81-12.18-41.92-23.84-62.75-36-4.36-2.55-6.34-1.67-9.13,2.28-19,26.94-55.74,37.51-86.41,25.37-27.06-10.72-42.26-31.25-46.32-59.24-4-27.78,6.41-50.72,28.14-68.58,10.91-9,23.7-13.07,37.35-14.6,5.15-.57,6.37-2.57,6.36-7.24-.11-42.61-.17-85.23,0-127.84,0-5.89-2.25-7-7.55-7.67-48.57-5.75-78.13-56.63-59.78-101.41,21.66-52.83,92.91-62.43,128.22-15.86,3.25,4.28,5.21,4.83,9.7,2.23q55-31.78,110.19-63.09c5.65-3.2,7.36-5.82,4.61-12.55-11-26.86-6.08-52.76,10.87-74.84C454.41,147.83,474.14,138.52,497.29,139ZM539.6,737.57l-.66-.64c-.32-1.72-.18-3.87-2.57-4.12-2-.21-2.12,1.76-2.87,3-5.88,9.88-11.86,19.7-17.7,29.61-3.74,6.36-7.3,12.83-10.94,19.24,18-8.94,34.79-18.67,51.55-28.4,1.32-.76,1.94-2.11,1-3.2C552.19,747.1,549,738.76,539.6,737.57ZM462,770.93c-7.8-.55-13.26-6-19.69-9.42-3.37-1.77-6.4-3.61-8.56,1.64-4.15,10.09-6.87,20.64-6.15,31.43,3.5,52.87,59.17,87.41,109,56.45,29.8-18.51,40.71-53.89,26.93-86.94-2.07-5-4.43-5.24-8.71-2.69-13.22,7.84-27.47,14.24-39.67,23.39-12.65,9.48-23.14,8.17-34.28-1-5.84-4.8-14.29-5.76-18.67-12.69,4.81-.51,8,3,11.77,4.92,5.75,3,11.26,6.35,16.87,9.57-8.32-17.58-17.77-33.9-27.16-50.27-2.06-3.58-4.27-2.8-6.79-.63-5.23,4.5-10.35,9-14.77,14.42-3.87,4.76-3.22,6.64,1.74,9.82C450,762.83,457.87,764.1,462,770.93ZM539.15,158l-1,0c-.66-6-5.73-7.69-10-9.57-38.16-16.78-75.43-.2-93.13,33.37-9.65,18.31-9.61,37.89-2.24,57.43,2.23,5.92,4.85,6.7,10.2,3.52,16.74-10,33.79-19.4,50.52-29.38,3.85-2.3,6.39-2.18,10.25.14,17.14,10.29,34.62,20,51.86,30.14,4.16,2.44,6,1.7,7.85-2.78,10.34-24.86,7.17-48.2-8-69.86C551.43,165.47,547.41,158.77,539.15,158ZM174.84,358.18a72.13,72.13,0,0,0,61.22,69.47c6.59,1,8.74.1,8.61-6.85-.36-19.48,0-39-.27-58.46-.07-4.46,1.26-6.84,5.18-9,17-9.51,33.62-19.65,50.67-29.05,5.49-3,5.3-5.26,1.85-9.8-17.33-22.83-50.12-33.51-77-24.56C195.28,299.8,175.36,326,174.84,358.18Zm577.92,33.4h-.38c0,10,.18,20-.08,30-.14,5.29,1.12,7.47,7,6.29,26.47-5.27,46-17.85,56.66-44.47,11.54-28.91,5.58-53.41-14.34-75-29.56-32-82.88-27.67-108,7.8-2.78,3.92-1.62,5.58,2,7.63q26.07,14.73,51.93,29.84c2.56,1.5,5.75,2.33,5.41,7.18C752.27,371.06,752.76,381.33,752.76,391.58Zm-.36,221.05h0c0,9.23-.45,18.49.16,27.67.41,6-1.61,9.23-6.81,12.07-16.62,9.08-32.94,18.72-49.42,28.07-4,2.26-5.66,4.33-2.24,8.89,8.7,11.6,20.4,19.49,33.47,24.26,26.73,9.75,51.63,3.88,71.94-15.3,22.64-21.39,28.6-48.29,17-77.35-10.34-25.78-30.54-40.22-58.16-44.23-4.61-.66-6,.79-6,5.16C752.5,592.12,752.4,602.38,752.4,612.63Zm-507.89.51h-.06c0-10.26-.21-20.52.09-30.78.16-5.19-1.27-6.92-6.63-5.68-7.72,1.79-15.35,3.55-22.69,6.77-26,11.41-43.64,43.88-39.66,71.85,3.9,27.3,19.38,45.53,43.32,57.07,27.26,13.13,65.91,2.21,83.28-22.74,2.65-3.8,3.87-6.44-1.7-9.44-16.45-8.85-32.41-18.62-48.84-27.52-5.48-3-7.7-6.3-7.27-12.6C245,631.13,244.51,622.12,244.51,613.14Zm2.67-110.78h0c0,20.77.14,41.54-.09,62.3-.07,5.72.75,8.86,7.67,9.21a51.26,51.26,0,0,1,22,6.22c4,2.18,5.75.93,7.8-2.66,13.12-22.89,26.33-45.75,39.82-68.43,2.83-4.74,3.08-8.28.15-13.18-13.36-22.3-26.35-44.81-39.26-67.37-2.61-4.55-5.48-5.39-10-3.13A57.84,57.84,0,0,1,253.82,431c-5.4.42-6.81,2.39-6.75,7.56C247.33,459.8,247.18,481.08,247.18,502.36Zm502.59-.05c0-21.31-.08-42.61.07-63.92,0-4.54-.81-7.12-6.17-7.33a56.78,56.78,0,0,1-23.58-6.49c-3.81-1.95-5.7-1-7.79,2.67C700.09,448.62,688,470.1,675,491c-5.26,8.43-5.79,15.18.52,22.81,2.41,2.92,3.86,6.64,5.78,10,9.89,17.09,19.85,34.14,29.65,51.29,2.94,5.13,6,7.41,12,3.82a36.39,36.39,0,0,1,18.43-5c7.7,0,8.6-3.64,8.51-10C749.6,543.38,749.78,522.84,749.77,502.31ZM629.93,356.14v.08c13.59,0,27.19-.12,40.79.07,4.29.06,6.49-.84,6.85-5.77.59-8.2,2.39-16.27,6.37-23.59,1.86-3.42,1.38-5.32-2.17-7.33Q624.34,287,567.09,254.1c-3.71-2.14-6.06-1.54-8.49,1.61-4.39,5.7-8.87,11.37-15,15.39-5.07,3.35-5.55,6.88-2.4,12.16,13.47,22.66,26.65,45.49,39.8,68.34,2.1,3.65,4.9,4.65,8.86,4.6C603.24,356,616.59,356.14,629.93,356.14ZM366.74,648.4c-12.82,0-25.65.21-38.46-.09-5.74-.14-8.9.79-9.17,7.7a47.79,47.79,0,0,1-5.66,20.61c-2.17,4-1.84,6.47,2.72,9q56.46,32,112.52,64.68c5.28,3.09,8,1.61,10.38-2.49,3.35-5.68,8.17-10,13.19-13.8,5.58-4.28,5.27-8.94,2.35-14-12.66-22-25.58-43.82-38.18-65.83-2.48-4.33-5.48-6-10.47-5.92C392.89,648.59,379.81,648.4,366.74,648.4Zm318.13,32c-.43-1-1-2.41-1.63-3.82-2.7-6.68-5.19-13.56-5.44-20.73-.21-6.26-2.84-7.64-8.52-7.59-24.89.23-49.79.47-74.67-.12-8.11-.19-12.57,2.61-16.39,9.46-12.29,22.08-25,43.92-37.86,65.69-2.38,4-2,6.48,1.8,8.85a56.21,56.21,0,0,1,16.25,16.19c3.37,5,6,4.13,9.91,1.77,7-4.23,14.15-8.31,21.27-12.4q45.36-26.06,90.75-52.09C682.29,684.53,684.7,683.78,684.87,680.44ZM366.72,356.09v.11c13.59,0,27.17-.11,40.76.08,4.08.05,6.58-1.36,8.62-4.92q20-34.94,40.43-69.63c2.54-4.29,2-7.14-2-9.59-6.49-4-11.34-9.64-15.54-15.76-2.93-4.26-5.39-4.76-9.95-2.11q-55.47,32.19-111.28,63.8c-5.68,3.2-6.41,6.09-3.66,11.48a48.59,48.59,0,0,1,5.2,20.73c.15,5,2.25,6,6.63,5.89C339.55,356,353.14,356.09,366.72,356.09Zm133,108.5c0,9.49.12,19,0,28.46-.09,4.86,1.31,6,5.72,3.46q23.54-13.8,47.21-27.33c4.51-2.58,5.61-5.23,2.11-9.7-12.89-16.45-29.82-25.29-50.39-27.72-4.31-.5-4.59,2.08-4.59,5.15Q499.78,450.76,499.77,464.59Zm-2.63.52h0c0-9.46,0-18.93,0-28.4,0-3.24-.67-5.63-4.73-5.08-20.95,2.84-38.33,11.92-51.2,29.05-2.54,3.37-2.67,5.46,1.46,7.76,16.3,9.08,32.47,18.41,48.63,27.74,3.46,2,6,3.44,5.91-2.66C497,484.05,497.14,474.58,497.14,465.11Zm2.62,218.18c0,9,.23,18-.08,26.91-.2,5.82.93,9,7.71,6.91,3.88-1.19,8-1.58,12-2.48a8.4,8.4,0,0,0,6.41-5.94q9.44-27.21,19.06-54.35c1.53-4.31.43-6-4.36-6-11.28.2-22.56.26-33.84-.07-5.53-.16-7.11,2.12-7,7.29C500,664.82,499.76,674.06,499.76,683.29Zm-2.63.88h0c0-9.49-.27-19,.11-28.46.23-5.88-2.11-7.57-7.66-7.4q-16.53.51-33.07.07c-5.62-.15-5.85,2.08-4.3,6.45,5.83,16.42,11.87,32.78,17.06,49.4,2.34,7.47,6.83,11,14,12.06,2.79.43,5.63.58,8.37,1.2,4.26,1,5.53-1,5.49-4.86C497.07,703.14,497.13,693.65,497.13,684.17Zm2.64-145.32h0c0,9.48.06,18.95,0,28.42,0,4,.7,6,5.69,5.4,21-2.49,37.52-12.42,50.32-29,2.35-3,2.73-5.06-1.13-7.22q-25.35-14.2-50.48-28.77c-3.76-2.17-4.42-.56-4.41,2.79C499.79,519.91,499.77,529.38,499.77,538.85Zm-2.62,1.29c0-8.7.07-17.4,0-26.1-.07-8.07-.84-8.5-7.57-4.67-12.67,7.2-25.32,14.45-38,21.6a28.78,28.78,0,0,0-7.59,6.32c-3.13,3.56-3.23,6.79,0,10.11,13.07,13.53,27.78,23.87,47.45,25.05,4.42.26,5.95-1,5.84-5.44C497,558.06,497.15,549.1,497.15,540.14Zm0-218.08c0-9.48-.18-19,.07-28.43.14-5.22-1.08-7.9-7-6.25-4.17,1.16-8.51,1.67-12.72,2.71-2.47.61-4.78,1.57-5.79,4.44q-10,28.64-20.17,57.18c-1.13,3.15,0,4.51,3,4.41,12.73-.38,25.47,1,38.23-.79,3.82-.54,4.46-1.53,4.41-4.84C497.05,341,497.15,331.54,497.16,322.06Zm2.61-.22c0,9,.22,17.92-.09,26.87-.19,5.44,1.26,7.84,7.29,7.58,10.73-.46,21.5-.39,32.23,0,6.75.26,7.12-2.19,5.08-7.69-5.52-14.85-10.74-29.83-15.87-44.82-4.57-13.37-7.22-15.3-21.19-16.24-5.93-.39-7.71,1.85-7.53,7.42C500,303.92,499.76,312.89,499.77,321.84Zm2.11,180.42c18.71,10.76,36.22,20.8,53.68,30.92,3.83,2.21,6.26,1.14,7.84-2.71,7.73-18.87,7.27-37.74-.09-56.6-1.34-3.42-3.26-5-7-2.87C538.6,481.22,520.85,491.37,501.88,502.26Zm-74.45-1.65a107.29,107.29,0,0,0,5.36,27.95c1.93,5.79,4.33,7.43,9.92,4.05q23.63-14.25,47.59-27.95c3.92-2.23,2.88-3.41,0-5.07Q465.65,485.46,441,471.33c-3.85-2.22-5.9-1.14-7.61,2.83C429.71,482.75,428.54,491.84,427.43,500.61Zm237.3-124.95c-18.61,3.56-38.2,7.3-57.79,11.08-4,.78-3.14,3.14-1.7,5.67q8.94,15.68,17.81,31.39c1.58,2.82,3.41,3.25,6.26,1.62,17.08-9.83,34.23-19.52,51.32-29.32,1.69-1,3.78-1.77,3.36-4.52C683.24,386.69,670.65,375.61,664.73,375.66Zm-331.88.06c-6.13-.31-19.17,10.83-19.93,15.93-.34,2.34,1.23,3.15,2.78,4,17.12,9.78,34.28,19.5,51.34,29.38,3.09,1.79,4.83,1.58,6.7-1.7,5.82-10.22,11.87-20.32,18-30.38,2.64-4.36.85-5.9-3.44-6.58-4.53-.73-9-1.79-13.51-2.66ZM694.73,588.27c.1-3.07-1.47-5-3.32-6.95-4-4.22-8.52-8.14-11.88-12.85-7.76-10.88-17.48-20-25.82-30.36-2.71-3.36-4.33-2.45-6.16.75q-9,15.66-18.16,31.21c-1.64,2.77-1.32,4.58,1.56,6.23q26.35,15,52.6,30.25c1.94,1.11,3.83,1.9,4.9-1Q691.6,596.9,694.73,588.27ZM665.22,629.1c3.67.45,6.22-1.29,9-3.51,3.79-3.06,4.23-8.27,7.62-11.17s1.93-4-.71-5.5q-25.61-14.61-51.22-29.18c-2.67-1.51-5.12-1.8-7,1.59-6,10.44-12.16,20.74-18.2,31.12-1.75,3-.65,4.86,2.65,5.49Q636.24,623.53,665.22,629.1Zm28.64-213.53c-.88-3.95-2.06-9.71-4.66-15.06-1.65-3.39-4.2-3.26-7-1.63q-25,14.31-50,28.61c-3.55,2-4.59,4.39-2.33,8.13,6.07,10.07,12.15,20.16,17.91,30.42,2.33,4.14,4.22,2.54,6.25.22q18.9-21.69,37.7-43.47C693.07,421.24,694.48,419.7,693.86,415.57ZM330.93,628.9c1.9-.54,4.29-1.65,6.77-1.86,16.84-1.45,33.15-5.67,49.63-9.08,7-1.44,6-4.18,3.13-8.76-5.86-9.45-11.46-19.06-17-28.7-2-3.43-4.13-2-6.38-.76q-25.35,14.4-50.66,28.86c-1.48.84-3.44,1.35-3.62,3.57C312.5,616,326.21,629,330.93,628.9ZM302.56,417.2c-.42,1.76,1.16,3.67,2.9,5.68,10.52,12.17,20.91,24.45,31.44,36.61a31.07,31.07,0,0,0,5.73,5c3.79,2.61,6.61,2.43,9-2.36,4.05-8,8.6-15.7,13.36-23.28,3.69-5.89,2.62-9.71-3.42-13-12.54-6.93-24.85-14.24-37.3-21.32C308,395.21,305.89,396.3,303,415.33,302.91,415.59,302.85,415.84,302.56,417.2Zm66,155.55c-2.34-4.93-4.72-10-9.06-13.87-1.5-1.33-4.43-2.49-3.89-4.37,2-7-4.33-10.32-6.17-15.57-1.52-4.36-3.9-3.46-6.55-.38-10.15,11.77-20.15,23.7-30.84,35-8.53,9-11.42,18.17-4.55,29.23a2.54,2.54,0,0,1,.24.72c.91,3.82,2.5,5,6.42,2.7,17-9.95,34.1-19.64,51.16-29.44C366.82,575.87,368.65,575.23,368.54,572.75ZM663,372.56c-18.76-13.77-38.88-16.89-60.41-9.66-12.54,4.21-12.5,4.25-5.83,15.69,1.9,3.25,3.91,6.08,8.36,5.21Q634,378.16,663,372.56Zm-38.7,273.32c12.05-.94,23.55-3,34-9.16,1.31-.77,3.08-1.32,3.11-3.06,0-2.65-2.41-2.22-4-2.54-15-3-30-6.1-45.13-8.8-12.85-2.3-12.71-2-19,10-2,3.73-1.34,5.42,2.26,7C604.76,643.33,614.55,644.9,624.29,645.88ZM372.48,358.78c-11.23.81-22,2.85-32,7.92-2.08,1.05-4.37,2.53-4.24,5,.11,2.22,2.84,1.83,4.42,2.14,15.06,3,30.1,6.15,45.26,8.5,11.66,1.8,12.14.8,17.74-9.88,2.3-4.39.61-5.83-3-7.4C391.64,361.08,382.08,359.58,372.48,358.78Zm95.63,351.27c-6.86-19.68-13.18-38.08-19.74-56.39-1.66-4.64-15.87-7.59-19.5-4.38-1.11,1-1,2.2-1,3.5C428,674.43,446.58,701.69,468.11,710.05Zm60.27,1c25.18-13,36.87-32.53,40.72-57.39.24-1.55.4-3.06-.89-4.27-3.26-3-17.71-.74-19.25,3.48C542.17,671.53,535.69,690.3,528.38,711.05Zm.8-415.13q10.16,28.74,20.35,57.46c.78,2.19,2.84,2.57,5,2.83,14.08,1.66,15.85-.27,12.78-14.22-.27-1.25-.53-2.51-.89-3.74C560.79,318.6,548.91,304.22,529.18,295.92Zm-61.1-.67c-3.63-.42-5.19,1-6.86,2.14-18,11.93-29.38,28.17-32.43,49.77-.43,3-3.81,8.32,1.85,8.58s13.71,4.6,16.93-3.7C454.78,333.5,461.14,314.63,468.08,295.25ZM373.33,645.79A76.05,76.05,0,0,0,401.5,639c1.41-.64,5.43-1.61,2.84-3.86-3.45-3-2.8-7.42-5.51-10.62-2.28-2.67-4.16-4.15-7.64-3.48-17,3.29-34.11,6.5-51.15,9.82-1.65.32-4.12.1-4.45,2.25-.39,2.53,2.24,3.08,3.93,4.06C349.74,643.16,361.05,644.94,373.33,645.79Zm375-6.7,1.26-.42c0-19.16,0-38.31,0-57.47,0-3.39-.56-5.56-4.62-4.85-8,1.42-16.06,2.73-23.42,6.77-3.15,1.73-4.19,3-2.2,6.39C729.17,606,738.74,622.56,748.37,639.09ZM749.77,366l-1.49-.21c-9.65,16.58-19.23,33.19-29,49.71-2.11,3.58-.37,5.12,2.51,6.47,7.27,3.42,15.11,4.84,22.9,6.32,3.55.67,5.11-1.13,5.1-4.78C749.73,404.32,749.77,385.15,749.77,366ZM247.17,638.39l1.19.51c9.57-16.28,19-32.62,28.78-48.8,2.31-3.83,2-5.7-2.3-7.41a95.29,95.29,0,0,0-21.38-5.93c-5-.77-6.39.78-6.35,5.51C247.25,601,247.17,619.68,247.17,638.39Zm1.43-272.72-1.45.32c0,19.15,0,38.31,0,57.46,0,3.56,1.23,5.33,5,4.7,6.82-1.12,13.53-2.43,20-5,5.63-2.22,6.82-5.33,3.78-10.51C266.77,397,257.71,381.33,248.6,365.67Zm446.92,61.52-1.89-.89c-11,12.42-22.12,24.79-33.07,37.27-8.93,10.17-8.68,10.12-1.55,21.91,2.41,4,4.2,4.2,7.67,1.4,10.78-8.73,19.41-19,24.27-32.15A75.57,75.57,0,0,0,695.52,427.19ZM254,354.9l.38,1.31c19,0,37.92-.07,56.89.06,4,0,5.9-1.36,5.21-5.39-1.3-7.58-2.83-15.1-5.9-22.23-1.41-3.29-2.72-5-6.76-2.63C287.29,335.82,270.6,345.3,254,354.9ZM693.71,578.84c2.31-23.49-5.78-42.53-22.76-57.68-8.55-7.64-8.52-7.26-14.69,2.44-3.37,5.32-4.21,9.54,1.63,13.51,1.41,1,2.27,2.7,3.43,4Q677.51,560,693.71,578.84ZM301.24,429.68c1.09,22.77,9.49,41,26.53,54.9,2.22,1.8,5.44,7.25,8.35,2.35s11.31-8.63,5.1-16.8c-11-14.44-23.81-27.34-35.26-41.39-.92-1.13-1.8-2.86-3.59-2.14S301.29,429.22,301.24,429.68Zm441.28-73.47.61-1.43q-25-14.1-50-28.23c-3.54-2-5.62-1.21-7,2.55a88.2,88.2,0,0,0-5.22,20.78c-.54,4.67.54,6.46,5.5,6.41C705.13,356.08,723.82,356.21,742.52,356.21ZM743,649.87c-.15-.49-.31-1-.46-1.47h-53c-9.41,0-9.24,0-8.3,9.1.57,5.44,2.3,10.48,4.17,15.52,1.93,5.22,5.31,6.56,10.22,3.77Zm-442-72.1,2.05,1.12c11.37-13.07,22.93-26,34.05-39.24,7.92-9.46,7.65-9.68,1.08-19.93a10.46,10.46,0,0,1-.83-1.29c-1.7-3.73-3.88-3.16-6.64-1-5.47,4.21-9.15,10.05-13.74,14.89C304.42,545.49,302.33,561.33,301,577.77ZM252.08,648.4c18.27,10.62,34.6,20,50.85,29.6,4,2.33,6.15.84,7.71-2.85a81.82,81.82,0,0,0,5.46-19.88c.75-5.1-.23-7-5.6-6.94C291.83,648.52,273.17,648.4,252.08,648.4Zm240-428L490.85,219q-25,14.47-50.07,29c-2.59,1.5-1.22,3.48,0,5.24a65.57,65.57,0,0,0,16.6,17c2.57,1.86,4.38,2.12,6.19-1C473,252.92,482.57,236.67,492.11,220.4ZM506,219.1a400.12,400.12,0,0,0,28.24,50.46c1.61,2.44,2.85,2.53,4.8.94a112.74,112.74,0,0,0,17-16.57c2.54-3.16,2-5.39-1.66-7.26-3.87-2-7.55-4.3-11.33-6.45ZM626.45,568.25c7.27-12.35,13.6-23.09,19.9-33.85.81-1.39,1.19-3,.06-4.33-6.31-7.36-12.68-14.64-20-23Zm.17-131.78v61c6.94-7.93,12.91-14.81,19-21.62,1.81-2,1.8-4,.46-6.23C639.81,459.11,633.68,448.55,626.62,436.47Zm-256,70c-7.38,8.65-13.28,15.69-19.34,22.59a4.29,4.29,0,0,0-.57,5.58c6.32,10.69,12.69,21.33,19.91,33.43Zm136,138,.39,1.34c12.16,0,24.32,0,36.48,0,2.56,0,4.76-.78,5.44-3.3,2.28-8.48,6.69-16.34,8.23-26.91Zm51-255.13c-2.39-10.87-5.94-19-8.94-27.33-.8-2.21-2.53-3.07-4.81-3.07H506.68l-.22,1.22Zm-65.47-30.48H472.54c-24.4,0-24.4,0-31.37,23.21a4.85,4.85,0,0,0-.19.75c-.24,1.6-2.19,3.53,0,4.67.9.47,2.83-.62,4.09-1.34C460.08,377.46,475,368.77,492.11,358.82Zm-4.19,286.87.6-2.24L441,616.33l-1.5,1.36c2.93,8.32,5.83,16.65,8.83,24.94a4.11,4.11,0,0,0,4,3Q470.13,645.71,487.92,645.69Zm11.87,134.22,1,.15c4.93-14.11,10.12-28.14,14.71-42.36,5-15.61,7.79-12.88-9.88-16.36-3.94-.77-5.84.34-5.83,4.52Q499.83,752.89,499.79,779.91ZM497.14,224.7l-.92-.16q-7.56,21.56-15.12,43.12c-4.8,13.63-4.08,14.52,10.55,15.37,4,.24,5.56-.84,5.54-4.93C497.08,260.3,497.14,242.5,497.14,224.7ZM617.21,423.5l1.11-1.19Q609.16,406.6,600,390.93a3.82,3.82,0,0,0-4.52-1.95c-9,1.85-18.11,3.59-28.85,5.7ZM496,780l1.12-.21V732.18c0-11.34,0-11.34-11.06-9.85-.51.07-1,.08-1.53.13-5.1.58-7.55,2.57-5.52,8.27C484.87,747.1,490.4,763.57,496,780Zm5.71-552.42-1.95.15q0,24.84,0,49.67c0,3.9,1.93,5.69,5.73,5.29,3.29-.35,6.56-.86,9.83-1.39,3.72-.6,4.41-2.85,3.24-6.13Q510.16,251.38,501.75,227.58Zm93.79,388.11c2.42.8,4-.77,5.19-2.93,4.61-8,9.24-15.93,13.8-23.92.74-1.3,1.74-2.85.41-4.22-1.69-1.73-3.32-.14-4.88.52-4.23,1.79-7.51,5-11.77,7-8.56,4-16.58,9.09-24.78,13.81-1.27.74-3,1.47-2.92,3.21.11,1.9,2.06,2.18,3.47,2.46C581.07,613,588.12,614.3,595.54,615.69Zm-224.79-118c0-15.77,0-30,0-44.24,0-2.67-.86-5.27-3.68-6.15-3.42-1-4.27,2.13-5.51,4.15-3.58,5.88-6.88,11.93-10.47,17.82-1.56,2.57-1.44,4.58.61,6.85C357.75,482.88,363.69,489.74,370.75,497.73Zm7.72,82.46c5,13,13.28,22.21,18.21,33.21a3.86,3.86,0,0,0,4.51,2.11c7.55-1.31,15.11-2.54,22.64-3.91,1.23-.22,2.58-.92,2.6-2.43s-1.34-2-2.48-2.59c-2.94-1.45-6.19-2.47-8.77-4.39C404.09,594,391.47,588.44,378.47,580.19Zm.29-157.94,1,1.11q20-11.33,39.86-22.68a10.79,10.79,0,0,0,3.41-3c1.49-2.12,2.17-4.33-1.54-5-6.76-1.21-13.53-2.39-20.29-3.6-2.39-.43-3.76.74-4.9,2.73C390.5,402,384.62,412.12,378.76,422.25ZM256,638l.92.56c12.44-7,25.18-13.56,37.23-21.2,13.58-8.6,15-4.12,2.93-18.72a6.5,6.5,0,0,1-.44-.63c-2.09-3.07-4.07-2.25-6.1.1Q273.33,618.08,256,638Zm481.51,4.91.79-1.12c-14.18-8.1-28.54-15.91-42.46-24.43-5.88-3.6-8.72-2.54-10.47,3.7a42.26,42.26,0,0,1-1.62,4.31c-2,4.9-.92,7.27,4.84,8.24C705,636.39,721.25,639.78,737.55,642.92ZM260.11,362l-.54,1.42c12.34,7.15,24.77,14.15,37,21.48,11.56,6.92,14.09,5.92,17.21-7.26.81-3.41.08-5.34-3.58-6C293.5,368.41,276.81,365.16,260.11,362Zm476.13,2-.74-1.74c-16.23,3.11-32.45,6.19-48.67,9.34-2.62.51-4.05,2.24-3.66,5,.69,4.87,2.11,10.14,5.58,13.11,3.17,2.7,5.85-2.72,9.08-3.86a41.35,41.35,0,0,0,6.81-3.5Q720.47,373.13,736.24,363.93ZM740,366c-15.61,8.81-29.6,16.72-43.61,24.61-4.2,2.38-5.25,5.37-1.94,9.3,1.81,2.16,3.64,4.3,5.42,6.47,2.31,2.8,4.22,3.07,6.57-.22C716.21,392.5,729.61,381.87,740,366ZM260.89,640.58l.65,1.76q25.05-4.74,50.08-9.53c1.62-.31,2.94-1.33,2.44-3.23-1.36-5.17-2-11.35-6.34-14.35-3.1-2.15-6.69,2.49-10,4.15-2.29,1.14-4.46,2.52-6.67,3.8Zm474.82-4.68,1.39-2q-13-15-26-30.07c-8.64-9.93-8.54-9.82-16.56.72-3.19,4.18-3.32,6.81,1.78,9.47,8.39,4.38,16.49,9.32,24.76,14C725.93,630.71,730.84,633.27,735.71,635.9ZM294.38,408.26c3.84-2,5.95-5.88,8.73-9.17s2.7-5.21-1.56-7.51c-11-5.95-21.67-12.57-32.56-18.74-1.72-1-3.9-3.81-5.89-1.11-1.36,1.86.91,3.75,2.2,5.25q12.22,14.25,24.58,28.38C291,406.68,292,408.36,294.38,408.26Zm205.38,10.46c1.57,2.54-3.27,8.76,3.71,9,8.22.3,16.13-2.23,23.64-5.66,2.22-1,3.94-2.68,3.36-5.37-.55-2.52-2.47-3.6-5-4-5.27-.93-10.48-2.21-15.75-3.1C499.78,407.89,499.77,408,499.76,418.72Zm-2.6-.8c-1.45-2.66,2.92-9.34-3.56-9.13-8.25.26-16.46,2.81-24.62,4.71a4.84,4.84,0,0,0-3.37,4.7c-.07,2.31,2,2.79,3.57,3.45a77.15,77.15,0,0,0,17.39,5.49C497.16,429,497.16,429,497.16,417.92Zm0,167.42c-1.36-2.65,3.06-9.31-5.07-8.56a65.58,65.58,0,0,0-21.38,5.3c-2,.93-4.83,1.67-4.19,4.58.52,2.38,1.68,4.75,4.8,5.28,5,.84,10,2,15,2.94C497.13,596.86,497.13,596.82,497.12,585.34ZM373.64,496.58c5-3.43,7.68-7.54,10.89-11.12,2.1-2.35,3.65-4.73,2.37-8.25-4.28-11.82-8.36-23.71-13.26-37.68Zm.23,68.21,13.39-38.59a4.22,4.22,0,0,0-.68-4.34c-3.88-4.59-7.79-9.14-12.71-14.89ZM623.26,442l-.84-.12q-6.07,17.4-12.16,34.79c-.68,1.95-1.78,4.08-.19,5.82,4.18,4.56,7.31,10.17,13.19,14.23ZM499.79,585.82c0,10.26.13,10.74,4.86,10,7.32-1.12,14.56-2.66,21.82-4.14a5.11,5.11,0,0,0,4.38-4.69c.24-2.59-1.93-3.37-3.79-4.21-5.59-2.52-11.29-4.65-17.48-5.33C499.78,576.4,499.79,576.31,499.79,585.82ZM616.72,432.7l-.1-1.46c-8.08,0-16.16,0-24.24,0-20.46.07-15-1.62-10.69,15.42,1,4.07,3.07,4.44,6.61,2.33C597.68,443.4,607.24,438.11,616.72,432.7Zm6.09,131.18V508.12c-6,3.61-6.48,11-12.45,13.8-1.75.81-1.08,3.19-.47,5ZM580.06,547.1c.9-.55,2.18-.85,2.45-1.55,3-8.07,7-16,7.81-24.61.29-3.08-1.38-7.32-6.78-3.6-6.44,4.44-11.53,10-16.18,16.14-1.31,1.72-2.51,4-.54,5.47C570.91,541.92,575.44,544.3,580.06,547.1Zm-25.62,21c-.19,1.68-1.14,3.72,1.08,4.71a5.4,5.4,0,0,0,6.37-1.26c3.19-3.32,6.42-6.63,9.31-10.21,10.72-13.2,11.13-8.17-3-17.22-4.42-2.83-6.87-1.52-8.67,3.17C557,554.07,554.87,560.87,554.44,568.14Zm-.3-133c1,5.27,1.55,10.65,3,15.78,3.78,13,8.6,14.13,18.92,4.79,1.7-1.53,3.07-3,1.25-5.12-5.18-6-10.4-12-15.73-17.83-1.74-1.91-4.23-1.74-6.45-1C553.68,432.3,554,433.84,554.14,435.12Zm36.69,47.48c-1.13-3.29-2.45-7.15-3.78-11-5.25-15.17-5.15-15-19-6.82-2.88,1.7-3.15,2.79-1.5,5.16a70.11,70.11,0,0,0,17.07,17.29C587.22,489.78,590.72,487.62,590.83,482.6ZM378.42,573.41h27c15.67,0,15.67,0,10.12-14.72-.18-.48-.34-1-.49-1.45-1.07-3.3-2.89-3.55-5.77-1.83C399.68,561.11,390,566.65,378.42,573.41Zm4.43-142.12c-.16.81-.33,1.63-.49,2.45,9,5.2,18,10.48,27.14,15.57,3.81,2.14,5.41-.91,5.89-3.65.83-4.7,5.74-8.75,2.45-14.1-.18-.28-1-.26-1.48-.26Q399.61,431.27,382.85,431.29ZM499.77,640c4.05-4,4.37-8.64,7.44-11.91s4.87-7.75,7.21-11.71c7.17-12.12,7-12.38-6.84-14.22a4.78,4.78,0,0,1-.76-.08c-5.28-1.59-7.36.1-7.15,5.84C500,618.12,499.77,628.34,499.77,640Zm-3.94-1,1.33-.37v-25c0-12.9-2.73-14.69-14.71-9.86-3.55,1.43-5,3.61-3,7.11C484.87,620.28,490.37,629.63,495.83,639Zm-89-158.42c-.72,3.95,0,6.1,1.79,7.76,1.35,1.3,2.86.53,4.12-.44A91.23,91.23,0,0,0,430.27,470c1.75-2.37,1.31-4.19-1.3-5.6-3.36-1.82-6.68-3.72-10-5.58-2.2-1.23-4.1-.88-5,1.53C411.32,467.51,408.84,474.76,406.79,480.58Zm93-117.09v26.45c0,15,1,15.75,15.28,10.54a8.7,8.7,0,0,1,1.43-.57c3.34-.57,3.41-2.23,1.87-4.82C512.49,385.26,506.74,375.38,499.76,363.49ZM614.22,573.26c.15-.66.31-1.32.47-2-8.42-5-16.8-10-25.27-14.89-2.32-1.33-5.33-3.6-7,.49-2,5-5.13,9.88-4.24,15.7,0,.32,1.36.64,2.08.64C591.6,573.27,602.91,573.26,614.22,573.26ZM442.34,567c-.65-3.37-1.24-7.68-2.31-11.86-3.55-14-7.56-15.27-18.91-6.42a5.47,5.47,0,0,1-.63.44c-2.4,1.41-2.22,3.36-.71,5.13,5,5.82,10.06,11.54,15.16,17.24a5.27,5.27,0,0,0,5.61,1.62C443.36,572.24,442,569.76,442.34,567Zm54.8-201-1.38-.5c-4,7-8.06,14-12,21.07-8.15,14.4-7.67,15,9,16.17,3.61.25,4.45-.63,4.42-3.9C497.07,387.89,497.14,376.94,497.14,366Zm13.14,270.74c.27.41.54.82.8,1.23l44.71-25.7c-5.79-2.83-11.3-2.43-16.42-3.75-3.33-.86-5.78.4-8,3.11C524.47,620.1,517.33,628.38,510.28,636.74Zm-68.55-196.3c0-3.83,1.46-7.15-2-8.62-3.77-1.6-5.4,1.92-7.39,4.05-2.61,2.79-4.93,5.85-7.51,8.68-6.52,7.14-6.54,7.09.93,12.73,1,.75,1.6,2,2.58,2.77,3.42,2.7,6.18,2.94,8.44-1.69A53.32,53.32,0,0,0,441.73,440.44Zm176.66-2.95c-.41-.46-.82-.91-1.24-1.36-9.21,5.37-18.43,10.71-27.62,16.12-2.76,1.63-3.48,4-.83,6.16,3.92,3.17,5.21,9.44,11.4,9.81.53,0,1.21-1.53,1.72-2.4Q610.12,451.66,618.39,437.49ZM378.63,567l1.16,1.27c9.46-5.42,18.93-10.8,28.35-16.29,2.92-1.69,2.15-4.07.09-5.61-4.1-3-4.84-9.84-11.3-10.07-.44,0-1,1.1-1.38,1.75Q387.07,552.53,378.63,567ZM565.37,399.36c1.85,5.22,3,8.35,4.07,11.47,1.31,3.65,2.43,7.37,7.09,8.22,11.69,2.15,23.36,4.4,35,6.61C597,416.35,582.93,406.66,565.37,399.36Zm51.94,169.06c.33-.43.65-.87,1-1.31-5.43-9.5-10.84-19-16.32-28.49-.84-1.47-2.23-4.11-3.85-2.56a122,122,0,0,0-10.92,12.72c-.92,1.16.12,2.42,1.31,3.11Q602.9,560.17,617.31,568.42ZM409.38,515.35c-2.28,2.33-4.24,4.34-2.9,8,1.78,4.77,3.63,9.55,5,14.45,1.17,4.31,3.93,7,8,6.89a13.9,13.9,0,0,0,10.9-6.27c2.08-3.3-1.88-5.85-3.77-8.42-3.83-5.22-9.27-8.68-14.18-12.72A33.62,33.62,0,0,0,409.38,515.35Zm20,89.83,1.63-1c-2.49-6.09-1.88-15.07-8.68-17.4-11.55-3.95-24-5.33-36-7.79l-.54,1.61Zm10.81-212.32c5.4,1,9.09,1.66,12.77,2.37s7.75,2.46,10.88-1c8.24-9.12,16.28-18.43,24.41-27.66l-.77-.67Zm126.32,212.3c16.1-7.72,30.39-16.42,44.92-25.07-.6-.53-.82-.85-1-.82-8.53,1.54-17.08,3-25.59,4.68C570.69,586.68,569.19,588.38,566.48,605.16Zm-57-239.32-.73,1c6.73,7.66,13.83,15,20.06,23.07,4.64,6,9.7,7.57,16.64,5.15,2.24-.78,4.71-1,5-3.83.24-2.55-2.15-3.22-3.86-4.21Q528.09,376.41,509.53,365.84ZM388.57,425c8.68-1.62,17.3-4,26.05-4.65,9.78-.74,12.65-7.07,14.77-14.76.39-1.41,1.32-3.05-.14-4.29s-2.93-.19-4.22.53C412.62,408.79,399.86,415.19,388.57,425Zm-8.81,11.22c4.33,10.53,9,20.2,15.42,28.83.89,1.18,1.59,3.51,3.13,2.82,4.58-2.05,7.47-6.12,9.85-10.34,1.94-3.45-1.38-5.34-3.46-6.64C396.53,445.75,388.09,441.05,379.76,436.2Zm78.71,172c-4,.76-7.77,1.32-11.48,2.26-2,.5-4.75,2.11-1.61,4,11,6.53,22.28,12.62,33.57,18.65,1.43.76,3.63-.6,2.13-2.41-6.15-7.46-12.6-14.69-19.1-21.85C461.32,608.13,459.55,608.41,458.47,608.24Zm274.19,37.55.09-.58c-15-2.85-29.94-5.57-44.86-8.61-4.58-.93-6.76.32-7.18,5-.47,5.35,3.43,4.1,6.17,4.12C702.14,645.84,717.4,645.79,732.66,645.79Zm-468.23-287,.05.6c14.78,2.82,29.59,5.55,44.34,8.54,4.32.88,7.08.22,7.56-4.65.55-5.64-3.6-4.45-6.7-4.46C294.6,358.79,279.51,358.83,264.43,358.83ZM565.87,391c2.79-.42,4.56-.63,6.31-1,4-.76,8-1.6,12-2.39,13-2.56,12.85-2.45,6.14-13.42-2.21-3.61-4.19-4.13-7.16-1.46C577.15,378.19,570.3,382.84,565.87,391Zm166.8-31.61-.07-.56H686.27c-3.2,0-6.32-.23-5.48,4.78.65,3.91,2.4,5.24,6.23,4.49C702.23,365.16,717.45,362.29,732.67,359.4ZM566.07,613.49a52.67,52.67,0,0,0,10.66,13.31c9.85,9.29,12.89,8.57,18-3.83,1-2.47,1.23-3.66-1.8-4.22C584.43,617.18,575.93,615.43,566.07,613.49Zm-4.58-225.43c5.19-8.68,6.81-17,7.15-25.63.08-2.05-.51-3.46-2.94-3.44-3.3,0-6.61-.13-9.91-.05-3.09.07-4.07,1.88-3.1,4.63C555.43,371.38,558.28,379.16,561.49,388.06Zm69.47,117c.08,1.05-.08,1.7.18,2,3.65,4.3,7.32,8.59,11.08,12.8,7.78,8.7,8.31,8.61,13.62-2.12,1.17-2.36,3.74-5-.67-6.86C647.45,507.62,639.7,504.49,631,505.06Zm-263.1-4.9c-4.61-5.42-8.18-9.91-12.05-14.13-9.26-10.09-10-9.9-15.87,2.3-1.26,2.64-1,4.12,1.78,5.35A72.74,72.74,0,0,0,367.86,500.16Zm67.71,116.58c-3.69,6.17-6,12.58-6.64,17.66-1.32,10.91.67,12.82,11.42,11.4,3.19-.42,4.8-1.46,3.6-4.9C441.22,633.06,438.51,625.21,435.57,616.74Zm-10.92-2.11c-4.24.76-8.29,1.35-12.29,2.22-13.35,2.89-13.58,3.69-5.4,14.5,1.68,2.21,3.11,3.34,5.6,1.39,5.23-4.1,10.84-7.79,14.27-13.78.62-1.07,1.87-2,1.07-3.37S425.69,614.61,424.65,614.63Zm-162,31.16c16.64,0,31.77.06,46.89,0,3,0,7.27,1.43,6.62-4.48-.56-5-3.29-5.45-7.55-4.57C293.78,639.77,278.94,642.58,262.61,645.79Zm104.9-141.18a58.89,58.89,0,0,0-25,5.91c-2.63,1.23-4.81,2-1.45,5.16,1.47,1.41,1.59,4.19,2.45,6.29,1.87,4.61,4.18,6.21,8,1.49C356.45,517.35,361.67,511.46,367.51,504.61Zm194.25,111c-3,8.44-5.21,14.87-7.49,21.28-3,8.51-2.7,8.57,6.64,8.87,6.52.21,8.71-1.52,7.48-8.4A83.64,83.64,0,0,0,561.76,615.58ZM431.22,391.17c-5.85-8.54-12.16-14-18.77-19.18-2-1.54-3.66-1.65-5,.76-1.77,3.1-3.54,6.21-5.38,9.28-1.22,2.06-.91,3.3,1.61,3.78C412.3,387.46,420.93,389.16,431.22,391.17Zm-2.35-26.64c-.46,5.5.73,10.21,2.33,14.82.68,1.95,1.78,4,4.24,3.85,2.2-.11,2.6-2.19,3.18-3.85,1.53-4.35,3.17-8.67,4.46-13.09.6-2.05,2.94-4.84.49-6.31-4.11-2.47-9.05-1.24-13.5-.69C426.5,359.71,429.29,363.09,428.87,364.53ZM637.29,499.32c2.08-.16,5.29-1.61,8.74-2.21,12.2-2.12,13.58-6.29,6.44-16.37-2-2.81-3.59-3.39-5.92-.69-4.36,5-8.85,10-13,15.14C631.28,498,632.58,499.37,637.29,499.32ZM259.63,375.86l-1,.65c7.19,12.11,14.48,24.17,21.52,36.37,1.87,3.24,3.29,4.7,7,2.12,4-2.72,2.48-4.69.18-7.3C278.09,397.13,268.88,386.48,259.63,375.86Zm-1,252.36,1.12.58c9.33-10.84,18.59-21.75,28-32.49,2.65-3,1.57-4.59-1.08-6.72-3.21-2.58-4.79-1.39-6.52,1.62C273.11,603.58,265.87,615.89,258.67,628.22Zm229.79,142.9,1-.09c-4.7-13.39-9.32-26.82-14.16-40.17-1.72-4.73-6-5.28-8.9-1.44-2.17,2.84.31,4.87,1.45,6.85C474.6,748,481.57,759.51,488.46,771.12ZM489,234.47l-1-.44c-7.06,12.12-14,24.31-21.27,36.31-2.27,3.75-.14,4.85,2.47,6.41s4.67,1.65,5.84-1.79C479.67,261.45,484.34,248,489,234.47Zm20-.31-1.08.57c4.5,13,9.11,25.91,13.44,38.94,1.23,3.72,2.91,4.89,6.64,3.31,4.11-1.76,3.44-4,1.59-7.18C522.62,258,515.85,246.05,509,234.16ZM507.91,770l1.21.33q10.1-17.55,20.19-35.1c1.56-2.7,3.67-5.21-1-7.27-3.82-1.7-5.77-.32-7,3.19Q514.65,750.56,507.91,770Zm222.75-154.6c-5.2-8.83-10.21-17.76-15.72-26.37-1.63-2.55-3.57.28-5.16,1.26-1.78,1.11-3.72,2.47-1.69,4.83q9.23,10.83,18.67,21.48a3.87,3.87,0,0,0,2.7.8C729.82,617.37,730.16,616.26,730.66,615.38Zm-381,30.41c-8.18-4.27-15.38-6.82-21.44-11.46-2.4-1.84-5.23-.63-7.17.72-2.73,1.88-1.36,5.22-1.17,7.87.22,3.26,3.07,2.84,5.32,2.85C332.74,645.81,340.32,645.79,349.61,645.79Zm296.66,0c9.2,0,16.86,0,24.53,0,2.47,0,5.62.59,6.26-2.85.49-2.62,1.57-5.87-1.24-7.84a6.57,6.57,0,0,0-7.94-.12C661.68,639.45,654.78,642.64,646.27,645.77ZM347.66,359c-7.38,0-14.76,0-22.15,0-2.21,0-5-.73-5.62,2.41-.51,2.65-1.53,5.87.95,7.91,2.14,1.76,5.13,2.83,7.78.81C334.52,365.58,341.22,362.59,347.66,359Zm382,29.14-1.86-1.2c-6.12,7-12.11,14.23-18.44,21.09-2.92,3.16-2.25,5,.83,7.33,3.93,3,5.68.46,6.81-2.61,1.44-3.91,4.06-7,6.08-10.54C725.62,397.7,729.06,393.5,729.63,388.11ZM698,445.16c4.29-7.15,8.61-14.29,12.86-21.48,1-1.72,1-3.44-.91-4.65-2.3-1.42-4.26-4.57-7.26-3.22s-3.9,4.59-4.1,7.76C698.16,430.66,699.15,437.82,698,445.16Zm-.67,112.93c.48,5.81.87,9.84,1.12,13.88s-.18,8.28.73,12.18c.58,2.45,1.92,6.73,6.25,4.08,3.07-1.87,8.49-2.78,4.55-8.81C705.8,573,702.15,566.28,697.33,558.09Zm-398.88,1.53c-3.83,6.86-7.69,13.7-11.45,20.6-1.07,2-2.43,4.22.67,5.79,2.14,1.09,3.77,4.35,6.54,2.72a8.84,8.84,0,0,0,4.17-7.68C298.6,574,297.88,566.85,298.45,559.62ZM648,358.87c7.23,3.85,13.59,7.07,19.76,10.61a7.57,7.57,0,0,0,8,.08c2.54-1.43,1.72-4.08,1.35-6.26-.58-3.39-3.12-4.42-6.24-4.43ZM298.81,445.16c-1.09-7.06-.32-13.93-.38-20.73a10.26,10.26,0,0,0-4.28-8.54c-2.27-1.67-4.08,1.16-5.81,2.48-3.45,2.63-1.42,5.77-.11,8.29C291.51,433,295.26,439,298.81,445.16ZM547.46,300.32q-4.86-8.37-9.74-16.75c-1.38-2.35-2.3-5.79-6-4.52-2.48.86-6,1.7-6.35,4.66-.29,2.72,1.73,5.46,4.5,6.61C536.05,292.89,541.09,297.21,547.46,300.32Zm-99,402.12L460,722.31c1.11,1.9,1.73,4.81,4.86,3.55,2.51-1,6.09-1.41,6.72-4.37a6.12,6.12,0,0,0-3.87-6.81C461.28,711.93,456,707.45,448.42,702.44Zm2.78-403.2c5.54-3.52,11.28-6.22,16.85-9.23,2.72-1.47,4.29-4.21,3.58-7-.76-3-4.41-3.09-6.87-4.21-3.2-1.45-3.79,1.65-4.82,3.48C456.86,287.76,455.29,294,451.2,299.24Zm93.94,408.54-1.52-1.4c-5,2.82-10.26,5.34-15,8.59-2.56,1.76-5.45,5-2,8.15,2.91,2.68,7,4.07,9.91-.28C539.71,718,542.3,712.82,545.14,707.78Zm-117.82-328c-.93-5.85-1.89-11-2.54-16.23-.32-2.55-.92-4.3-3.88-4.64-4.15-.49-6.71,1.35-8.53,4.87-1.48,2.86.44,4.07,2.28,5.54C418.74,372.56,422.76,376,427.32,379.73Zm142.32.4c4.68-4.32,8.49-8.05,12.55-11.48,1.83-1.55,3.87-2.46,2-5.41-2-3.17-4.54-4.64-8.28-4.35-3.11.24-3.47,2.29-3.79,4.75C571.5,368.69,570.64,373.71,569.64,380.13Zm-143.52,251c0-.42.83-2.14-.9-3.07a2.35,2.35,0,0,0-2,.44c-3.14,2.55-6.29,5.1-9.24,7.87-2,1.86-1.43,4.1-.2,6.27,1.62,2.85,4.15,3.39,7.15,3.12s3.7-2,3.89-4.61C425,638.1,425.57,635.1,426.12,631.1ZM576,645.61c5,0,7.93-1.73,8.32-6.39.16-1.84-9.78-11-11.75-11-2.51-.08-2.36,2.15-1.83,3.15C573.22,635.85,569.2,643.07,576,645.61Zm66.2-143.26c5,2,9.89,4,14.72,6,2.62,1.1,4.14.22,5.69-2,2.15-3.1,1.11-5.68-.37-8.49s-3.45-2.27-5.78-1.28C651.85,498.54,647.13,500.37,642.24,502.35Zm-287.31.07c-5.35-2.11-9.87-3.77-14.27-5.68-2.3-1-4.19-1.71-5.87,1-1.54,2.44-2.91,4.62-1.06,7.65,1.61,2.66,3.43,3.32,6.3,2.25C344.76,505.83,349.57,504.27,354.93,502.42Zm71.44,15.77c-2.62-10.21-1.41-19.59-1.47-29.7C415,501.78,415.1,503.7,426.37,518.19Zm22.45-71.32c9.1-6.47,16.76-11.78,26.94-15.07C457,430.35,457,430.35,448.82,446.87Zm98.91-.46c-8.16-16.49-9-16.92-25.76-14.17C531.24,435.16,538.7,440.08,547.73,446.41ZM450.06,559.08c7.85,15.71,7.85,15.71,26.21,13.51C466.07,569.82,457.87,564.87,450.06,559.08Zm70,14.3c20.81.07,22.45-.88,26.65-14.77C539,565.18,530.6,569.75,520.09,573.38Zm86.2-144.79-.24-.5c-9.06-1.77-18.11-3.56-27.18-5.29-1.63-.31-3.91-1.54-4.44,1.11-.46,2.25,1.17,3.91,3.41,4.37a27.29,27.29,0,0,0,5.36.29C590.9,428.6,598.6,428.59,606.29,428.59Zm-33.48,60.84v23.71C581.72,504,581.7,502.76,572.81,489.43Zm46.8,10.83c-1.56-4.42-4.72-6.38-6.84-9.13-1.34-1.75-2.43-4.84-4.81-4.31-2.64.58-2.53,4.05-3.54,6.3-1.39,3.11-.25,4.82,3,5.32C611.28,499,615.17,499.6,619.61,500.26Zm-13.14,76.31-.1-.56h-8.45c-6.14,0-12.28,0-18.41.1-2.89,0-5.51,1.45-5,4.44.51,3.16,3.34,1.15,5.07.86C588.54,579.89,597.5,578.2,606.47,576.57ZM390.6,428.05l.08.55H395c7.68,0,15.36,0,23-.08,2.82,0,4.66-1.86,4.35-4.3-.42-3.34-3-1.4-4.76-1.08Q404.13,425.62,390.6,428.05Zm60,.5c5,.43,7.36-2.62,7.71-6.75.28-3.31-2.79-4.92-5.67-5-4.21-.11-6.55,2.3-6.67,6.7C445.87,426.86,446.75,429.11,450.59,428.55Zm7.81,155.12c-2.34-2.4-1.08-7.61-6.29-7.58-2.78,0-6-.53-6.19,3.74s1,7.79,5.84,8.35C455,588.54,456.77,586.24,458.4,583.67Zm-74.68-84c2.63-2,9,1.3,8.82-5.05-.05-2.57-.29-8.6-4.05-7.54-4.31,1.22-7.33,6.34-9.17,10.74C378.4,500,381.76,499.28,383.72,499.64Zm6.91,76.4.26.69c8.52,1.5,17,3,25.55,4.45,2,.32,4.58.48,4.7-2.38s-2.52-2.73-4.51-2.74C408,576,399.3,576,390.63,576ZM378.2,506.19c3,3.75,5.5,6.94,8.11,10,.92,1.09,2.48,2.9,3.61,1a20,20,0,0,0,3-8.52c.19-2.58-3-2.21-4.81-2.69C385.22,505.28,382.24,504.34,378.2,506.19Zm242-1.22c-6,.32-12.18-1-15.66,3.22-2.24,2.72,1.18,6.82,3.38,10.74C612.2,514.11,616,509.83,620.23,505Zm-69.24,77c-.15-2.51.61-5.46-3.79-5.93-5-.53-7.22,2.72-8.13,6.24-.75,2.9,1.94,5.32,5.08,5.54C547.92,588,550.58,586.31,551,581.93Zm46.23-78.75c.08-4.26-2.5-6-5.69-6.45-3.7-.49-6,2.14-6.06,5.44-.09,3,1.49,6.61,4.94,6.63A6.56,6.56,0,0,0,597.22,503.18Zm-162.55,101,2-.06c1.24-4.41,5.05-8.62,2.7-13.37-1.72-3.47-6.06-2.58-10.19-2.63Zm-28-108.77c-3,1.82-6.8,2.19-7,6.5s2.57,6.08,6,6.48c3.91.45,5.29-3.08,5.68-5.91C411.79,499.27,409,497.31,406.68,495.4Zm154.54-96.9c-2.27,6.56-6.35,11.05-3.81,15.94,1.52,2.94,6.22,2.12,10.47,2C565.71,410.56,563.81,405.45,561.22,398.5Zm-15.25,30c3,.22,5.41-.33,5.09-4.48-.25-3.4-1.33-6.83-4.79-6.73-2.79.09-7.8,1.23-7.82,4.08C538.44,424.59,540.71,428.81,546,428.46Zm10.32-31.16c-3.77-.77-7.07.84-10.49,1.37-2.08.33-5.14-.26-5.29,3-.12,2.4,2.06,4,3.7,5.51,2.43,2.25,4.3.25,5.81-1.33C552.42,403.31,555.25,401.05,556.29,397.3Zm1.57,210.9c-3.53-4.28-5.58-6.83-7.71-9.32-1.54-1.8-3.3-3.59-5.73-1.44-1.87,1.65-4.54,3.25-4.43,5.87.13,3.25,3.44,2.17,5.46,2.62C548.87,606.7,552.35,607.21,557.86,608.2Zm10-20.21c-4.59.27-9.07-.36-10.51,3.35-1.82,4.71,1.2,8.86,4.24,13.76ZM436.35,399.72c-3.24,3.29-3.42,6.75-4.71,9.7-.87,2-2.76,4.62-.77,6.26,2.23,1.84,5.42.78,7.91-.45,2.86-1.42,1.32-4,.83-6C438.89,406.28,437.68,403.49,436.35,399.72Zm4.58,184.84c-1.86-3.51-4.13-6.59-7.66-8-2.14-.88-5.59-1.74-6.74,1.2s.85,5.6,3.92,6.25C433.69,584.67,437,587.08,440.93,584.56Zm158.41-90.31c3.45-3.24,3.88-7.14,4.69-10.72a5.2,5.2,0,0,0-3.64-6c-2.46-.72-2.77,2.43-3.68,4C594,486.44,596.88,490.08,599.34,494.25ZM555.92,584.6c4.32,2.31,7.9.1,11.32-.85a5,5,0,0,0,3.19-6.15c-.91-2.58-4.11-1.91-6.09-1.28C560.35,577.59,558.05,580.9,555.92,584.6ZM441.09,419.75c-4.51-1.64-8,.39-11.5,1.26a4.24,4.24,0,0,0-3.09,5.34c.64,2.5,3.08,2.3,5.06,2.14C436.92,428.06,438.51,423.69,441.09,419.75Zm25.5-22.68c6.59,1.64,13.69-7,17.22-20.41Zm75.09,196.48c-3.78-1.64-7.1-.18-10.15,1.4-2.27,1.17-3.48,3.63-3.92,6.18-.33,1.88,1.51,1.55,2.54,2,2.88,1.31,4.91,0,6.48-2.24C538.33,598.55,541.06,596.83,541.68,593.55ZM614.29,553l1-.23c-2.34-6.7-4.65-13.42-7-20.1-.67-1.84-.2-5.55-3.73-3.95-2.78,1.26-2.43,4-.85,6.58C607.31,541.15,610.77,547.09,614.29,553ZM555.73,419.86c2.36,2.86,4.06,5.42,6.26,7.43s5.28,1.46,8,1.09c1.28-.17,1-1.59.8-2.51-.68-2.91-2.08-5.18-5.43-5.5C562.45,420.09,559.67,418.1,555.73,419.86ZM441.24,398c.66,3.47,3.09,5.26,5.87,6.58,1.89.89,2.61,5.43,5.91,2.12,1.74-1.74,4.86-3.33,4-6s-4.44-1.69-6.83-2.22C447.26,397.83,444.35,396.66,441.24,398Zm-57,56.17-1.59.84c2.09,6,4.12,11.94,6.33,17.86.53,1.44.52,4.3,3,3.37s3.18-3.22,1.74-5.72Q389,462.28,384.25,454.12Zm13.3,40.31c3-4.19,3.67-8.1,2.54-12.18-.55-2-1.12-5.26-4.15-4.27a4.92,4.92,0,0,0-3,5.68C393.73,487.09,394.38,490.68,397.55,494.43Zm56,98.73c3.37,3.78,5.6,6.49,8,9a5,5,0,0,0,7,.14c2.29-2.08-.36-4.36-1.77-5.74C463.85,593.59,459.92,592.63,453.58,593.16Zm-56.8-83.25c-1.22,3.47-2.51,6.91-3.62,10.4a5.36,5.36,0,0,0,3,6.34c3.14,1.54,3.26-2.24,4.17-3.89C402.93,518,399.3,514.23,396.78,509.91Zm203.25-1c-3.18,4.22-4.2,7.91-4,11.62.15,2.58,1.17,6.22,4.74,5.52,3.09-.61,4-3.55,2.81-6.71S601.49,513.17,600,508.9ZM457.71,603.8c-2.42-3.08-3.82-7.49-7.36-7.51-3.14,0-5.4,3.48-5.37,7.09,0,2.22,1.28,4.17,3.91,2.88S455.35,606.94,457.71,603.8Zm13,2.22c-.58,10.26,8.17,14.34,13.25,20.9C479.89,619.76,477.17,611.74,470.74,606Zm-80.35-77.64q-4.49,12.21-8.95,24.43C385.55,545.08,394.55,539.17,390.39,528.38Zm139.74,79.87c-11.42.13-11.49,9.74-14.78,16.75Zm82.55-148.86c-5.48,2.77-7.22,7.64-9.75,12-1.37,2.35.18,4.16,2.09,5s2.44-1.29,2.91-2.64C609.57,468.93,611.1,464.15,612.68,459.39Zm-95.4-77.25-1.64,1.16L524,397.24c1.23,2.05,2.86,1.83,4.57.78,2.24-1.38.6-2.69-.29-3.71C524.69,390.2,521,386.19,517.28,382.14Zm8.91,21.42c7.13-1.29,4.72,3.55,6.25,5.75s5.43,3.08,9.39,1C537.42,406.14,536.17,398,526.19,403.56Zm-96,29.57c-9.93-2.23-7.41,5.92-9.26,10.66ZM579.9,648.41c-11.85.6-5.78,9.59-8,14ZM426.17,340.65c-2.84,4.8-4.67,7.8-6.41,10.84-.71,1.25-2.2,2.51-1.13,4,.4.57,1.85.57,2.82.56,2.19,0,3-1.41,3.24-3.44C425,349.4,425.49,346.16,426.17,340.65ZM394.24,645.73c4.67,0,8.21.1,11.73,0,1.8-.07,4.67.81,3.78-2.86-.71-2.93-2.84-2.54-4.86-1.73C401.65,642.41,398.47,643.88,394.24,645.73ZM576.16,443.86l.93-.78c-1.23-3.34-2.24-6.78-3.77-10a3,3,0,0,0-4.6-1.14c-1.71,1.28-.59,2.77.42,4C571.44,438.6,573.82,441.21,576.16,443.86ZM444.59,558.06c.62,5.41,1,8.7,1.37,12,.31,2.59,1.91,3.71,4.29,3,2.89-.88,1.3-2.93.56-4.33C449.17,565.57,447.27,562.59,444.59,558.06Zm41.3,41.42-.3-1.31c-3-.64-6-1.43-9-1.85-1.56-.21-4.1-1.46-4.47,1.17-.33,2.37,1.81,3.72,4.06,3.54C479.45,600.78,482.66,600,485.89,599.48Zm0-193.08-.15-1.37c-3.24-.48-6.48-1.15-9.74-1.39a3.33,3.33,0,0,0-3.69,3.19c.05,2.94,2.64,1.72,4.08,1.53C479.56,407.93,482.7,407.08,485.86,406.4Zm35.77,169.67-.07,1.13c3.67,1.07,7.31,2.23,11,3.18a2.73,2.73,0,0,0,3.54-2.14c.38-2.33-1.7-2.11-3.13-2.15C529.2,576,525.41,576.07,521.63,576.07Zm30.59-17.18a22.16,22.16,0,0,0-5.37,10.34c-.35,1.42-3,3.12.39,3.9,1.93.45,3.45-.61,3.71-2.81C551.36,566.83,551.73,563.34,552.22,558.89ZM421,560.55l-1.44,1c1.44,3.41,2.75,6.9,4.4,10.21a2.62,2.62,0,0,0,3.9,1c1.43-1,.51-2.46-.12-3.35C425.63,566.35,423.28,563.48,421,560.55Zm172.28-81.07c6.39-9.13-2.83-11-5.27-15.29C589.62,468.82,591.21,473.44,593.29,479.48ZM476.21,576.09c-5.19,0-8.19-.09-11.19,0-1.58.07-3.83-.88-4.31,1.69a3.81,3.81,0,0,0,1,2.72c1.6,1.86,3.14.39,4.7-.3C469,579.12,471.5,578.08,476.21,576.09Zm44.3-147.78c4.64,0,8.41.06,12.17,0,1.38,0,3.32.73,3.8-1.36.18-.8-.49-1.94-1.05-2.73-1.15-1.63-2.58-.84-4-.25C528.17,425.29,524.89,426.56,520.51,428.31Zm4.25-20.06c-3.1-6-5-6.21-14.94-1.09C515.92,406.44,520,409.41,524.76,408.25ZM424.69,659.48c0-3,.06-5.26,0-7.49-.07-2-1-3.39-3.18-3.43-.95,0-2.36,0-2.8.54-1.13,1.5.34,2.82,1,4C421,655.22,421.68,657.74,424.69,659.48ZM573.52,344.84l-1.62,1c1.6,3.56-2.86,11,7.78,10.12Zm-99.34,83.65.06-1.15c-3.35-1.18-6.67-2.53-10.08-3.49-1.71-.48-3,.71-3.21,2.46s1.19,2.12,2.48,2.15C467,428.55,470.59,428.49,474.18,428.49Zm37.08,169.84c3.46,1.63,6.5,3.19,10,2.63,2-.31,3.74-1.2,3.69-3.2-.07-3.07-2.68-1.71-4.09-1.51C517.59,596.7,514.44,597.6,511.26,598.33Zm91.42-239.39c-4.34,0-8.12-.09-11.89,0-1.51,0-4.15-.88-3.68,2.14.38,2.42,2.4,3.22,4.65,2.36C595.28,362.15,598.71,360.61,602.68,358.94ZM409.38,542.28c-1.73-5.28-2.66-8.69-4-11.93-.55-1.34-.6-4.39-3.11-3.1-2.16,1.1-2.85,3.55-.91,5.82C403.51,535.58,405.69,538,409.38,542.28ZM549.83,442.09l1.47-.31c-.11-2.49-.1-5-.38-7.48-.35-3.2-3-3.56-5.11-2.8-2.9,1-.5,2.91.15,4.19C547.07,437.92,548.52,440,549.83,442.09Zm-96.41-10.82c-10.23-.14-6.9,6.21-7.73,11.31C449.71,439.64,450.38,435.75,453.42,431.27Zm-60.2-72.41c5.49,1.95,9.21,2.76,12.51,4.82,2.14,1.34,3.3-.35,3.78-2.28.57-2.29-1.12-2.5-2.71-2.52C403,358.83,399.16,358.86,393.22,358.86ZM674.08,517.93c-1.8-3.07-3.21-5.66-4.79-8.13-.91-1.42-1.95-3.43-3.94-1.13-1.38,1.58-1.44,3.23.52,4.47C668.31,514.7,670.11,517.34,674.08,517.93Zm-.5-30.47-.8-1.09c-2.58,2-5.29,3.85-7.7,6-1.46,1.32-.51,2.87.71,3.91,1.43,1.23,2.25.06,3-1.06C670.36,492.67,672,490.06,673.58,487.46Zm-97.75,30,1.09.72c1.83-1.39,3.68-2.74,5.46-4.18,1.31-1.05,3.61-1.62,2.56-4-.37-.84-1.35-1.92-2.1-2-1.78-.11-2.38,1.65-3.16,2.93C578.36,513.05,577.11,515.24,575.83,517.42ZM322.65,486c2.07,3.72,3.34,6.23,4.84,8.6.7,1.1,1.31,3.29,3.3,1.81,1.45-1.08,1.18-2.82.2-4.16C329.17,489.71,326.77,487.84,322.65,486Zm98,31.75c-2-3.4-2.62-7.7-6.27-9.92-.15-.1-1.75,1.28-1.71,1.92C413,514.45,416.91,516,420.69,517.72Zm172.64,8.61c-1,3.26-4.27,5.7-1.57,9.07.84,1.06,2.22-.57,3.08-1.42C597.7,531.12,597,528.78,593.33,526.33Zm-19.22,42.61c0-1.36-.41-2.88-1.94-2.49a7.22,7.22,0,0,0-5,5.17c-.49,1.64,1.37,1.68,2.59,1.63C572.45,573.14,573.73,571.48,574.11,568.94Zm3.54-80.74c1.11,3.37,1.69,7.08,5.39,8.49.36.14,1.88-1.23,1.89-1.92C585.05,490.12,580.29,490.3,577.65,488.2Zm13.84,157.45c1.47-.38,4.24.8,3.64-2.14-.42-2-2.86-2.65-4.83-3a2.9,2.9,0,0,0-3.43,3.12C587,646.55,589.77,645.28,591.49,645.65ZM417.73,492.55c.44-1.3.26-2.51-1-2.38-2.28.24-4.47,1.15-4.89,3.79a2.44,2.44,0,0,0,1.88,2.89C416.87,497.2,416.6,494.05,417.73,492.55Z" transform="translate(-171.84 -139.02)"/><path d="M539.15,158l-.51.36-.53-.32Z" transform="translate(-171.84 -139.02)"/><path d="M539.6,737.57H539l0-.63Z" transform="translate(-171.84 -139.02)"/></svg>