<svg id="Layer_1" data-name="Layer 1" xmlns="http://www.w3.org/2000/svg" viewBox="0 0 587.67 351.57"><path d="M303.54,512.94q-37.73,0-75.45,0c-4.87,0-10.25.44-12.89-4.77s1.14-9.28,4.19-13q40-49,80.1-97.95c6.14-7.52,12.13-6.81,18.21.06C344,427,370.54,456.6,396.64,486.56c6.35,7.28,10.11,8.21,16.27-.58,34.7-49.47,69.92-98.57,105-147.78,9.65-13.54,13.54-13.73,23.33-.7,19.73,26.27,39.72,52.37,58.72,79.16,6.55,9.24,11.4,9.53,20.35,3.4,36.8-25.2,74.08-49.71,111.2-74.46,4.28-2.85,8.67-7.65,14-3.26,6.15,5,1.61,10.39-1.13,15.14q-37.57,65.4-75.32,130.7c-6.33,11-5.87,11.61,7,11.81,37.31.57,74.61,1.06,111.91,1.68,4.68.08,10.4-1.49,13.05,4.05,2.84,6-1.8,9.87-5.27,13.73q-32.12,35.74-64.39,71.35c-9,9.92-12.67,9.62-20.85-1.35-16-21.45-31.87-43-47.86-64.43-8.18-11-8.51-11-15.18.53q-40.6,70-81.12,140c-10.37,17.85-13.12,18.2-26.9,2.78-30.26-33.88-60.54-67.73-90.33-102-6.31-7.27-10.72-8.27-18.9-2.62-33.68,23.27-67.85,45.84-101.9,68.58-4.54,3-9.52,8.34-15,2.76s-.32-10.54,2.87-15c23.08-32.36,46.29-64.62,69.35-97,1.75-2.46,5.64-4.83,3.65-8.25-1.85-3.17-5.95-1.61-9-1.63-25.56-.11-51.11-.06-76.67-.06Zm264.54,2.19v-.2c-3.24,0-6.52.35-9.71,0-35.74-4.43-67.78,2.69-95.49,27.43-7,6.28-7.92,8.77-1.66,15.65q42.54,46.71,84.1,94.32c5.72,6.55,8.37,6.76,12.74-.94q36-63.42,72.64-126.44c4.28-7.36,3.11-9.95-5.49-9.85C606.17,515.28,587.13,515.13,568.08,515.13ZM420.77,499.24c26.82,0,50.71,0,74.6,0,4.73,0,8.59-1.89,12.36-4.41,27-18,53.86-36.13,81-53.87,5.9-3.86,6.36-7,2.2-12.49-18.65-24.52-37.21-49.11-55.39-74-4.7-6.43-7.18-5.56-11.29.34-11.11,16-22.72,31.59-34.06,47.4C467.57,433.82,445,465.4,420.77,499.24Zm-33.47-1.76c-24.79-27.57-49.16-54.54-73.34-81.69-4.86-5.46-8-3.25-11.56,1.18-12,14.8-24.1,29.47-36.1,44.24-9.08,11.16-18.06,22.4-29.23,36.27ZM717.09,375.19l-1.44-1.42Q669,404.91,622.29,436c-4.07,2.71-3.49,5.59-.83,9.1q12.79,16.94,25.28,34.1c3.91,5.35,7.3,5.91,10.76-.35,3.13-5.66,6.43-11.23,9.65-16.83Zm62.33,140c-34.43,0-64.74,0-95,0-7.21,0-9,2.13-4.29,8.33,12.4,16.48,24.58,33.13,36.91,49.66,2.09,2.8,4.19,7,8.36,2.38C742.59,556.39,759.74,537.18,779.42,515.2ZM532,496.74l.66,2.69c34.53,0,69,.07,103.58-.07,5.24,0,4.85-3.2,2.43-6.46q-15.15-20.46-30.39-40.83c-2.39-3.19-5.11-3.3-8.37-1.09Q566,473.92,532,496.74ZM351.25,596.3l1.54,1.78c18.82-12.52,37.7-25,56.45-37.59,22.78-15.33,22.58-15.24,3.17-34.74-4.7-4.71-7.35-4.84-11.19.6C384.7,549.76,367.93,573,351.25,596.3Zm123.81-79.92c-.4-1.1-.8-2.2-1.21-3.3-11.58,0-23.16-.2-34.74.1-4.64.12-11.66-2.54-13.43,1.65-2.13,5,4.65,8.48,8.1,12,4.1,4.18,7.19,12.23,15.5,6.9C458,528.14,466.47,522.18,475.06,516.38Z" transform="translate(-214.29 -327.88)"/></svg>