<svg id="Layer_1" data-name="Layer 1" xmlns="http://www.w3.org/2000/svg" viewBox="0 0 287.02 414.55"><path d="M476.35,528c10.5-31.84,22.32-62.37,39.38-90.8,33.85-56.4,79.95-100.08,137.08-132.2,5.45-3.07,13.68-11,18.54-1.62,4.5,8.72-6.44,10.32-11.71,13.43C573.87,367.52,514.15,438,491.55,537c-7.31,32-8.76,64.53-5.8,97,3.76,41.31,40.89,61.49,79.18,58.21,38.68-3.3,63.05-35.76,58.06-74.24-3.55-27.37-13.47-50.5-41-61.76-17.63-7.19-34.13-4.26-48.33,7.94-14.74,12.65-21.12,29.46-17.42,48.55,4.11,21.22,35.91,32.54,53.62,19.94,8.17-5.82,9.62-17.68,3.44-28.27-4.81-8.26-13.47-10.32-23-5.34a43.32,43.32,0,0,0-4.92,3.47c-3.8,2.77-7.91,5-11.6.36-3.3-4.14-.12-7.54,2.51-10.58,10.32-11.92,30.88-13.88,42.53-3.43,11.49,10.32,14.53,24.15,11.28,38.57-3.19,14.14-14.41,20.81-27.89,23.26-22.67,4.11-44.39-4.33-54.07-20.43-11.21-18.65-7.88-48.36,7.61-67.78a62.72,62.72,0,0,1,75-18c53.64,24.05,63.89,111.41,16.44,146-28,20.39-59.15,21.5-90.23,7.35-29.26-13.32-43.14-36.65-45.77-69.19C464.7,547.9,459,467,435.66,388.69a267.09,267.09,0,0,0-19.91-49c-5.92-11.18-13.39-20.94-24.41-27.59-4-2.4-7.92-5.19-4.84-10.42,2.81-4.8,7.39-3.92,11.72-2a43.61,43.61,0,0,1,15.17,11.6C430,330.12,439,352.84,446.56,376.22c15.44,47.55,23,96.68,29,146.1C475.79,524.22,476.09,526.1,476.35,528Z" transform="translate(-385.39 -292.72)"/><path d="M506.31,320.62c8.55,1.54,19.1-5.73,22.84,4.05,4.22,11-10.74,11.88-14.42,19.83,5.72,4,15.57-2.89,18.88,5.95,3,8.14-7,9.56-9.64,15,11.85,6.07,12.5,8.46,4.38,19.39-6.69,9-13.67,17.81-20.63,26.63-2.63,3.32-6,6.06-10.27,3.2-4.83-3.21-3.69-7.53-.87-11.51,3.68-5.17,7.56-10.2,11.48-15.45-4.25-3.48-8.12-1.43-11.8-.83-3.95.66-7.41.05-9.35-3.58-2.36-4.42.3-7.47,3.49-10.35,3.44-3.11,8.34-4.79,10.39-10.31-6.86-1.24-17,4.91-19.35-4.07-3.1-11.84,12.09-13,16.66-21.91-4.71-3.59-17.19,2.09-15-9.49,1.17-6.06,6.78-11.26,10.75-17.43-10-2.66-18.26,1.15-26.74,2.66-5.17.93-10.19,1-11.49-5.18-1.17-5.62,3.52-7.76,7.87-8.83,26.89-6.61,53.84-8.57,80.63.48,4.69,1.58,11.43,2.9,8.74,10.19-2.21,6-7.57,4.17-12.39,2.72-4.59-1.38-9.4-2-14-3.27C516,305.6,509.73,309.65,506.31,320.62Z" transform="translate(-385.39 -292.72)"/></svg>