<svg id="Layer_1" data-name="Layer 1" xmlns="http://www.w3.org/2000/svg" viewBox="0 0 535.01 529.93"><path d="M422.88,491.13c29.57,4.7,54,14.9,74.57,33.28,5.11,4.57,10.44,3.14,15.91.4,18.86-9.46,31.45-25.3,42.35-42.5,11.77-18.58,21.7-38.38,34.17-56.45,16.34-23.7,35.28-45.16,63.16-56.27,31.69-12.63,63.59-5,86.26,20.46,22.28,25,32,55.44,37.31,87.47,9.81,58.66,1,114.11-31.82,164.45-16.13,24.76-37.09,44.3-68.47,46.39-45.82,3-83.81-31.8-86.88-79.07-.64-9.85-5-23.85,2.5-28.62,6.27-4,11.28,10.47,17.67,16,35.63,30.71,76.64,25.73,103.2-13.39,24.1-35.5,29.19-74.72,21.86-116.21-1.48-8.38-5.09-15.95-9.53-23.05-14.28-22.87-41.25-26.43-61.14-8.32-10,9.13-16.18,20.68-21.44,32.92-6.78,15.75-11.95,32.36-21.82,46.56-20.69,29.77-48.08,44.49-85.14,36.08-4.21-1-8.52-1.53-14.07-2.51.58,9,5.85,15.13,9,21.93,21.83,47.1,15.34,97.22-17.35,131.63-48.83,51.42-132.72,55.57-187.11,9.87-46.52-39.09-66.75-91.53-77.67-149a151.29,151.29,0,0,1-2.46-15.64c-.3-3.7-2.05-8.79,2.7-10.52,5.26-1.93,6.28,3.6,8,6.79,8.36,15.5,16.09,31.34,24.8,46.63,13.13,23.06,28.43,44.71,48.52,62.23,26.85,23.42,57.36,36.84,93.53,26.05,27.8-8.29,49.17-24.87,54.05-55.42,5.15-32.23-11.35-55-36.31-72.44-19-13.24-40.14-19.72-63.6-15.93-7.43,1.21-12.56-1-16-8.19C353.76,510,345.7,493.37,337,477c-5.14-9.68-1-12.58,7.85-13.43,15.75-1.53,31.55-2.58,46.92-6.85,13.31-3.69,25.74-9,36.54-17.78,21.69-17.6,20.61-44.1-2.57-59.82-19.58-13.28-40.58-12.25-62.1-5.89-21.8,6.44-41.25,17.64-59.93,30.17-8.1,5.44-13.32,5.14-17.46-4.18-5.73-12.85-11.82-25.55-17.73-38.32-2.58-5.59-2.05-10.16,4.1-13.16,48.75-23.83,98.65-40.52,153.88-25.71,20.25,5.43,36.67,16.91,50.64,32,19.8,21.43,22.39,45.73,11.35,72.28C476.71,454.82,462.72,469.21,422.88,491.13Z" transform="translate(-245.38 -213.9)"/><path d="M568.11,358.12c-41.93,1.39-71.22-21.75-94.17-55.56-4.92-7.26-9.07-15.06-13.29-22.77-1.35-2.46-4.29-5.79-.92-8.19s5.57,1.34,7.42,3.49a93.33,93.33,0,0,0,39.59,27.48c17.92,6.54,34.57,4.21,50.71-4.75,20.58-11.42,38.29-26.57,54.37-43.56,7.16-7.57,11.32-7.74,15.86,2.44,8.06,18.06,17,35.72,25.66,53.51,2.44,5,4.69,9.94-1.29,13.9C626.82,340.87,602.47,359.81,568.11,358.12Z" transform="translate(-245.38 -213.9)"/><path d="M545.77,295.49a12.73,12.73,0,0,1-9.35-3.7q-13.45-12.68-26.8-25.45c-5.51-5.25-4.89-10.73-.66-16.46,7.58-10.26,15.18-20.52,22.54-30.94,4.24-6,8.87-6.57,14.42-2.08,10,8,19.37,16.61,27.33,26.69,2.86,3.63,5.13,7.7,2.28,12.07q-12.25,18.78-25.14,37.12C549.29,294.32,546.79,294.91,545.77,295.49Z" transform="translate(-245.38 -213.9)"/></svg>