<svg id="Layer_1" data-name="Layer 1" xmlns="http://www.w3.org/2000/svg" viewBox="0 0 183.06 671.3"><path d="M554.62,311.11c-30.62,2-59.59-1.08-87.9-10.81a133.16,133.16,0,0,1-32.86-16.15c-2.29-1.59-4.85-3.54-3.23-6.52,1.77-3.25,4.86-1.55,7.14-.32,52.87,28.58,106.45,23.71,160.38,3.53,5.33-2,11.44-3.56,14.18,3,3.22,7.65-3.32,9.62-8.82,12.35-29.6,14.7-54.45,35.76-77.82,58.78-6.93,6.83-5,9.76,3.62,12.55,14.26,4.62,28.05,10.54,38.61,21.93,17.35,18.72,19,40.51,3.12,60.3-5.86,7.31-5.63,12.53-1.68,20.53,15.1,30.54,14.79,61.25-2.49,91-3.66,6.29-3.68,11.19-.91,17.63,10,23.16,8.67,46-4.06,67.85-3.13,5.35-3.82,9.46-.4,14.89,6.91,11,9.28,23.6,10.7,36.25,1.8,16-3.64,29.45-16.36,39.62-5,4-10,7.8-15.23,11.43-23.06,16.06-29.34,37.76-22.68,64.43,1.27,5.09,6.69,13.73-.18,15.61-7.95,2.17-7.57-8-9-13.47-8.25-31.5.51-56.63,27.14-76.35,27.2-20.14,31-35.9,19.46-65.3-3.17-8.1-6-10.23-14.62-5.47-24.13,13.29-49.25,14.1-74.4,2.18-6.41-3-11.74-7.21-11.64-15.23s5.3-12,11.71-15.23c25.29-12.7,50.65-13.06,75.45.68,6.91,3.83,9.74,2.12,12.35-4,6.88-16.12,7.95-32.3,1.64-49-2.5-6.6-5-7.9-12-4.88-25.08,10.87-50.28,9.78-74.93-1.94-9.47-4.5-17.63-11.09-16.47-22.61,1.11-11,10.58-15.67,19.88-18.15,24.93-6.64,48.89-2.63,70.35,11.15,10.35,6.64,14.56,3.42,17.8-6.05,7.67-22.43,6.76-44.51-3.06-66.16-3.56-7.86-7.77-10.89-16.82-6C525,481.67,507.67,485.85,490,487.87c-7.65.87-15.34.83-22.91-1.57-10-3.19-18.78-7.81-20.7-19.17-2.05-12.1,3.29-21.65,13.46-27.57,25.2-14.65,51-13.17,76.87-1.39,7,3.2,13.29,13.05,22.12,2.13,8.46-10.45,9.66-21.74,2.45-32.51-7.43-11.1-18.46-17.33-30.46-21.87a158.44,158.44,0,0,0-22.23-6.2c-17-3.76-18.82-9-6.95-22.41a279.43,279.43,0,0,1,47.81-42.26C551.22,313.8,552.9,312.43,554.62,311.11Zm-72.53,162c17.33-1.08,32.92-5.54,48.06-11.71,2.3-.94,5.94-1.68,5.44-5-.25-1.71-2.72-3.6-4.62-4.5-16.93-8.05-34.65-10.7-52.63-4.8-7.88,2.59-18.19,6.59-16,17.15C464.47,474.1,475.25,471.8,482.09,473.06Zm30.36,103.81c4.26.4,12.19-1.18,19.74-4.48,2.7-1.18,6.77-1.54,6.64-5.65-.09-3-3-4.36-5.34-5.61-19.16-10.19-39.21-13.07-60.23-6.93-3,.87-6.5,2-6.72,5.77s3.13,5.21,5.78,6.89C483.33,573.88,495.61,576.23,512.45,576.87ZM497.78,666.4c14.13.12,24-2.82,33.34-7.53,6.57-3.29,8.85-7,.56-10.7-19.54-8.7-39.15-9.58-58.48.69-7.92,4.22-7,8.83.5,12.26C482.4,665.09,491.81,666.2,497.78,666.4Z" transform="translate(-430.12 -157.91)"/><path d="M517,243.5c-25.05.05-43.16-17.53-43.53-42.27-.36-23.06,20.07-43.45,43.41-43.32,23.65.13,43.88,20.17,43.61,43.2C560.18,225.73,542,243.46,517,243.5Zm1.66-14.86c17.62,0,29.56-12,29.81-30.1.23-16.62-12.37-28.85-29.56-28.72-17,.13-29.78,12.33-30.05,28.65C488.55,215.62,501.41,228.64,518.64,228.64Z" transform="translate(-430.12 -157.91)"/><path d="M514.86,277.59c-33.22-1.29-60.21-19.94-70.16-48.65-1.25-3.6-4.59-8.52.36-10.77s6.33,3.64,8.37,6.83c32.62,51.13,95.71,50.66,127.64-1,2-3.25,3.46-9.25,8.28-6.93,5.32,2.56,1.89,8,.45,12C579.53,258,547.23,278.84,514.86,277.59Z" transform="translate(-430.12 -157.91)"/></svg>