<svg id="Layer_1" data-name="Layer 1" xmlns="http://www.w3.org/2000/svg" viewBox="0 0 256.36 539.4"><path d="M549.44,487.22c-33.27,8.43-65.9,16.8-98.6,24.93-8.72,2.18-17.47,4.45-26.65,4.11-7.3-.27-13.28-2.37-16.37-9.62s.83-12.19,5.37-16.8c21.57-21.88,45.3-41.35,68.93-60.91,28.44-23.55,56.54-47.49,85-74-12.85-2.53-23.47,1.66-34.17,2.86-22.82,2.56-45.06,9.21-68.16,10.11-6.24.24-12.16-.32-14.63-7-2.65-7.14-.44-13.13,5.75-17.82,42-31.78,76.14-71.6,112.55-109.11,6-6.15,11.75-12.49,17.72-18.63,5.7-5.86,12.49-8.35,19.12-2.36,7.29,6.59,4.86,13.94-1.07,20.18q-37.8,39.69-75.86,79.13c-6.8,7.06-13.93,13.82-23.45,23.23,23.83-3.36,44-6.49,64.25-8.93,13.34-1.61,29.25-5.05,36.49,9.51,7.17,14.39-7.41,22.53-15.8,31.12-33.16,33.94-71.42,62.17-106.36,94.13-6.92,6.33-14.1,12.38-20.12,21l50.14-12.25q31.53-7.72,63.06-15.43a46,46,0,0,1,9.29-1.71c7-.19,13.62,1,17.08,8.3,3.35,7-.2,12.31-4.87,16.88q-30.93,30.3-62.11,60.35c-46.38,45-91,91.45-127.84,144.86-11.28,16.38-21.36,33.45-28.29,52.2-3,8.19-7.44,15.79-17.47,12.63-11-3.45-9.95-12.71-6.78-21.36,14.05-38.33,38.34-70.37,63.9-101.39A1282.8,1282.8,0,0,1,541.65,497.21C544.48,494.61,548.33,492.62,549.44,487.22Z" transform="translate(-353.44 -209.57)"/></svg>