<svg id="Layer_1" data-name="Layer 1" xmlns="http://www.w3.org/2000/svg" viewBox="0 0 414.73 458.85"><path d="M450,537.68c-18.08,20.4-35.31,40-52.78,59.45-11.49,12.78-14.36,12.86-26.12,1.24Q335.48,563.11,300,527.65c-3.1-3.1-6.84-5.88-7.38-11.4,7-2.21,10.06,3.23,13.81,6.43,22.3,19.1,44.7,38.1,66.55,57.69,7.8,7,12.76,6.81,19.74-1.27,23.32-27,47.24-53.49,71.15-80,6.36-7,7.93-11.5-3.5-14.28-7.26-1.77-13.42-6.2-13.69-14.79-.27-8.94,6.71-13,13.47-15,11.35-3.36,9.09-7.2,2.94-14.23q-64.29-73.37-128-147.23c-2.07-2.39-4.13-4.8-6-7.31-2.35-3.08-7.16-6.48-3.34-10.31,4.77-4.79,8,.82,10.82,3.89q41.69,45.44,83.19,91c6.4,7,13,13.82,19.32,20.88,4.42,4.93,7.65,6.78,12-.61,5.29-9,14.42-11.73,24.51-11.57,17,.25,33.64,3.39,48.43,11.22,12.62,6.69,21.12,3.47,29.83-5.6,11.56-12,14.58-23.2,9.12-35.48-7.05-15.87-14.23-18.52-30.32-11.85-21.22,8.81-43,13.45-66.08,8.36C456.2,344,448.38,338.53,448,327.72c-.39-11.3,8.28-16.32,18.14-18.79,21.74-5.46,43-2.56,64,4.12,18.39,5.86,25.31,2.83,33.72-15.16,8.26-17.64,5.23-33.26-9.11-41.74-18.29-10.8-38.56-11.54-59.08-9.6-11.75,1.11-23.49,2.45-35,3.66-.79-4.35.75-5.58,2.46-6,25.18-5.79,50.57-10.17,76.33-4.67,37.88,8.09,50.43,43.43,26,74.51-6.43,8.19-8.09,13.16.4,20.66,10.71,9.45,9.54,23.4,10.34,39.78,18.16-19.71,34.25-37.07,50.24-54.53,11.89-13,23.51-26.24,35.57-39.08,3-3.24,6.36-10.38,11.58-5.81s-1.17,8.92-4.14,12.32c-33,37.78-65.91,75.58-99.33,113-6.84,7.64-9.84,13.2-3.21,23.19,9.53,14.36,7.69,27.42-4,40.86-4.76,5.47-5.26,8.71-.61,14.68,10,12.92,13.81,27.43,5.52,42.95-3,5.62-2.2,9.85,2.05,14.55,13,14.4,25.94,28.93,38.38,43.84,5.68,6.8,10.1,6.85,16.62,1.06,23.28-20.71,46.9-41,70.53-61.37,3-2.61,6.5-8.85,10.9-3.7,3.18,3.72-2.15,7.16-4.87,9.84-25.75,25.35-51.68,50.52-77.44,75.87-6.59,6.49-12.2,6.18-18.3-.73-10-11.35-20.4-22.37-33.17-36.3,2.58,20.92-.54,36.34-14.07,48.06-4.68,4.06-2.47,7.54-.06,11.8,16.38,29,8.14,53.8-22.53,64.88-21.76,7.87-44.32,7.84-66.59,1.17-4.84-1.45-10.32-2.92-14.12-13.06,18.39,9.2,34.85,8.6,51.23,8.08,13.76-.44,26.83-3.75,38.14-12.1,14.75-10.9,16.25-30.41,4-44-5.05-5.59-9.9-4.22-15.83-2.17-19,6.59-38.47,9.92-58.59,5.72-1.33-.28-2.7-.37-4-.75-11.22-3.3-22.09-7.53-22.71-21.46-.43-9.78,11-18.33,25.6-19.93,19.92-2.18,38.38,3.82,56.7,10.57,6.23,2.3,11.42,10.79,19.36,4.14s13.42-15,13.38-25.58a34.11,34.11,0,0,0-9.3-23.4c-5.75-6.23-11.39-8.25-20.2-4.09-19.35,9.14-39.57,14.89-61.61,10.27C457.64,560.41,449.76,553.46,450,537.68Zm13.22-15,1.63,3.21c26.65-11,51.55-.86,77.1,5.67a482.07,482.07,0,0,0-32.59-38.1c-5.66-5.92-13.49-6.43-19.35-.6C480.57,502.3,472.13,512.73,463.25,522.72ZM466,420.36c8.47,9.57,15.47,18.24,23.29,26.09,7.41,7.44,15.32,8.65,23-.57,6.87-8.28,14.39-16,21.32-24.26,2.31-2.73,8.06-5,4.54-9.56-2.4-3.12-6.68-.61-10,.67A123.17,123.17,0,0,1,466,420.36Zm69-95.26c-23.46-7.27-43.81-12.23-65.28-6.53-5,1.32-10.3,2.85-10.3,8.92s5.36,7.69,10.37,8.79C492,341.17,512.1,334.6,535,325.1Zm-3.6,290.7c-22-11.83-41.59-14.86-62.21-11.92-4.49.64-9.34,2.53-9.58,8s4.53,7.5,8.94,8.67C488.65,625.9,508.36,624.67,531.37,615.8ZM519.71,402.51A73.64,73.64,0,0,0,469.41,391c-5.06.62-9.92,3.33-9.82,9.43.09,5.41,4.7,7.32,9.16,8.58C486.46,414,503.22,410.38,519.71,402.51ZM528.5,542c-18.51-8.22-35.86-9.85-53.86-6.47-5.44,1-11.9,2-12,8.62-.07,6.85,6.78,8,12,8.46C492.91,554.28,510.29,551,528.5,542Zm33.67-100c-.35-1.44-.69-3.21-1.24-4.91-1.5-4.71-2.62-10.53-7.5-12.15-5.2-1.72-7.08,4.45-10,7.42-5.38,5.4-10.37,11.21-15.21,17.11-2.13,2.58-5.64,6.41-.15,8.63,6.81,2.75,13.71,8.31,21.56,3.82C556.94,457.7,561.54,451.15,562.17,442Zm-1.79,61.74c-.45-7.85-4.09-14.8-10.35-20.52-7.51-6.85-15.94-2.47-21,1.54-5.94,4.71,3,8.36,5.47,12.19,3.12,4.86,7.55,8.92,11.7,13,2.73,2.7,4.85,7.71,9.56,6.1C561,514.29,560,508.84,560.38,503.73Zm-83.95-26.24c5-.3,11-.54,10.61-7.12-.35-5.44-5.62-8.54-10.87-7.38-6,1.32-16.58-.37-16.46,7.19C459.82,477.07,469.91,476.6,476.43,477.49Z" transform="translate(-292.64 -237.05)"/></svg>