<svg id="Layer_1" data-name="Layer 1" xmlns="http://www.w3.org/2000/svg" viewBox="0 0 355.13 481.89"><path d="M486.14,257.07a88.24,88.24,0,0,0-26.44,4.42c-7.6,2.44-15.8,3.61-19-5.9-3.3-9.78,4.63-13.58,11.88-16,34-11.22,66.37-9.94,95.38,13.61,3.38,2.73,6.48,4.13,10.76,3.39a65.41,65.41,0,0,1,8.31-.47c23.29-1.09,42.67,6.23,53.46,28,11,22.26,6.77,43.36-9.06,61.9-5.07,5.94-3.83,7.65,2.69,10.31,22.65,9.24,32,27.51,32,50.9S634.88,447.36,613.8,457c-6.51,3-9.06,5.8-7.42,13.37,8.53,39.55,17.39,79,32.06,116.85,11.14,28.75,24.62,55.95,50.37,75,5.84,4.31,7.77,10.47,2.85,16.56-4.8,5.94-10.77,5.37-16.9,1.18-18.53-12.64-31.58-29.93-42-49.36-25.3-47.07-37.11-98.5-48-150.18-12.2-58.18-19.34-117.35-33.71-175.09C542.47,270.71,523.52,256.57,486.14,257.07ZM622.9,407.26c0-17.8-12-31.21-27.54-31.21-3.74,0-6.08,0-5.13,5,3.07,16.34,5.66,32.77,8.65,49.12,1.28,7,5.48,6.82,10.3,3.33C618.09,427.05,622.87,418.37,622.9,407.26ZM603.42,311c.93-16.23-11.64-30.84-26.48-32-6.46-.49-10.14.67-7.42,8.38A287.4,287.4,0,0,1,581.23,332c1.47,8.09,5.06,6.61,9.49,2.81C598.28,328.34,602,319.81,603.42,311Z" transform="translate(-339.34 -232.78)"/><path d="M426.35,433.27q-20,0-40,0c-9.91,0-19.83.09-29.75-.13-6.4-.14-13.14-.46-16.2-7.5-2.93-6.76.61-12.26,4.5-17.48q31.31-42,62.59-83.95c4.63-6.23,10.11-11.39,17.82-6,8.19,5.72,5.42,12.9.44,19.63Q403.47,368,381.29,398.19c-2,2.69-6.39,5.25-4.19,9,2,3.33,6.57,1.63,10,1.65,22.62.13,45.23.07,67.84.08,7.31,0,14.85.16,17.87,8.54,2.9,8.07-3.27,12.42-8.29,16.8-28.2,24.57-57.43,47.62-93,60.95-11,4.13-6.85,13.54-6,20.4,1,8.54,8.18,3.28,12.46,2.66,24.11-3.49,48.24-4.84,72.09.92,32.45,7.84,49.28,33.89,44.32,66.91-4.4,29.36-17.83,53.95-38.85,74.56-26.34,25.83-57.28,43.57-93.19,52.44-1.16.28-2.28.7-3.45.92-7.53,1.39-15,1.45-17.26-7.71s3.82-12.78,11.59-14.67c23.69-5.75,46.31-13.91,65.92-29,26.25-20.17,46-44.72,52.5-78.09,4.72-24.2-7.3-39.81-31.26-43.73-26.08-4.25-51.33-1-76.55,5-15,3.55-21-.7-21.36-16-.28-13.08-.21-26.18.09-39.26.2-9.08,4.4-13.85,14.24-15.61C384.63,470,404.7,450.81,426.35,433.27Z" transform="translate(-339.34 -232.78)"/></svg>