<svg id="Layer_1" data-name="Layer 1" xmlns="http://www.w3.org/2000/svg" viewBox="0 0 136.68 480.24"><path d="M579.16,563.93c.09,24.32.23,48.64-2.11,72.87-1.95,20.22-7.79,39.15-20.5,55.45-18.15,23.27-45.32,25.6-67,5.7-12.85-11.8-21.32-26.31-26.09-43a32.61,32.61,0,0,1-1.23-7.85c-.15-4.91.5-9.94,6.71-10.33,5.6-.35,7,4,7.53,8.67,2.18,18.11,11.15,32.58,24.54,44.42,13.23,11.69,27,11.06,40-1.17,17.34-16.32,21.54-37.81,22.94-60,2.06-32.91-.54-66,2.09-98.86.59-7.42-1.83-8.78-8.43-5.54-7.16,3.51-14.6,6.54-22.87,6.5-4.66,0-6.81,3.57-9.17,6.84-10.76,14.89-22.13,29.19-37.33,40a32.1,32.1,0,0,1-14.61,6c-3.55.46-6.68-.92-7.93-4.64-1.39-4.12,1.05-6.15,4.53-7.49,16.69-6.4,26.86-20.14,37.73-33.21,4.87-5.86,2.5-7.14-3.55-8.75a111.52,111.52,0,0,1-36.83-17.41,30.37,30.37,0,0,1-5.37-4.43c-2.75-3.21-4.59-7-1.23-10.75,3.58-4,7.33-1.93,10.46,1,11.61,10.72,25.6,16.41,40.67,20.28,6.28,1.61,10.22.17,13-5.57,4.54-9.27,9.24-18.47,14-27.64a40.87,40.87,0,0,1,4.76-7.57c2.35-2.8,5.57-3.73,9-1.82,3.78,2.12,3.35,5.5,1.82,8.7-3.74,7.82-7.78,15.48-11.46,23.31-1,2.2-4,4.8-1.32,7.1,2.22,1.91,5.06-.27,7.44-1.26a37.31,37.31,0,0,0,14.59-10.22c2.47-2.92,5.37-5.18,9.53-3.75,4.53,1.55,5.68,5.34,5.69,9.57C579.19,527.29,579.16,545.61,579.16,563.93Z" transform="translate(-442.52 -231.19)"/><path d="M572.85,313.39c-1,33.92,1.24,63.91-1.7,93.82-1.21,12.32-3.2,24.54-8.18,35.87-12.05,27.45-41.91,38.38-74.76,28.41-28.65-8.69-34.14-29.35-39.15-55.88-.62-3.27.85-6,4.29-6.92a6.33,6.33,0,0,1,8,4.3c2,5.63,3.35,11.48,4.86,17.26,4.63,17.62,15.62,28.36,33.93,30.56,18,2.17,35,.13,46.34-16.25,8.62-12.48,10.87-27.45,11.14-42,.87-46.94.57-93.9.79-140.85,0-5.93-2.31-6.77-7.42-4.51-28,12.37-56.84,12.16-86,5.12-7.17-1.73-13.92-4.76-19.38-9.87-2.85-2.65-4.48-6.19-1.44-9.71,2.7-3.13,6.07-2,9.1-.28,28.87,16.77,58.69,13.32,88.68,4a29,29,0,0,0,14.71-9.93c2.82-3.69,6-6.51,11-4.86,5.24,1.74,5.22,6.42,5.23,10.76C572.88,267.41,572.85,292.39,572.85,313.39Z" transform="translate(-442.52 -231.19)"/><path d="M513.16,313.23c.13,2,.62,5.64.56,9.28-.14,8.31-4.63,13.12-12.81,13.66a117.73,117.73,0,0,1-19-.41c-6-.58-11.12-1.58-15.78,4.62-3.57,4.74-10,1.5-10.89-5.61-.91-7.57-.81-15.28-.83-22.93,0-6.4-1.38-12.55-2.62-18.75-.56-2.76-.22-5.38,2.39-7.08s5.92-1.61,7.4.46c8,11.16,19.19,7.82,29.11,5.73C517.33,286.58,512.61,292.42,513.16,313.23ZM485,306.8c-3.31,0-6.61,0-9.91,0s-5.87,1.28-6.05,5.06-.39,8.2,4.07,9c7.44,1.34,15.06,1.68,22.63,2.17,2.51.16,2.85-2,3.2-4.14C500.71,308.21,498.35,306.08,485,306.8Z" transform="translate(-442.52 -231.19)"/><path d="M496.21,284.23c-7.67.11-15.23-.66-22.47-3.38-4-1.5-7.49-3.89-6.09-8.72,1.3-4.5,5.15-4.07,9.05-3.42a125.53,125.53,0,0,0,41.52-.42c4.65-.77,10.29-1.9,11.47,4.17,1.15,5.88-4.19,7.32-8.94,8.39C512.66,282.66,504.57,284.44,496.21,284.23Z" transform="translate(-442.52 -231.19)"/><path d="M486.11,541.74c-.26,3.91-2.05,6-5.52,6.12-2.94.12-5.22-1.26-5.49-4.38-.32-3.63,1.86-5.39,5.33-5.53C483.39,537.84,485.36,539.2,486.11,541.74Z" transform="translate(-442.52 -231.19)"/></svg>