<svg id="Layer_1" data-name="Layer 1" xmlns="http://www.w3.org/2000/svg" viewBox="0 0 325.74 493.54"><path d="M559.64,393.18c-27,12.2-49.71-3.77-73.26-43-8.55,11.63-16.67,23.16-27.71,32.18-12.89,10.53-27.32,17.08-43.93,18.53-2.43.21-5.95,1.31-7-2.07-1-3.09,1.93-4.88,4.19-6.17a46.06,46.06,0,0,1,9.44-4.13c24.13-7.28,39.72-23.92,50.91-45.64,3.37-6.53,1.92-9.13-5.51-8.74-16.5.87-33,1.33-49.53,2.32-8.6.52-15.77-2.78-22.76-7-1.93-1.17-4.3-2.47-3.6-5.22s3.49-2.55,5.72-2.8c1.52-.17,3.07-.12,4.61-.16q34.59-.87,69.19-1.75c11.66-.29,15-3.78,13.94-15.53-.37-4.2-2.16-8.63,1.59-11.93,4.9-4.3,11.34-10.4,16.81-8.08,6.34,2.69,1.11,10.21-.18,15.34-4.83,19.19-8.89,20.79,15.05,18.29,19.08-2,38.38-2,57.59-2.6,3.12-.1,8-1.14,8.34,3.62.3,3.58-4.13,4.09-6.89,5-15.56,5.34-32.09,2.72-48,5.54-2.62.47-5.37.23-8.07.32-23.74.86-26.72,6.67-14.11,27.47,9,14.77,22.18,24.28,38,30.52C548.69,389.2,553,390.7,559.64,393.18Z" transform="translate(-364.78 -231.93)"/><path d="M564.4,279.13c-5-8.78-11.27-14.82-12.91-23.49-.91-4.79-1-9.18,2.11-13.09,1.69-2.11,3.83-4.07,6.81-3.56,3.3.56,3.9,3.49,4.1,6.16,1.69,22.06,15,32.17,35.56,35.6,21.42,3.57,36-4.61,45.08-26.34,2.36-5.67,4.05-11.7,9.68-15.24,2.55-1.6,5.19-4.08,8.36-2.17,3.44,2.08,1.71,5.51,1.13,8.37-2.82,14-11.2,24.79-22.37,36.21,10-.5,17.86-1.36,25.71-1.16,7.36.18,15.26-2.3,22.86,3.41-12,9.91-26.48,10.13-39.63,10.27-34.87.39-69.71,4.92-104.65,1.09a41.64,41.64,0,0,1-18.21-6.4c-2.28-1.45-4.84-3-4.35-6.18.62-3.94,4.19-4.41,7.15-4.33,8.8.21,17.59.92,26.4,1.34C559.08,279.71,561,279.38,564.4,279.13Z" transform="translate(-364.78 -231.93)"/><path d="M439.23,612.15c-16.61,2.32-30.61,4.39-44.64,6.13-3.35.41-7.21.6-10.15-.68-4.75-2.05-11.45-4.43-10.22-10.75,1.11-5.73,7.7-3.83,12-3.72,21.66.56,43-2.39,64.27-5.66,3-.45,6.37-2.05,8.35,1.3,1.66,2.8-1.14,5-2.4,7.22-3.82,6.85-4.59,14.64-6.89,22-8.61,27.39-19.2,53.64-41.11,73.62-9.15,8.34-20.16,12.46-32.05,14.8-4.38.86-8.3.51-11.58-2.8.55-1,.84-2.18,1.26-2.24,34.43-4.25,47.48-31,59.48-57.87C431.1,641,432.16,626.71,439.23,612.15Z" transform="translate(-364.78 -231.93)"/><path d="M426.42,568.41c2.71-10.75,9.92-18.36,16.27-26.38,13.2-16.64,24.63-34.31,33.39-53.65,2.93-6.47,7.39-11.63,12.6-16.26,9.08-8.05,12.36-7.21,15.8,4.11,1,3.3,1.85,6.66,2.6,10,6,26.82,13.91,52.72,32.85,73.8,2.16,2.41,5.89,6.15,3.4,8.93-3.32,3.73-7-.6-9.76-2.67-12.48-9.49-22-20.88-26.07-36.77-3.47-13.58-5.09-27.83-13.2-44C481,523.38,456.69,548.52,426.42,568.41Z" transform="translate(-364.78 -231.93)"/><path d="M471.64,449.48c4,.82,7.9,1.6,11.58,0,5.26-2.25,12.3-3.81,13.88-9.34s-6.16-6.71-9.36-10.23c-4.63-5.09-11.51-8-14.92-14.24-2.72-5-3.49-11.23,1.17-14.9,5.08-4,8.17,2,11.08,5.06a213.34,213.34,0,0,1,15.77,18.35c4.39,5.81,7,4.54,9.48-1.24,5.17-12.24,14.52-19.55,27.16-22.78,2.91-.75,7-1.61,8.49,1.34,1.8,3.65-2.3,5.22-4.89,6.48-7.45,3.61-11,10.06-14.43,17.17-7.14,14.65-15.65,28.23-32.44,34.06-8.72,3-16.65,1.45-24.55-2.08-2.28-1-5.78-2-4.76-5.4S469.23,449.38,471.64,449.48Z" transform="translate(-364.78 -231.93)"/><path d="M403.91,585.9c-4.53-4.56-3.93-9.74-4.29-14.62-2.5-34.45,5-68,9.34-101.81a13.52,13.52,0,0,1,1.72-5.44c3.46-5.43,7.05-13.82,13.74-11.94,7.57,2.12,3.41,10.46,2.3,16-7.26,36.49-14.44,73-19,110A11,11,0,0,1,403.91,585.9Z" transform="translate(-364.78 -231.93)"/><path d="M459.74,671.16c-1-14.78.87-26.1,5.09-37,2.73-7.06,7.12-12.75,14.4-15.68,2.9-1.16,6.18-2.44,8.61.24,3.23,3.58-.11,6.44-2.08,9C472,646,470.34,666.52,474.51,688.13c2.18,11.3,6.63,21.2,16,28.48,2.22,1.73,6.53,3.57,4.31,6.95s-6.6,1.43-9.43-.18c-16-9.11-23.57-23.7-25.59-41.47A75.17,75.17,0,0,1,459.74,671.16Z" transform="translate(-364.78 -231.93)"/><path d="M555.86,674c-1.18,17.12-9.46,32.57-24.2,44.62-2,1.61-4.63,3.84-7.16,1.49-2.73-2.55-.26-5.26,1.45-7,25-25,20.49-49.61.21-74.9-3.87-4.82-9.85-13.61-2.92-18.06,5.5-3.53,10.61,5.34,14.5,10.27C547.37,642.65,555.49,655.63,555.86,674Z" transform="translate(-364.78 -231.93)"/><path d="M507.21,694.35c-6.94-.46-11.73-3.26-14.23-9.07-3.92-9.1-3.39-18,2.62-26,3.95-5.31,9.57-7.83,16.06-6.9,5.68.81,6.69,4.89,3.9,9.32-2.63,4.18-6.44,7.61-9.06,11.8-3,4.82-3.44,9.6,3.57,11.57,2.71.76,7.54-.44,6.78,3.82C516,693.68,510.68,693.67,507.21,694.35Z" transform="translate(-364.78 -231.93)"/><path d="M474.62,550.25c10.27.59,20.54,1.16,30.8,1.77,1.8.11,4.19-.7,5,1.56,1,2.77-1.44,4.15-3.34,5.22-12.46,7.05-26.27,7.31-40,7.11-5.63-.08-9-4.7-8.77-10.23.18-5.83,5.21-5.56,9.43-5.68,2.29-.07,4.58,0,6.87,0Z" transform="translate(-364.78 -231.93)"/><path d="M591.48,245.72c.95-8.1,4.77-14,13.62-13.79,6.24.15,12.46,2.11,12.36,10.42-.1,7.86-8.2,16.47-15.15,16C594.74,257.77,592.18,252.56,591.48,245.72Z" transform="translate(-364.78 -231.93)"/></svg>