<svg id="Layer_1" data-name="Layer 1" xmlns="http://www.w3.org/2000/svg" viewBox="0 0 417.23 513.8"><path d="M736.93,427.38c-.83-5.9-5.4-7.38-10.59-7.26-19.79.45-39.57,1.18-59.36,1.44-34,.44-68,.49-101.93,1a9.39,9.39,0,0,1-6.18,2.48,36.49,36.49,0,0,1-13.1-1.94,9.18,9.18,0,0,1-2.91.56c-5.3.2-9.72-1.72-10.67-7.33-.79-4.67-.48-9.54-.51-14.32-.43-61.44-.71-122.88-1.36-184.31-.09-8.62.74-19.69-9-23.22-11.65-4.23-13.87,7.83-18.64,14.77a100.41,100.41,0,0,1-6.08,8.27q-82.2,97-164.35,194c-5.36,6.36-15.81,11.41-11.4,22.13,4.81,11.71,16,7.76,25.18,7.86q78.9.84,157.8,1.49c5.32,0,9.53.22,9.81,7,.12,3-.11,5.87-1.25,8,0,.13.07.25.1.38a39.58,39.58,0,0,1,.3,16c1.67,2.68,2.23,6.34,2.23,11.1,0,28-.31,56,.45,84,.35,12.9-5.6,17-17.15,16.91-15.71-.08-31.43-.12-47.13.47-6.58.25-15.47.25-15.24,9.73.26,10.49,9.09,9.89,16.84,9.83,17.08-.14,34.16-.07,51.24-.07,5.21,0,11.85-2.13,12.05,6.56a11.41,11.41,0,0,1-.68,4.43,9.93,9.93,0,0,1,1.51,4.84,8.58,8.58,0,0,1-3.16,6.82c4,4.83,4.74,12.6,4.67,21.44-.13,14.34.49,28.7,1.52,43,.47,6.57,1.11,15.47,11,13.71,8.5-1.52,9.33-9.6,7.58-16.49C534,673,540,655.14,536.68,637.53c-.83-4.37.1-7.52,2.19-9.31a25.33,25.33,0,0,1-1.38-6c-.33-3,1.69-5.94,4.22-7.62a9,9,0,0,1,.19-.93c1.43-5.21,6.35-7,11.23-6.38,3.26.44,6.49,1.06,9.7,1.74,1.86-4.59,7.78-3.73,12.33-3.8,21.87-.38,43.75-.46,65.62-1,6.72-.14,15.35.3,15.92-8.93.69-11-8.71-10.6-16.1-10.67-20.48-.19-41-.25-61.45.26-4.57.11-8.35-.32-11.36-1.52-4.22.78-8.44,1.64-12.62,2.67a8.73,8.73,0,0,1-6.53-.78,11.7,11.7,0,0,1-2.17.22c-7.83.07-11.06-4.18-11.09-11.44-.07-17,0-34,0-51.06h-1.28c0-15,.12-30-.07-44.95,0-3.71-.33-7.44,2.27-9.37a9.69,9.69,0,0,1-.83-3.77,9.15,9.15,0,0,1,.92-3.91c-2.33-1.42-3.52-4-3.29-8.08.27-4.78.43-9.58,7.09-9.72,4-.07,7.42.41,9.32,3a25.52,25.52,0,0,1,11.43-2.38,9.14,9.14,0,0,1,2.92-1.22,47.3,47.3,0,0,1,10.18-.84c43.68-.34,87.36-.46,131-1,8.12-.1,16.26-1.64,24.3-3C734.82,436.81,737.7,432.93,736.93,427.38ZM489.2,424.45c-44.81-2.58-89.87,1.4-135.37-3.28,5.73-10.49,143.81-175,159.24-188.36,0,60.17-.42,114.65.24,169.11C513.52,419.75,507.23,425.49,489.2,424.45Z" transform="translate(-319.82 -193.58)"/></svg>