<svg id="Layer_1" data-name="Layer 1" xmlns="http://www.w3.org/2000/svg" viewBox="0 0 480.44 299.89"><path d="M584.46,425.07c45.78-13.18,89.33-17.18,132.31,1.05,28.46,12.07,43.87,40.34,38.65,70.62-4.4,25.52-22.85,39.61-45,48.62-39.26,16-78.62,15-117.49-2.37A304.58,304.58,0,0,1,523,499.62c-5.36-4.43-8.09-4.57-13.23.75-35.2,36.36-70.87,72.25-106.37,108.33-2.25,2.29-4.28,4.8-6.58,7.4,4,3.27,8.2,1.87,12,1.87q121.61.16,243.21.15a83.24,83.24,0,0,1,14.2,1.1c4,.69,6.49,3.42,6.1,7.82-.36,4-3.13,5.7-6.68,6.12a83.59,83.59,0,0,1-9.88.48q-135.36,0-270.72,0c-1.11,0-2.21.06-3.31,0-4.68-.3-10.08.52-12.38-5s1.61-9,5-12.37c12.89-13.06,25.66-26.22,38.78-39,13.36-13.06,27.07-25.75,39.71-39.83-18.34,5.95-35.48,14.18-54.36,16.39-31.69,3.72-62.25.3-90.25-16.4-22.77-13.59-34.75-33-31.81-60.29,2.7-25,16.35-42.3,38.73-52,38.29-16.64,77.87-15.78,117.46-5.29a168.53,168.53,0,0,1,76.5,43.76c5.8,5.75,9.17,5.82,14.92-.1,35.54-36.54,71.47-72.71,107.23-109a17.69,17.69,0,0,0,1.93-3.35c-4.33-2.26-8.75-1.35-12.93-1.35-82.9-.06-165.81,0-248.71-.18-6.64,0-17.35,3.14-17.19-7.8s10.86-7.5,17.47-7.52q135.36-.31,270.73-.14c1.83,0,3.67-.08,5.5,0,5,.31,10.89-.55,13.17,5.54,2.08,5.56-2.51,8.73-5.75,12.07Q623,385.37,590.3,418.85C588.8,420.39,587.35,422,584.46,425.07ZM608,509.76c16.45-.11,30.53-2.23,43.93-7.64,7.57-3.05,15.82-6.8,15.85-16.21s-7.25-14.7-15.28-18.34a46.5,46.5,0,0,0-8.34-2.73c-29.66-7.07-58.92-5-87.6,4.78-7.21,2.46-13.87,6.59-20.63,10.24-4.43,2.39-4.89,5.11.09,7.77C559.19,500,583.27,509.28,608,509.76ZM423,460.43c-5.49,0-11-.54-16.47.11-12,1.43-24.2,2.54-34.24,10.33-11.09,8.61-10.86,17.85.57,25.78,6.39,4.44,13.61,7,21.2,8.67,37.38,8.41,70.9-3.31,103.43-19.86,7.9-4,1.21-5.95-1.76-7.59C473.07,465.38,448.87,459.2,423,460.43Zm-18.89-30.28c-34.26-3.8-60-1.13-80.93,7.94-19.65,8.51-31.09,23-32,44.65-.88,21.42,11.33,34.83,29,44.2,22.14,11.77,47.63,15.13,76.73,10.67-24.07-.46-43.33-5.08-59.22-14.21-25.68-14.75-32.32-44.08-15.08-66.59,8.91-11.62,21.34-17.53,34.93-21.64C372.7,430.56,388.34,430,404.07,430.15ZM639,540.34c9.08,0,18.25.79,27.23-.16,22.84-2.4,45-7,62-24.48,11-11.37,15.19-24.35,11.14-40.23-3.15-12.35-9.23-22-19.49-29.5-17.13-12.49-62.33-20.74-81.51-13.78,10.83.35,20.32.59,29.6,3a104.31,104.31,0,0,1,26.48,10.42c26.71,15.32,36,56.71,1.89,77.73C678.64,534.22,659.07,537.78,639,540.34Zm-2.12-92.93c9.28,1.85,18.27,4.46,26.66,8.91C675.87,462.85,683,472.57,683,486.9c0,13.72-8.86,20.91-19.56,26.74-7.66,4.17-15.9,6.9-27.51,9.46,19.41.63,34.52-2.86,48.53-10.87,10.56-6.05,19.8-13.3,18.89-27.08-1-14.63-9.39-24.17-22.56-29.73A103,103,0,0,0,636.88,447.41Zm-249.7,73.74c-8.25-3.85-14.37-6.26-20.05-9.45-24.12-13.52-24.3-41.12-.62-55.39,11-6.62,23.32-8.31,35.47-11-13,.44-26,1.49-38.58,4.8-7.81,2-15.36,4.69-21.82,9.95-17.72,14.45-17.29,34.9,1.4,47.84C355.33,516.43,369.17,520.71,387.18,521.15Z" transform="translate(-275.99 -333.81)"/></svg>