<svg id="Layer_1" data-name="Layer 1" xmlns="http://www.w3.org/2000/svg" viewBox="0 0 418.36 616.88"><path d="M551.59,555.06c36.56-10.16,68.85-18.7,101.93-23.28,18.9-2.61,38-4.16,56.69,1.78,18.91,6,28,17.65,28.91,36.54.92,19.68-7.53,32.59-26.67,39.93-25.61,9.82-51.41,3.75-77,.16-27.94-3.91-54.89-12.58-84.21-16.53q27.43,28,54.9,56C626,669.8,646.07,689.8,666,710c3.93,4,10.08,7.7,7.88,14.27-2.29,6.83-9.32,5.64-15,5.79q-125.64,3.48-251.29,6.74c-8.3.2-18.61,3-22.87-7.44-3.81-9.34,4.64-14.7,9.79-20.5,32.9-37.09,66-74,101.09-113.28-17.9,0-31.79,5.3-45.92,8.42-25.52,5.64-51.12,9.53-77.32,7.91-24.64-1.53-43.43-13.76-49.17-31.9-7.94-25.14,4.48-44,30.8-46.29,27-2.35,52.82,4.25,78.64,10.56,21.11,5.16,42.1,10.82,63.14,16.25l4.31-5.44C462.23,518.71,424.24,482.51,386.57,446,366,426,366.4,425.87,382,402.14c38.36-58.49,76.62-117,110.24-178.48,4.69-8.58,5.64-12.92-4.06-19-19.34-12-26.14-32.31-20-52.37,6-19.62,22-31.64,42.5-32C531.94,120,548,130.83,554.75,150c7.38,21,1.66,41.89-17.93,54.61-11.23,7.29-7.43,13-2.85,21,35.33,61.81,75.75,120.34,116.31,178.71,10.24,14.76,9.07,24-2.45,37.08C616.08,477.23,585.8,514.41,551.59,555.06Zm87.1-140.69c-.32-2.19-.11-3.54-.69-4.34C598,354.08,556.74,299,519.27,241.22c-6.43-9.9-10.8-5.15-14.95,1.84C470.9,299.29,433,352.51,395.5,406c-5.75,8.22-7,12.38,5.79,13.41,50.71,4.06,101.43,8.4,152.32,6.2C582.19,424.4,610.89,422.18,638.69,414.37ZM421.37,710.66l2.39,4.73H652.3c-41.23-42-80.44-81.87-119.5-121.88-8.71-8.92-13-1.38-17.73,4.26-18.48,22.19-36.79,44.54-55.22,66.77C447.08,680,434.2,695.29,421.37,710.66ZM392,431.94c4.95,5.67,7.38,8.75,10.12,11.52C437.91,479.67,474,515.54,509.35,552.2c9.77,10.14,16.17,9.74,25.12-.53,29.62-34,59.86-67.5,89.77-101.27,2.47-2.79,6.73-5,4.28-11.45C551,451,473.58,443.09,392,431.94Zm170,144c35.32,11.57,70.63,20.06,107,22.41,11.34.73,23.12-.67,34.27-3.07,11.91-2.56,19.52-11.45,18.31-23.84-1.59-16.29-14-21.77-28.47-21.94C647.6,549,605,563.45,562,575.94Zm-80.68-6.15c-11.05-3-22.07-6.11-33.17-8.94-29.69-7.59-59.61-13.7-90.52-11.6-9.05.61-18,3.26-19.66,13.57-1.59,9.66,2,18.25,10.85,23.73a37.51,37.51,0,0,0,17.83,6C406.44,594.84,444,584.7,481.33,569.79Zm30.6-373c15.47,0,26.75-11.43,26.93-27.35.19-15.66-11.17-27.86-26.38-28.33-14.42-.46-27.57,12.25-27.94,27C484.13,184.8,495.53,196.76,511.93,196.78Z" transform="translate(-320.83 -120.36)"/></svg>